Recursive Mono-Casual Medium.ufo
<glyph name="numbersign" format="2">
  <advance width="600.0"/>
  <unicode hex="0023"/>
  <outline>
    <contour>
      <point x="214.6320754716981" y="715.561320754717" type="curve"/>
      <point x="203.4056603773585" y="513.561320754717"/>
      <point x="159.93396226415092" y="240.12264150943398"/>
      <point x="38.46226415094339" y="-9.50943396226415" type="curve"/>
      <point x="47.14622641509433" y="-15.316037735849056"/>
      <point x="56.075471698113205" y="-18.87735849056604"/>
      <point x="75.86320754716982" y="-18.87735849056604" type="curve"/>
      <point x="105.08962264150944" y="-19.43867924528302"/>
      <point x="125.63207547169812" y="-13.193396226415095"/>
      <point x="144.73584905660377" y="25.768867924528305" type="curve" smooth="yes"/>
      <point x="249.47169811320757" y="255.61320754716982"/>
      <point x="289.6981132075472" y="507.1792452830189"/>
      <point x="298.1179245283019" y="671.933962264151" type="curve" smooth="yes"/>
      <point x="301.4858490566038" y="713.3867924528302"/>
      <point x="280.87264150943395" y="720.0"/>
      <point x="252.22641509433964" y="720.0" type="curve" smooth="yes"/>
      <point x="239.73584905660377" y="720.0"/>
      <point x="226.68396226415095" y="719.122641509434"/>
    </contour>
    <contour>
      <point x="418.6132075471698" y="714.438679245283" type="curve"/>
      <point x="406.82547169811323" y="514.1933962264151"/>
      <point x="363.91509433962267" y="239.56132075471697"/>
      <point x="241.8820754716981" y="-10.632075471698112" type="curve"/>
      <point x="250.56603773584908" y="-16.43867924528302"/>
      <point x="259.4952830188679" y="-20.0"/>
      <point x="279.28301886792457" y="-20.0" type="curve"/>
      <point x="308.50943396226415" y="-20.0"/>
      <point x="328.49056603773585" y="-13.754716981132075"/>
      <point x="347.03301886792457" y="24.08490566037736" type="curve" smooth="yes"/>
      <point x="452.89150943396226" y="255.05188679245282"/>
      <point x="493.1179245283019" y="506.6179245283019"/>
      <point x="502.0990566037736" y="671.933962264151" type="curve" smooth="yes"/>
      <point x="504.9056603773585" y="712.2641509433962"/>
      <point x="484.2924528301887" y="719.438679245283"/>
      <point x="455.64622641509436" y="719.438679245283" type="curve" smooth="yes"/>
      <point x="443.1556603773585" y="719.438679245283"/>
      <point x="430.10377358490564" y="718.0"/>
    </contour>
    <contour>
      <point x="575.1556603773585" y="433.16037735849056" type="line"/>
      <point x="575.1556603773585" y="437.8443396226415"/>
      <point x="575.1556603773585" y="442.9669811320755"/>
      <point x="575.1556603773585" y="448.21226415094344" type="curve" smooth="yes"/>
      <point x="575.1556603773585" y="482.1745283018868"/>
      <point x="568.2264150943396" y="502.15566037735846"/>
      <point x="555.7358490566038" y="514.6462264150944" type="curve" smooth="yes"/>
      <point x="546.0" y="524.382075471698"/>
      <point x="533.0188679245283" y="528.066037735849"/>
      <point x="505.00471698113205" y="528.066037735849" type="curve"/>
      <point x="80.0" y="528.066037735849" type="line"/>
      <point x="74.94811320754717" y="514.9622641509434"/>
      <point x="72.70283018867924" y="500.29716981132077"/>
      <point x="72.70283018867924" y="488.3160377358491" type="curve" smooth="yes"/>
      <point x="72.70283018867924" y="450.0377358490566"/>
      <point x="84.43867924528301" y="433.16037735849056"/>
      <point x="123.76886792452831" y="433.16037735849056" type="curve" smooth="yes"/>
    </contour>
    <contour>
      <point x="24.283018867924525" y="266.83962264150944" type="line"/>
      <point x="24.283018867924525" y="262.15566037735846"/>
      <point x="24.283018867924525" y="257.0330188679245"/>
      <point x="24.283018867924525" y="251.78773584905662" type="curve" smooth="yes"/>
      <point x="24.283018867924525" y="217.8254716981132"/>
      <point x="31.212264150943394" y="197.8443396226415"/>
      <point x="43.70283018867924" y="185.35377358490567" type="curve" smooth="yes"/>
      <point x="53.43867924528302" y="175.6179245283019"/>
      <point x="66.41981132075472" y="171.93396226415095"/>
      <point x="94.43396226415095" y="171.93396226415095" type="curve"/>
      <point x="542.4528301886793" y="171.93396226415095" type="line"/>
      <point x="544.6981132075472" y="185.03773584905662"/>
      <point x="546.382075471698" y="199.70283018867923"/>
      <point x="546.382075471698" y="211.68396226415092" type="curve" smooth="yes"/>
      <point x="546.382075471698" y="249.96226415094338"/>
      <point x="534.6462264150944" y="266.83962264150944"/>
      <point x="495.316037735849" y="266.83962264150944" type="curve"/>
    </contour>
  </outline>
</glyph>
<glyph name="ampersand" format="2">
  <advance width="600.0"/>
  <unicode hex="0026"/>
  <outline>
    <contour>
      <point x="251.89150943396226" y="373.20754716981133" type="curve" smooth="yes"/>
      <point x="224.99528301886792" y="428.0518867924528"/>
      <point x="209.60849056603774" y="481.0188679245283"/>
      <point x="209.60849056603774" y="526.7735849056604" type="curve" smooth="yes"/>
      <point x="209.60849056603774" y="537.2830188679245"/>
      <point x="210.60849056603774" y="552.5471698113207"/>
      <point x="213.48584905660377" y="562.1792452830189" type="curve"/>
      <point x="233.48584905660377" y="586.7783018867924"/>
      <point x="273.1179245283019" y="603.4292452830189"/>
      <point x="330.08490566037733" y="603.4292452830189" type="curve" smooth="yes"/>
      <point x="387.10377358490564" y="603.4292452830189"/>
      <point x="434.3490566037736" y="589.9198113207548"/>
      <point x="469.2075471698113" y="564.4811320754717" type="curve"/>
      <point x="475.2075471698113" y="564.4811320754717" type="line"/>
      <point x="480.5754716981132" y="577.0943396226415"/>
      <point x="483.8207547169811" y="592.6367924528302"/>
      <point x="483.8207547169811" y="610.1792452830189" type="curve" smooth="yes"/>
      <point x="483.8207547169811" y="638.2830188679245"/>
      <point x="477.6981132075472" y="658.3349056603773"/>
      <point x="460.4009433962264" y="675.632075471698" type="curve" smooth="yes"/>
      <point x="438.3490566037736" y="697.6839622641509"/>
      <point x="394.5424528301887" y="710.0"/>
      <point x="336.66509433962267" y="710.0" type="curve" smooth="yes"/>
      <point x="198.50943396226415" y="710.0"/>
      <point x="110.21226415094338" y="622.9858490566038"/>
      <point x="110.21226415094338" y="533.5801886792452" type="curve" smooth="yes"/>
      <point x="110.21226415094338" y="528.8962264150944" type="line" smooth="yes"/>
      <point x="110.21226415094338" y="472.3867924528302"/>
      <point x="131.4056603773585" y="406.3160377358491"/>
      <point x="169.52830188679243" y="335.75471698113205" type="curve" smooth="yes"/>
      <point x="218.47641509433964" y="246.10377358490567"/>
      <point x="286.6179245283019" y="154.52358490566039"/>
      <point x="354.25" y="86.45283018867924" type="curve" smooth="yes"/>
      <point x="430.0707547169811" y="10.632075471698114"/>
      <point x="470.3867924528302" y="-10.0"/>
      <point x="514.122641509434" y="-10.0" type="curve" smooth="yes"/>
      <point x="532.122641509434" y="-10.0"/>
      <point x="546.3679245283018" y="-5.438679245283018"/>
      <point x="556.0518867924528" y="3.367924528301887" type="curve" smooth="yes"/>
      <point x="567.9811320754717" y="14.419811320754716"/>
      <point x="576.1037735849056" y="34.9622641509434"/>
      <point x="576.1037735849056" y="65.1179245283019" type="curve" smooth="yes"/>
      <point x="576.1037735849056" y="84.66037735849056"/>
      <point x="573.9811320754717" y="102.51886792452831"/>
      <point x="569.7358490566038" y="115.57075471698113" type="curve"/>
      <point x="563.7358490566038" y="115.57075471698113" type="line"/>
      <point x="553.0518867924529" y="105.5"/>
      <point x="541.4905660377359" y="101.74528301886792"/>
      <point x="520.9292452830189" y="101.74528301886792" type="curve" smooth="yes"/>
      <point x="487.38679245283015" y="101.74528301886792"/>
      <point x="446.0377358490566" y="122.23584905660378"/>
      <point x="403.40566037735846" y="164.42924528301887" type="curve" smooth="yes"/>
      <point x="342.8066037735849" y="223.58962264150944"/>
      <point x="286.3490566037736" y="302.6792452830189"/>
    </contour>
    <contour>
      <point x="202.08962264150944" y="-9.43867924528302" type="curve" smooth="yes"/>
      <point x="279.08962264150944" y="-9.43867924528302"/>
      <point x="331.2122641509434" y="23.858490566037737"/>
      <point x="356.10849056603774" y="78.59433962264151" type="curve"/>
      <point x="394.45754716981133" y="78.59433962264151" type="line"/>
      <point x="337.811320754717" y="137.18867924528303" type="line"/>
      <point x="307.35377358490564" y="97.66037735849056"/>
      <point x="276.8383582960542" y="85.7122641509434"/>
      <point x="223.29716981132077" y="85.7122641509434" type="curve" smooth="yes"/>
      <point x="164.9433962264151" y="85.7122641509434"/>
      <point x="131.85377358490567" y="128.7311320754717"/>
      <point x="131.85377358490567" y="186.0141509433962" type="curve" smooth="yes"/>
      <point x="131.85377358490567" y="189.01415094339623" type="line" smooth="yes"/>
      <point x="131.85377358490567" y="252.92924528301887"/>
      <point x="172.25943396226413" y="283.2641509433962"/>
      <point x="221.0" y="291.5990566037736" type="curve"/>
      <point x="175.65094339622644" y="364.66509433962267" type="line"/>
      <point x="164.40566037735852" y="337.0" type="line"/>
      <point x="89.89622641509433" y="321.73584905660374"/>
      <point x="31.89622641509434" y="266.9811320754717"/>
      <point x="31.89622641509434" y="169.1745283018868" type="curve" smooth="yes"/>
      <point x="31.89622641509434" y="165.05188679245285" type="line" smooth="yes"/>
      <point x="31.89622641509434" y="63.0"/>
      <point x="98.31603773584905" y="-9.43867924528302"/>
    </contour>
    <contour>
      <point x="427.0377358490566" y="402.1367924528302" type="curve"/>
      <point x="427.0377358490566" y="391.6981132075472"/>
      <point x="427.0377358490566" y="383.4528301886793"/>
      <point x="427.0377358490566" y="371.89150943396226" type="curve" smooth="yes"/>
      <point x="427.0377358490566" y="297.1788648813382"/>
      <point x="411.4056603773585" y="234.66037735849056"/>
      <point x="365.4056603773585" y="170.4669811320755" type="curve"/>
      <point x="420.7358490566038" y="117.41509433962264" type="line"/>
      <point x="420.7358490566038" y="156.46698113207546" type="line"/>
      <point x="493.1367924528302" y="208.71698113207546"/>
      <point x="536.1698113207548" y="278.83962264150944"/>
      <point x="536.1698113207548" y="344.63207547169816" type="curve" smooth="yes"/>
      <point x="536.1698113207548" y="349.1933962264151" type="line" smooth="yes"/>
      <point x="536.1698113207548" y="386.5943396226415"/>
      <point x="504.08490566037733" y="404.9433962264151"/>
      <point x="453.8066037735849" y="404.9433962264151" type="curve"/>
      <point x="442.2641509433962" y="404.9433962264151"/>
      <point x="433.52830188679246" y="403.8207547169811"/>
    </contour>
  </outline>
</glyph>
<glyph name="comma" format="2">
  <advance width="600.0"/>
  <unicode hex="002C"/>
  <outline>
    <contour>
      <point x="243.45283018867926" y="-195.61320754716982" type="curve" smooth="yes"/>
      <point x="260.62735849056605" y="-195.61320754716982"/>
      <point x="269.55660377358487" y="-191.92924528301887"/>
      <point x="278.3632075471698" y="-182.12264150943398" type="curve" smooth="yes"/>
      <point x="332.8537735849057" y="-122.26415094339622"/>
      <point x="382.6603773584905" y="3.749999999999993"/>
      <point x="382.6603773584906" y="119.43867924528304" type="curve" smooth="yes"/>
      <point x="382.6603773584906" y="168.52358490566036"/>
      <point x="353.36320754716985" y="186.06603773584905"/>
      <point x="294.19339622641513" y="186.06603773584905" type="curve" smooth="yes"/>
      <point x="274.45754716981133" y="186.06603773584905"/>
      <point x="259.6509433962264" y="184.06603773584905"/>
      <point x="238.10849056603772" y="178.06603773584905" type="curve"/>
      <point x="238.10849056603774" y="22.9245283018868"/>
      <point x="217.17924528301887" y="-72.1933962264151"/>
      <point x="164.47641509433961" y="-167.89622641509436" type="curve"/>
      <point x="187.58018867924528" y="-188.12264150943398"/>
      <point x="209.49056603773582" y="-195.61320754716982"/>
    </contour>
  </outline>
</glyph>
<glyph name="three" format="2">
  <advance width="600.0"/>
  <unicode hex="0033"/>
  <outline>
    <contour>
      <point x="300.0" y="719.561320754717" type="curve" smooth="yes"/>
      <point x="213.56132075471697" y="719.561320754717"/>
      <point x="141.94811320754718" y="691.9292452830189"/>
      <point x="110.07075471698113" y="660.0518867924528" type="curve" smooth="yes"/>
      <point x="86.26415094339623" y="636.245283018868"/>
      <point x="78.58018867924528" y="616.3867924528302"/>
      <point x="78.58018867924528" y="575.495283018868" type="curve" smooth="yes"/>
      <point x="78.58018867924528" y="554.1981132075471"/>
      <point x="80.14150943396227" y="539.7075471698113"/>
      <point x="85.70283018867926" y="522.2169811320755" type="curve"/>
      <point x="91.70283018867924" y="522.2169811320755" type="line"/>
      <point x="144.12264150943398" y="585.1650943396226"/>
      <point x="199.1933962264151" y="613.4292452830189"/>
      <point x="288.2122641509434" y="613.4292452830189" type="curve" smooth="yes"/>
      <point x="368.8490566037736" y="613.4292452830189"/>
      <point x="415.2358490566038" y="579.811320754717"/>
      <point x="433.8301886792453" y="530.7358490566038" type="curve" smooth="yes"/>
      <point x="433.8301886792453" y="525.6132075471698" type="line" smooth="yes"/>
      <point x="413.33962264150944" y="426.08490566037733"/>
      <point x="313.8632075471698" y="375.9245283018868"/>
      <point x="173.75471698113208" y="375.9245283018868" type="curve"/>
      <point x="170.6320754716981" y="363.188679245283"/>
      <point x="169.6320754716981" y="354.0660377358491"/>
      <point x="169.6320754716981" y="336.08490566037733" type="curve" smooth="yes"/>
      <point x="169.6320754716981" y="296.3160377358491"/>
      <point x="180.0" y="281.0188679245283"/>
      <point x="208.10377358490567" y="279.33490566037733" type="curve" smooth="yes"/>
      <point x="331.9858490566038" y="274.8443396226415"/>
      <point x="432.5849056603774" y="235.77358490566039"/>
      <point x="445.9528301886793" y="161.41981132075472" type="curve"/>
      <point x="445.9528301886793" y="157.41981132075472" type="line"/>
      <point x="424.09433962264154" y="113.48584905660378"/>
      <point x="372.8301886792453" y="86.1320754716981"/>
      <point x="288.21226415094344" y="86.1320754716981" type="curve" smooth="yes"/>
      <point x="192.50943396226415" y="86.1320754716981"/>
      <point x="130.6320754716981" y="112.71226415094341"/>
      <point x="75.2122641509434" y="177.3443396226415" type="curve"/>
      <point x="69.2122641509434" y="177.3443396226415" type="line"/>
      <point x="64.52830188679245" y="160.73113207547172"/>
      <point x="62.96698113207547" y="145.80188679245282"/>
      <point x="62.96698113207547" y="124.06603773584905" type="curve" smooth="yes"/>
      <point x="62.96698113207547" y="84.49056603773585"/>
      <point x="69.33490566037736" y="62.87735849056604"/>
      <point x="91.38679245283019" y="40.825471698113205" type="curve" smooth="yes"/>
      <point x="127.77358490566037" y="4.438679245283019"/>
      <point x="206.31603773584908" y="-20.0"/>
      <point x="300.0" y="-20.0" type="curve" smooth="yes"/>
      <point x="447.22641509433964" y="-20.0"/>
      <point x="538.5943396226415" y="55.174528301886795"/>
      <point x="538.5943396226415" y="156.3679245283019" type="curve"/>
      <point x="538.5943396226415" y="167.41981132075472" type="line"/>
      <point x="538.5943396226415" y="251.27830188679243"/>
      <point x="471.49056603773585" y="309.27830188679246"/>
      <point x="312.10377358490564" y="337.7169811320755" type="curve"/>
      <point x="343.3490566037736" y="305.9811320754717" type="line"/>
      <point x="343.3490566037736" y="360.5235849056604" type="line"/>
      <point x="313.10377358490564" y="329.27830188679246" type="line"/>
      <point x="464.3490566037736" y="365.73584905660374"/>
      <point x="526.9103773584906" y="450.22641509433964"/>
      <point x="528.0330188679245" y="526.5283018867924" type="curve" smooth="yes"/>
      <point x="528.5943396226415" y="543.1933962264151" type="line" smooth="yes"/>
      <point x="530.8396226415094" y="644.3867924528302"/>
      <point x="441.2264150943396" y="719.561320754717"/>
    </contour>
  </outline>
</glyph>
<glyph name="five" format="2">
  <advance width="600.0"/>
  <unicode hex="0035"/>
  <outline>
    <contour>
      <point x="103.8443396226415" y="700.0" type="curve"/>
      <point x="100.72169811320754" y="690.0707547169811"/>
      <point x="98.16037735849056" y="673.2122641509435"/>
      <point x="98.16037735849056" y="653.7924528301887" type="curve" smooth="yes"/>
      <point x="98.16037735849056" y="604.2358490566038"/>
      <point x="112.89622641509435" y="593.8679245283018"/>
      <point x="152.78773584905662" y="593.8679245283018" type="curve" smooth="yes"/>
      <point x="189.16981132075472" y="593.8679245283018"/>
      <point x="500.91037735849056" y="593.8679245283018"/>
      <point x="513.1556603773585" y="593.8679245283018" type="curve"/>
      <point x="515.7169811320755" y="605.2358490566038"/>
      <point x="518.4009433962264" y="624.1462264150944"/>
      <point x="518.4009433962264" y="639.7594339622641" type="curve" smooth="yes"/>
      <point x="518.4009433962264" y="677.2122641509434"/>
      <point x="501.7358490566038" y="700.0"/>
      <point x="453.0377358490566" y="700.0" type="curve"/>
      <point x="406.9716981132076" y="700.0"/>
      <point x="115.52830188679246" y="700.0"/>
    </contour>
    <contour>
      <point x="159.14150943396226" y="634.5849056603773" type="line"/>
      <point x="137.94811320754715" y="562.877358490566"/>
      <point x="121.56132075471697" y="488.78301886792457"/>
      <point x="94.38679245283018" y="324.38679245283015" type="curve" smooth="yes"/>
      <point x="90.8254716981132" y="302.8962264150943"/>
      <point x="106.43867924528303" y="293.16037735849056"/>
      <point x="154.2075471698113" y="293.16037735849056" type="curve" smooth="yes"/>
      <point x="196.46698113207546" y="293.16037735849056" type="line"/>
      <point x="218.58962264150944" y="293.16037735849056"/>
      <point x="240.60849056603774" y="293.16037735849056"/>
      <point x="271.433962264151" y="293.16037735849056" type="curve" smooth="yes"/>
      <point x="372.7547169811321" y="292.72169811320754"/>
      <point x="435.5471698113207" y="261.9481132075472"/>
      <point x="458.10849056603774" y="203.52358490566039" type="curve" smooth="yes"/>
      <point x="458.10849056603774" y="198.08490566037736" type="line" smooth="yes"/>
      <point x="458.10849056603774" y="134.7311320754717"/>
      <point x="396.16037735849056" y="86.1320754716981"/>
      <point x="288.2122641509434" y="86.1320754716981" type="curve" smooth="yes"/>
      <point x="193.07075471698113" y="86.1320754716981"/>
      <point x="128.8254716981132" y="113.83490566037736"/>
      <point x="72.40566037735849" y="168.1179245283019" type="curve"/>
      <point x="66.40566037735849" y="168.1179245283019" type="line"/>
      <point x="63.40566037735849" y="157.55660377358492"/>
      <point x="61.84433962264151" y="142.9433962264151"/>
      <point x="61.84433962264151" y="126.2075471698113" type="curve" smooth="yes"/>
      <point x="61.84433962264151" y="91.54245283018868"/>
      <point x="70.2122641509434" y="62.43867924528302"/>
      <point x="94.89622641509433" y="37.75471698113208" type="curve" smooth="yes"/>
      <point x="122.94811320754717" y="9.702830188679243"/>
      <point x="190.6320754716981" y="-20.0"/>
      <point x="300.0" y="-20.0" type="curve" smooth="yes"/>
      <point x="455.08490566037733" y="-20.0"/>
      <point x="538.5943396226415" y="60.54245283018868"/>
      <point x="538.5943396226415" y="180.29716981132074" type="curve" smooth="yes"/>
      <point x="538.5943396226415" y="191.3490566037736" type="line" smooth="yes"/>
      <point x="538.5943396226415" y="309.15566037735846"/>
      <point x="444.627358490566" y="378.20754716981133"/>
      <point x="315.9575471698113" y="378.20754716981133" type="curve" smooth="yes"/>
      <point x="267.9056603773585" y="378.20754716981133"/>
      <point x="230.9056603773585" y="371.83962264150944"/>
      <point x="179.39622641509433" y="350.5424528301887" type="curve"/>
      <point x="235.13207547169813" y="361.5943396226415" type="line"/>
      <point x="173.83490566037736" y="361.5943396226415" type="line"/>
      <point x="196.76415094339623" y="335.4009433962264" type="line"/>
      <point x="206.27358490566039" y="387.683962264151"/>
      <point x="218.7311320754717" y="461.4622641509434"/>
      <point x="230.99528301886792" y="524.7122641509434" type="curve" smooth="yes"/>
      <point x="235.5566037735849" y="551.2028301886792"/>
      <point x="233.87264150943398" y="570.2547169811321"/>
      <point x="221.25943396226415" y="588.4292452830189" type="curve"/>
      <point x="225.75" y="634.5849056603773" type="line"/>
    </contour>
  </outline>
</glyph>
<glyph name="G" format="2">
  <advance width="600.0"/>
  <unicode hex="0047"/>
  <anchor x="314.19339622641513" y="711.0" name="top"/>
  <anchor x="314.19339622641513" y="-1.0" name="bottom"/>
  <outline>
    <contour>
      <point x="304.4009433962264" y="330.872641509434" type="line"/>
      <point x="302.4009433962264" y="326.188679245283"/>
      <point x="301.4009433962264" y="316.8207547169811"/>
      <point x="301.4009433962264" y="309.1367924528302" type="curve" smooth="yes"/>
      <point x="301.4009433962264" y="261.0107816711778"/>
      <point x="328.24056603773585" y="236.52830188679243"/>
      <point x="399.933962264151" y="236.52830188679243" type="curve"/>
      <point x="567.9292452830189" y="236.52830188679243" type="line"/>
      <point x="567.9292452830189" y="245.9669811320755" type="line" smooth="yes"/>
      <point x="567.9292452830189" y="308.8915094339623"/>
      <point x="555.438679245283" y="330.872641509434"/>
      <point x="519.6698113207547" y="330.872641509434" type="curve" smooth="yes"/>
    </contour>
    <contour>
      <point x="357.52830188679246" y="720.0" type="curve"/>
      <point x="181.0188679245283" y="720.0"/>
      <point x="59.89622641509433" y="543.4386792452831"/>
      <point x="59.89622641509433" y="288.29716981132077" type="curve"/>
      <point x="59.89622641509433" y="266.2452830188679" type="line"/>
      <point x="59.89622641509433" y="93.49056603773585"/>
      <point x="160.05188679245282" y="-20.0"/>
      <point x="320.5943396226415" y="-20.0" type="curve" smooth="yes"/>
      <point x="395.45283018867923" y="-20.0"/>
      <point x="450.7688679245283" y="3.1226415094339632"/>
      <point x="486.4009433962264" y="38.75471698113207" type="curve" smooth="yes"/>
      <point x="515.5424528301887" y="67.89622641509435"/>
      <point x="537.6650943396226" y="111.59905660377358"/>
      <point x="537.6650943396226" y="163.74056603773585" type="curve" smooth="yes"/>
      <point x="537.6650943396226" y="196.16037735849056"/>
      <point x="528.6132075471697" y="216.28301886792454"/>
      <point x="511.31603773584897" y="231.40566037735852" type="curve"/>
      <point x="518.7735849056603" y="259.9150943396226" type="line"/>
      <point x="450.5990566037736" y="259.9150943396226" type="line"/>
      <point x="454.9150943396226" y="244.2122641509434"/>
      <point x="456.79245283018867" y="227.31603773584908"/>
      <point x="456.79245283018867" y="205.54245283018867" type="curve" smooth="yes"/>
      <point x="456.7924528301887" y="134.4858490566038"/>
      <point x="400.2641509433962" y="86.13207547169813"/>
      <point x="327.89150943396226" y="86.13207547169813" type="curve" smooth="yes"/>
      <point x="255.09905660377356" y="86.13207547169813"/>
      <point x="204.9575471698113" y="117.43396226415095"/>
      <point x="172.7830188679245" y="168.05188679245285" type="curve" smooth="yes"/>
      <point x="167.34433962264148" y="207.07075471698113"/>
      <point x="165.7830188679245" y="236.87735849056602"/>
      <point x="165.7830188679245" y="272.1745283018868" type="curve"/>
      <point x="165.7830188679245" y="288.4198113207547" type="line"/>
      <point x="165.7830188679245" y="477.44339622641513"/>
      <point x="249.82075471698113" y="621.7264150943397"/>
      <point x="364.26415094339626" y="621.7264150943397" type="curve"/>
      <point x="386.0377358490566" y="621.7264150943397"/>
      <point x="407.00471698113205" y="617.5330188679245"/>
      <point x="427.65566037735846" y="600.882075471698" type="curve"/>
      <point x="408.72169811320754" y="639.2688679245283" type="line"/>
      <point x="415.72641509433964" y="596.7783018867925"/>
      <point x="411.16509433962267" y="570.7783018867925"/>
      <point x="411.16509433962267" y="510.73584905660374" type="curve"/>
      <point x="411.16509433962267" y="474.33490566037733"/>
      <point x="433.51415094339626" y="461.2830188679245"/>
      <point x="476.3537735849057" y="461.2830188679245" type="curve"/>
      <point x="493.14150943396226" y="461.2830188679245"/>
      <point x="508.24528301886795" y="463.96698113207543"/>
      <point x="518.4198113207547" y="467.77358490566036" type="curve"/>
      <point x="518.4198113207547" y="496.35377358490564"/>
      <point x="518.4198113207547" y="526.6179245283018"/>
      <point x="518.4198113207547" y="556.8820754716982" type="curve"/>
      <point x="518.4198113207547" y="610.2311320754717"/>
      <point x="506.4198113207547" y="640.9150943396227"/>
      <point x="474.877358490566" y="672.4575471698113" type="curve" smooth="yes"/>
      <point x="443.9481132075472" y="703.3867924528302"/>
      <point x="410.14150943396226" y="720.0"/>
    </contour>
  </outline>
</glyph>
<glyph name="S" format="2">
  <advance width="600.0"/>
  <unicode hex="0053"/>
  <anchor x="330.35377358490564" y="711.0" name="top"/>
  <anchor x="302.80660377358487" y="-1.0" name="bottom"/>
  <anchor x="386.8207547169811" y="710.561320754717" name="dot"/>
  <outline>
    <contour>
      <point x="372.3867924528302" y="720.0" type="curve" smooth="yes"/>
      <point x="224.0896226415094" y="720.0"/>
      <point x="81.58018867924528" y="573.1037735849056"/>
      <point x="81.58018867924528" y="443.0518867924528" type="curve" smooth="yes"/>
      <point x="81.58018867924528" y="431.3679245283019" type="line" smooth="yes"/>
      <point x="81.58018867924528" y="368.9811320754717"/>
      <point x="117.91509433962264" y="321.8066037735849"/>
      <point x="263.14150943396226" y="267.87735849056605" type="curve" smooth="yes"/>
      <point x="352.50943396226415" y="234.75471698113205" type="line" smooth="yes"/>
      <point x="411.3018867924528" y="213.05188679245282"/>
      <point x="442.37264150943395" y="185.29716981132077"/>
      <point x="446.3207547169811" y="148.7877358490566" type="curve" smooth="yes"/>
      <point x="446.3207547169811" y="144.66509433962264" type="line" smooth="yes"/>
      <point x="422.5849056603774" y="109.04716981132076"/>
      <point x="371.933962264151" y="89.64150943396227"/>
      <point x="302.8066037735849" y="89.64150943396227" type="curve" smooth="yes"/>
      <point x="199.12264150943395" y="89.64150943396227"/>
      <point x="128.50943396226415" y="120.64150943396227"/>
      <point x="77.2122641509434" y="179.39622641509436" type="curve"/>
      <point x="71.2122641509434" y="179.39622641509436" type="line"/>
      <point x="67.2122641509434" y="166.15094339622644"/>
      <point x="64.65094339622641" y="149.53773584905662"/>
      <point x="64.65094339622641" y="128.3632075471698" type="curve" smooth="yes"/>
      <point x="64.65094339622641" y="89.34905660377359"/>
      <point x="75.38679245283019" y="60.948113207547166"/>
      <point x="92.87735849056604" y="43.45754716981132" type="curve"/>
      <point x="128.8254716981132" y="7.509433962264151"/>
      <point x="209.12264150943398" y="-16.49056603773585"/>
      <point x="302.80660377358487" y="-16.49056603773585" type="curve" smooth="yes"/>
      <point x="458.25943396226415" y="-16.49056603773585"/>
      <point x="541.4009433962264" y="49.24528301886792"/>
      <point x="541.4009433962264" y="151.91037735849056" type="curve" smooth="yes"/>
      <point x="541.4009433962264" y="163.08490566037736" type="line" smooth="yes"/>
      <point x="541.4009433962264" y="217.3490566037736"/>
      <point x="503.9952830188679" y="273.6981132075471"/>
      <point x="384.83962264150944" y="316.75" type="curve" smooth="yes"/>
      <point x="294.7877358490566" y="349.4339622641509" type="line" smooth="yes"/>
      <point x="207.39622641509433" y="380.9622641509434"/>
      <point x="188.83490566037736" y="403.4198113207547"/>
      <point x="187.7122641509434" y="436.1745283018868" type="curve" smooth="yes"/>
      <point x="187.7122641509434" y="441.49056603773585" type="line" smooth="yes"/>
      <point x="187.7122641509434" y="521.3537735849056"/>
      <point x="292.6981132075472" y="613.8679245283018"/>
      <point x="376.3160377358491" y="613.8679245283018" type="curve" smooth="yes"/>
      <point x="397.9481132075472" y="613.8679245283018"/>
      <point x="416.72169811320754" y="610.8679245283018"/>
      <point x="434.5990566037736" y="596.9198113207548" type="curve"/>
      <point x="412.72169811320754" y="638.3915094339623" type="line"/>
      <point x="416.63679245283015" y="593.1650943396227"/>
      <point x="410.7075471698113" y="572.816037735849"/>
      <point x="410.7075471698113" y="497.9292452830189" type="curve" smooth="yes"/>
      <point x="410.7075471698113" y="455.3349056603774"/>
      <point x="435.61792452830184" y="438.2122641509434"/>
      <point x="480.38679245283015" y="438.2122641509434" type="curve" smooth="yes"/>
      <point x="495.36792452830184" y="438.2122641509434"/>
      <point x="507.7877358490566" y="441.45754716981133"/>
      <point x="516.8396226415094" y="445.14150943396226" type="curve"/>
      <point x="516.8396226415094" y="483.5990566037736"/>
      <point x="516.8396226415094" y="524.4245283018868"/>
      <point x="516.8396226415094" y="565.127358490566" type="curve"/>
      <point x="516.8396226415094" y="606.6698113207548"/>
      <point x="510.27830188679246" y="645.4764150943397"/>
      <point x="480.66509433962267" y="675.0896226415094" type="curve" smooth="yes"/>
      <point x="453.2452830188679" y="702.5094339622641"/>
      <point x="421.63207547169816" y="720.0"/>
    </contour>
  </outline>
</glyph>
<glyph name="V" format="2">
  <advance width="600.0"/>
  <unicode hex="0056"/>
  <outline>
    <contour>
      <point x="95.9811320754717" y="708.877358490566" type="curve"/>
      <point x="82.36792452830188" y="708.877358490566"/>
      <point x="68.63207547169812" y="706.7547169811321"/>
      <point x="55.141509433962256" y="703.0707547169811" type="curve"/>
      <point x="57.58018867924528" y="648.7547169811321"/>
      <point x="60.45754716981132" y="597.438679245283"/>
      <point x="64.45754716981132" y="549.5613207547169" type="curve" smooth="yes"/>
      <point x="85.20857515824058" y="295.2944048687792"/>
      <point x="130.65094339622644" y="119.89622641509433"/>
      <point x="223.0566037735849" y="25.54245283018868" type="curve" smooth="yes"/>
      <point x="251.96698113207546" y="-3.6839622641509426"/>
      <point x="279.561320754717" y="-10.0"/>
      <point x="303.73584905660374" y="-10.0" type="curve" smooth="yes"/>
      <point x="319.9457547169812" y="-10.0"/>
      <point x="339.2075471698113" y="-7.999999999999998"/>
      <point x="353.3820754716981" y="-3.316037735849057" type="curve"/>
      <point x="481.61320754716985" y="107.42452830188678"/>
      <point x="524.1046901967754" y="325.8960432710193"/>
      <point x="540.6132075471698" y="631.6745283018868" type="curve"/>
      <point x="543.8584905660377" y="686.8962264150944"/>
      <point x="519.7735849056604" y="708.877358490566"/>
      <point x="474.0754716981133" y="708.877358490566" type="curve"/>
      <point x="460.4622641509434" y="708.877358490566"/>
      <point x="446.7264150943396" y="706.7547169811321"/>
      <point x="431.5518867924528" y="703.0707547169811" type="curve"/>
      <point x="421.02358490566036" y="378.9575471698113"/>
      <point x="403.1981132075472" y="214.20283018867926"/>
      <point x="300.122641509434" y="69.2924528301887" type="curve"/>
      <point x="337.61320754716985" y="76.09905660377359" type="line"/>
      <point x="261.38679245283015" y="76.09905660377359" type="line"/>
      <point x="300.683962264151" y="69.2924528301887" type="line"/>
      <point x="209.48584905660377" y="203.1509433962264"/>
      <point x="185.20283018867926" y="354.83962264150944"/>
      <point x="171.69339622641508" y="633.9905660377359" type="curve"/>
      <point x="168.44811320754715" y="695.0188679245283"/>
      <point x="139.04716981132074" y="708.877358490566"/>
    </contour>
  </outline>
</glyph>
<glyph name="X" format="2">
  <advance width="600.0"/>
  <unicode hex="0058"/>
  <outline>
    <contour>
      <point x="523.7735849056604" y="-11.122641509433961" type="curve" smooth="yes"/>
      <point x="544.2641509433962" y="-11.122641509433961"/>
      <point x="562.9292452830189" y="-7.561320754716981"/>
      <point x="576.5424528301886" y="0.0" type="curve"/>
      <point x="499.0617600274458" y="77.96743099031416"/>
      <point x="416.15204780480707" y="196.41439720233396"/>
      <point x="342.8537735849057" y="320.0518867924528" type="curve"/>
      <point x="313.94339622641513" y="372.8018867924529" type="line"/>
      <point x="251.01755396107123" y="481.8189716648603"/>
      <point x="208.97169811320757" y="570.4433962264151"/>
      <point x="177.2169811320755" y="654.4433962264151" type="curve" smooth="yes"/>
      <point x="162.79716981132077" y="695.2641509433962"/>
      <point x="133.7122641509434" y="707.122641509434"/>
      <point x="82.22641509433963" y="707.122641509434" type="curve" smooth="yes"/>
      <point x="62.49056603773585" y="707.1226415094341"/>
      <point x="44.31603773584906" y="705.122641509434"/>
      <point x="24.89622641509434" y="700.0" type="curve"/>
      <point x="72.77358490566037" y="583.2452830188679"/>
      <point x="148.1428792496972" y="433.79623505253915"/>
      <point x="230.1603773584906" y="297.2641509433962" type="curve"/>
      <point x="257.75471698113205" y="250.19811320754715" type="line"/>
      <point x="314.6671651376571" y="160.93373802572833"/>
      <point x="372.1650943396226" y="79.9622641509434"/>
      <point x="421.1320754716981" y="26.962264150943398" type="curve" smooth="yes"/>
      <point x="443.1132075471698" y="-0.3160377358490569"/>
      <point x="469.7783018867924" y="-11.122641509433961"/>
    </contour>
    <contour>
      <point x="490.75943396226415" y="706.683962264151" type="curve"/>
      <point x="473.9009433962264" y="706.683962264151"/>
      <point x="461.97169811320754" y="705.122641509434"/>
      <point x="448.3584905660378" y="700.877358490566" type="curve"/>
      <point x="412.4433962264151" y="571.7358490566038"/>
      <point x="374.52830188679246" y="479.91037735849056"/>
      <point x="313.0141509433962" y="387.34433962264154" type="curve"/>
      <point x="274.9292452830189" y="387.34433962264154" type="line"/>
      <point x="337.11792452830184" y="289.7735849056604" type="line"/>
      <point x="444.94339622641513" y="406.54716981132077"/>
      <point x="506.4528301886793" y="509.59905660377353"/>
      <point x="550.367924528302" y="630.0943396226415" type="curve"/>
      <point x="569.1556603773585" y="690.7547169811322"/>
      <point x="536.0896226415094" y="706.683962264151"/>
    </contour>
    <contour>
      <point x="101.66037735849056" y="-8.877358490566039" type="curve" smooth="yes"/>
      <point x="118.83490566037736" y="-8.877358490566039"/>
      <point x="137.93867924528303" y="-5.877358490566038"/>
      <point x="150.2358490566038" y="-1.3160377358490565" type="curve"/>
      <point x="174.83490566037733" y="84.65094339622641"/>
      <point x="214.01415094339623" y="168.37264150943398"/>
      <point x="260.12264150943395" y="237.02358490566036" type="curve"/>
      <point x="289.7169811320755" y="237.02358490566036" type="line"/>
      <point x="237.6509433962264" y="333.85849056603774" type="line"/>
      <point x="142.2830188679245" y="236.49056603773585"/>
      <point x="78.70283018867924" y="146.52358490566039"/>
      <point x="40.929245283018865" y="62.85377358490566" type="curve"/>
      <point x="19.299528301886788" y="13.665094339622645"/>
      <point x="53.74811320754718" y="-8.877358490566039"/>
    </contour>
  </outline>
</glyph>
<glyph name="backslash" format="2">
  <advance width="600.0"/>
  <unicode hex="005C"/>
  <outline>
    <contour>
      <point x="63.44339622641509" y="750.561320754717" type="curve"/>
      <point x="136.58490566037736" y="436.91037735849056"/>
      <point x="244.72641509433961" y="160.13679245283018"/>
      <point x="387.99056603773585" y="-80.32075471698113" type="curve" smooth="yes"/>
      <point x="411.77830188679246" y="-119.96698113207547"/>
      <point x="440.811320754717" y="-136.75471698113208"/>
      <point x="479.77358490566036" y="-136.75471698113208" type="curve" smooth="yes"/>
      <point x="503.561320754717" y="-136.75471698113208"/>
      <point x="520.9811320754717" y="-132.50943396226415"/>
      <point x="540.6462264150944" y="-121.77358490566037" type="curve"/>
      <point x="519.9622641509434" y="-100.08962264150944"/>
      <point x="504.1556603773585" y="-76.72169811320754"/>
      <point x="485.59433962264154" y="-43.47641509433962" type="curve"/>
      <point x="354.20754716981133" y="188.10377358490567"/>
      <point x="255.82075471698113" y="442.75471698113205"/>
      <point x="189.67924528301887" y="718.2830188679245" type="curve"/>
      <point x="182.43396226415095" y="749.0707547169811"/>
      <point x="153.64622641509433" y="762.7358490566038"/>
      <point x="113.70283018867924" y="762.7358490566038" type="curve" smooth="yes"/>
      <point x="94.8443396226415" y="762.7358490566038"/>
      <point x="81.10849056603773" y="759.0518867924528"/>
    </contour>
  </outline>
</glyph>
<glyph name="grave" format="2">
  <advance width="600.0"/>
  <unicode hex="0060"/>
  <outline>
    <contour>
      <point x="308.75" y="749.4009433962265" type="curve"/>
      <point x="277.4198113207547" y="752.5943396226415"/>
      <point x="251.70283018867923" y="751.7877358490566"/>
      <point x="231.08962264150944" y="748.9811320754717" type="curve" smooth="yes"/>
      <point x="204.47641509433961" y="745.6132075471698"/>
      <point x="186.08962264150944" y="733.683962264151"/>
      <point x="186.08962264150944" y="705.0" type="curve" smooth="yes"/>
      <point x="186.08962264150944" y="636.0518867924528"/>
      <point x="254.91509433962264" y="509.1556603773585"/>
      <point x="306.5990566037736" y="461.83962264150944" type="curve" smooth="yes"/>
      <point x="325.50943396226415" y="445.1745283018868"/>
      <point x="336.683962264151" y="440.3679245283019"/>
      <point x="362.83962264150944" y="440.3679245283019" type="curve" smooth="yes"/>
      <point x="385.01415094339626" y="440.3679245283019"/>
      <point x="404.9952830188679" y="446.7358490566038"/>
      <point x="419.6792452830189" y="459.22641509433964" type="curve"/>
      <point x="363.60849056603774" y="548.4905660377358"/>
      <point x="326.94339622641513" y="630.0141509433962"/>
    </contour>
  </outline>
</glyph>
<glyph name="a" format="2">
  <advance width="600.0"/>
  <unicode hex="0061"/>
  <anchor x="287.3679245283019" y="540.0330188679245" name="top"/>
  <anchor x="302.316037735849" y="-1.0" name="bottom"/>
  <anchor x="517.7735849056604" y="-0.4386792452830188" name="ogonek"/>
  <anchor x="294.4198113207547" y="584.0" name="hook"/>
  <outline>
    <contour>
      <point x="499.20754716981133" y="353.12264150943395" type="curve" smooth="yes"/>
      <point x="499.20754716981133" y="452.84433962264154"/>
      <point x="424.4716981132076" y="543.8584905660377"/>
      <point x="291.2971698113207" y="543.8584905660377" type="curve" smooth="yes"/>
      <point x="203.66981132075472" y="543.8584905660377"/>
      <point x="147.87735849056605" y="533.4198113207548"/>
      <point x="126.50943396226415" y="512.0518867924528" type="curve" smooth="yes"/>
      <point x="112.33490566037736" y="497.877358490566"/>
      <point x="105.96698113207547" y="476.52830188679246"/>
      <point x="105.96698113207547" y="452.54716981132077" type="curve" smooth="yes"/>
      <point x="105.96698113207547" y="440.37264150943395"/>
      <point x="107.52830188679245" y="427.51415094339626"/>
      <point x="110.08962264150944" y="418.0235849056604" type="curve"/>
      <point x="116.08962264150942" y="418.0235849056604" type="line"/>
      <point x="161.31603773584908" y="434.0235849056604"/>
      <point x="208.77358490566039" y="441.65566037735846"/>
      <point x="267.5801886792453" y="441.65566037735846" type="curve" smooth="yes"/>
      <point x="324.10849056603774" y="441.65566037735846"/>
      <point x="361.933962264151" y="433.70754716981133"/>
      <point x="395.6698113207547" y="412.12735849056605" type="curve" smooth="yes"/>
      <point x="391.9528301886793" y="354.2877358490566"/>
      <point x="387.46226415094344" y="307.79716981132077"/>
      <point x="387.46226415094344" y="239.6509433962264" type="curve" smooth="yes"/>
      <point x="387.46226415094344" y="208.8254716981132"/>
      <point x="387.46226415094344" y="166.71698113207546"/>
      <point x="387.46226415094344" y="129.75" type="curve" smooth="yes"/>
      <point x="387.46226415094344" y="60.363207547169814"/>
      <point x="429.1792452830189" y="-7.754716981132075"/>
      <point x="495.16037735849056" y="-7.754716981132075" type="curve" smooth="yes"/>
      <point x="513.4056603773586" y="-7.754716981132075"/>
      <point x="530.1415094339623" y="-1.0707547169811318"/>
      <point x="546.5613207547169" y="15.349056603773587" type="curve" smooth="yes"/>
      <point x="562.4198113207547" y="31.20754716981132"/>
      <point x="573.5943396226414" y="62.7311320754717"/>
      <point x="573.5943396226414" y="93.51886792452831" type="curve" smooth="yes"/>
      <point x="573.5943396226414" y="100.57075471698114"/>
      <point x="573.0330188679245" y="104.69339622641509"/>
      <point x="571.9103773584906" y="110.62264150943396" type="curve"/>
      <point x="565.9103773584906" y="110.62264150943396" type="line"/>
      <point x="553.7877358490566" y="101.25471698113208"/>
      <point x="538.2264150943396" y="97.25471698113208"/>
      <point x="523.4716981132076" y="97.25471698113208" type="curve"/>
      <point x="516.1556603773586" y="97.25471698113208"/>
      <point x="507.15566037735846" y="99.25471698113208"/>
      <point x="501.4009433962264" y="102.6933962264151" type="curve" smooth="yes"/>
      <point x="499.64622641509436" y="119.00943396226417"/>
      <point x="499.20754716981133" y="134.00943396226415"/>
      <point x="499.20754716981133" y="152.20283018867926" type="curve" smooth="yes"/>
      <point x="499.20754716981133" y="218.80188679245285"/>
      <point x="499.20754716981133" y="285.9622641509434"/>
    </contour>
    <contour>
      <point x="175.80188679245282" y="146.27830188679246" type="curve" smooth="yes"/>
      <point x="175.80188679245282" y="148.71698113207546" type="line" smooth="yes"/>
      <point x="175.80188679245282" y="173.73584905660377"/>
      <point x="179.99528301886792" y="193.80660377358492"/>
      <point x="186.62735849056602" y="213.3679245283019" type="curve" smooth="yes"/>
      <point x="207.5754716981132" y="225.50943396226415"/>
      <point x="235.78773584905662" y="232.45754716981133"/>
      <point x="274.33490566037733" y="232.45754716981133" type="curve" smooth="yes"/>
      <point x="325.0377358490566" y="232.45754716981133"/>
      <point x="383.9669811320755" y="227.2122641509434"/>
      <point x="438.84433962264154" y="214.2122641509434" type="curve"/>
      <point x="439.28301886792457" y="245.31603773584905"/>
      <point x="432.9858490566038" y="263.3679245283019"/>
      <point x="421.42452830188677" y="273.17452830188677" type="curve" smooth="yes"/>
      <point x="400.9339622641509" y="291.0330188679245"/>
      <point x="327.9339622641509" y="306.0330188679245"/>
      <point x="246.63679245283018" y="306.0330188679245" type="curve" smooth="yes"/>
      <point x="143.47641509433961" y="306.0330188679245"/>
      <point x="64.05660377358491" y="228.31603773584905"/>
      <point x="64.05660377358491" y="147.47169811320754" type="curve" smooth="yes"/>
      <point x="64.05660377358491" y="140.78773584905662" type="line" smooth="yes"/>
      <point x="64.05660377358491" y="41.56132075471698"/>
      <point x="119.61792452830188" y="-10.0"/>
      <point x="215.98584905660377" y="-10.0" type="curve" smooth="yes"/>
      <point x="295.25" y="-10.0"/>
      <point x="359.81132075471703" y="42.24528301886792"/>
      <point x="387.75943396226415" y="95.56132075471697" type="curve"/>
      <point x="407.58490566037733" y="95.56132075471697" type="line"/>
      <point x="402.5330188679245" y="175.3679245283019" type="line"/>
      <point x="353.1792452830189" y="110.11792452830188"/>
      <point x="295.8962264150943" y="84.78301886792453"/>
      <point x="246.6132075471698" y="84.78301886792453" type="curve" smooth="yes"/>
      <point x="195.64622641509433" y="84.78301886792453"/>
      <point x="175.80188679245282" y="101.99528301886792"/>
    </contour>
  </outline>
</glyph>
<glyph name="g" format="2">
  <advance width="600.0"/>
  <unicode hex="0067"/>
  <outline>
    <contour>
      <point x="404.3867924528302" y="488.24528301886795" type="line"/>
      <point x="466.78773584905656" y="474.3679245283019" type="line"/>
      <point x="466.78773584905656" y="498.29716981132077" type="line"/>
      <point x="496.85849056603774" y="519.316037735849" type="line" smooth="yes"/>
      <point x="547.1037735849056" y="553.3349056603773"/>
      <point x="557.9103773584906" y="576.5801886792453"/>
      <point x="557.9103773584906" y="603.5094339622641" type="curve"/>
      <point x="557.9103773584906" y="607.1933962264151" type="line" smooth="yes"/>
      <point x="557.9103773584906" y="648.0330188679245"/>
      <point x="524.0" y="660.0849056603773"/>
      <point x="477.8632075471698" y="660.0849056603773" type="curve"/>
      <point x="467.4952830188679" y="660.0849056603773"/>
      <point x="458.0047169811321" y="659.0849056603773"/>
      <point x="448.9528301886793" y="657.0849056603773" type="curve"/>
      <point x="452.07547169811323" y="646.7169811320755"/>
      <point x="453.07547169811323" y="637.6650943396226"/>
      <point x="453.07547169811323" y="625.7358490566038" type="curve" smooth="yes"/>
      <point x="453.07547169811323" y="607.8066037735849"/>
      <point x="449.88207547169816" y="594.4905660377359"/>
      <point x="437.9858490566038" y="570.9103773584906" type="curve" smooth="yes"/>
    </contour>
    <contour>
      <point x="299.8066037735849" y="544.9811320754717" type="curve" smooth="yes"/>
      <point x="171.26415094339623" y="544.9811320754717"/>
      <point x="71.52830188679245" y="470.2971698113207"/>
      <point x="71.52830188679245" y="353.12264150943395" type="curve" smooth="yes"/>
      <point x="71.52830188679245" y="345.7547169811321" type="line" smooth="yes"/>
      <point x="71.52830188679245" y="233.561320754717"/>
      <point x="166.94811320754718" y="158.43867924528303"/>
      <point x="299.24528301886795" y="160.43867924528303" type="curve" smooth="yes"/>
      <point x="428.2264150943396" y="160.43867924528303"/>
      <point x="527.5235849056604" y="233.31603773584908"/>
      <point x="527.5235849056604" y="348.0" type="curve" smooth="yes"/>
      <point x="527.5235849056604" y="355.3679245283019" type="line" smooth="yes"/>
      <point x="527.5235849056604" y="471.80660377358487"/>
      <point x="433.4198113207547" y="546.9811320754717"/>
    </contour>
    <contour>
      <point x="306.29716981132077" y="450.5141509433962" type="curve" smooth="yes"/>
      <point x="346.8066037735849" y="450.5141509433962"/>
      <point x="378.0" y="445.0754716981132"/>
      <point x="407.0707547169811" y="434.3207547169811" type="curve" smooth="yes"/>
      <point x="425.2311320754717" y="416.05660377358487"/>
      <point x="434.811320754717" y="390.9669811320755"/>
      <point x="434.811320754717" y="360.9292452830189" type="curve" smooth="yes"/>
      <point x="434.811320754717" y="354.683962264151" type="line" smooth="yes"/>
      <point x="434.811320754717" y="277.6981132075472"/>
      <point x="385.08962264150944" y="241.04716981132074"/>
      <point x="300.56132075471703" y="241.04716981132074" type="curve" smooth="yes"/>
      <point x="258.29716981132077" y="241.04716981132074"/>
      <point x="226.66509433962264" y="248.80188679245282"/>
      <point x="194.08490566037736" y="263.75" type="curve" smooth="yes"/>
      <point x="179.43396226415095" y="281.5754716981132"/>
      <point x="172.04716981132077" y="303.7877358490566"/>
      <point x="172.04716981132077" y="331.9481132075472" type="curve" smooth="yes"/>
      <point x="172.04716981132077" y="338.1933962264151" type="line" smooth="yes"/>
      <point x="172.04716981132077" y="414.3018867924529"/>
      <point x="221.7688679245283" y="450.5141509433962"/>
    </contour>
    <contour>
      <point x="222.84433962264148" y="187.91037735849056" type="line"/>
      <point x="222.84433962264148" y="162.24528301886792" type="line"/>
      <point x="186.00471698113208" y="143.8066037735849"/>
      <point x="165.51415094339623" y="108.0"/>
      <point x="165.51415094339623" y="70.0188679245283" type="curve" smooth="yes"/>
      <point x="165.51415094339623" y="17.301886792452827"/>
      <point x="210.35377358490567" y="-29.820754716981135"/>
      <point x="288.26415094339626" y="-35.06603773584906" type="curve" smooth="yes"/>
      <point x="397.3679245283019" y="-42.31132075471698" type="line" smooth="yes"/>
      <point x="435.8632075471698" y="-44.18867924528302"/>
      <point x="454.6367924528302" y="-69.10377358490565"/>
      <point x="454.6367924528302" y="-98.8254716981132" type="curve" smooth="yes"/>
      <point x="454.6367924528302" y="-103.63207547169812" type="line" smooth="yes"/>
      <point x="454.6367924528302" y="-121.14150943396226"/>
      <point x="451.3207547169811" y="-138.72169811320757"/>
      <point x="442.8820754716981" y="-152.16037735849056" type="curve" smooth="yes"/>
      <point x="397.74056603773585" y="-168.05660377358492"/>
      <point x="353.37264150943395" y="-173.25"/>
      <point x="288.72169811320754" y="-173.25" type="curve"/>
      <point x="259.9292452830188" y="-173.25" type="line" smooth="yes"/>
      <point x="186.5754716981132" y="-173.25"/>
      <point x="149.2924528301887" y="-149.4056603773585"/>
      <point x="149.2924528301887" y="-105.45754716981132" type="curve" smooth="yes"/>
      <point x="149.2924528301887" y="-99.89622641509433" type="line" smooth="yes"/>
      <point x="149.2924528301887" y="-52.929245283018865"/>
      <point x="178.4009433962264" y="-23.523584905660382"/>
      <point x="236.96698113207546" y="-5.349056603773586" type="curve"/>
      <point x="179.44339622641508" y="43.10849056603773" type="line"/>
      <point x="179.44339622641508" y="14.915094339622641" type="line"/>
      <point x="98.49528301886792" y="9.476415094339622"/>
      <point x="43.16037735849057" y="-43.174528301886795"/>
      <point x="43.16037735849057" y="-109.50943396226414" type="curve" smooth="yes"/>
      <point x="43.16037735849057" y="-115.75471698113208" type="line" smooth="yes"/>
      <point x="43.16037735849057" y="-190.29716981132077"/>
      <point x="112.33490566037736" y="-250.0"/>
      <point x="244.12264150943395" y="-250.0" type="curve" smooth="yes"/>
      <point x="269.79245283018867" y="-250.0" type="line" smooth="yes"/>
      <point x="478.05660377358487" y="-250.0"/>
      <point x="559.6462264150944" y="-174.66509433962264"/>
      <point x="559.6462264150944" y="-77.52830188679245" type="curve" smooth="yes"/>
      <point x="559.6462264150944" y="-69.47641509433963" type="line" smooth="yes"/>
      <point x="559.6462264150944" y="0.38207547169811606"/>
      <point x="508.91037735849056" y="49.40094339622641"/>
      <point x="427.6981132075471" y="54.839622641509436" type="curve" smooth="yes"/>
      <point x="305.9292452830189" y="63.52358490566037" type="line" smooth="yes"/>
      <point x="277.47169811320754" y="65.9622641509434"/>
      <point x="264.91037735849056" y="78.64622641509435"/>
      <point x="264.91037735849056" y="99.40094339622642" type="curve" smooth="yes"/>
      <point x="264.91037735849056" y="126.03301886792453"/>
      <point x="273.17452830188677" y="152.56132075471697"/>
      <point x="293.14150943396226" y="173.31603773584908" type="curve"/>
    </contour>
  </outline>
</glyph>
<glyph name="l" format="2">
  <advance width="600.0"/>
  <unicode hex="006C"/>
  <outline>
    <contour>
      <point x="65.8066037735849" y="106.1320754716981" type="line"/>
      <point x="63.245283018867916" y="95.64150943396226"/>
      <point x="62.24528301886792" y="86.27358490566037"/>
      <point x="62.24528301886792" y="73.22169811320754" type="curve" smooth="yes"/>
      <point x="62.24528301886792" y="20.297169811320757"/>
      <point x="75.66509433962264" y="0.0"/>
      <point x="135.58962264150944" y="0.0" type="curve" smooth="yes"/>
      <point x="559.122641509434" y="0.0" type="line"/>
      <point x="562.367924528302" y="8.735849056603776"/>
      <point x="563.9292452830189" y="17.349056603773583"/>
      <point x="563.9292452830189" y="27.64622641509434" type="curve" smooth="yes"/>
      <point x="563.9292452830189" y="73.09905660377359"/>
      <point x="493.8018867924529" y="106.1320754716981"/>
      <point x="356.8396226415095" y="106.1320754716981" type="curve"/>
    </contour>
    <contour>
      <point x="74.6320754716981" y="750.0" type="curve"/>
      <point x="70.94811320754715" y="738.8254716981132"/>
      <point x="68.26415094339622" y="722.7216981132076"/>
      <point x="68.26415094339622" y="706.7405660377359" type="curve" smooth="yes"/>
      <point x="68.26415094339622" y="660.7971698113207"/>
      <point x="87.36792452830188" y="642.9905660377358"/>
      <point x="113.03301886792453" y="642.9905660377358" type="curve" smooth="yes"/>
      <point x="134.83962264150944" y="642.9905660377358"/>
      <point x="182.92924528301887" y="653.816037735849"/>
      <point x="265.91509433962256" y="666.3584905660377" type="curve"/>
      <point x="270.3537735849056" y="661.9198113207547" type="line"/>
      <point x="270.3537735849056" y="509.32278773584903"/>
      <point x="270.3537735849056" y="354.78301886792457"/>
      <point x="270.3537735849056" y="203.0566037735849" type="curve" smooth="yes"/>
      <point x="270.3537735849056" y="161.2169811320755"/>
      <point x="278.1603773584905" y="131.55188679245282"/>
      <point x="295.01886792452825" y="111.25471698113208" type="curve"/>
      <point x="281.40566037735846" y="82.34433962264151" type="line"/>
      <point x="376.48584905660374" y="82.34433962264151" type="line"/>
      <point x="376.48584905660374" y="283.91037735849056"/>
      <point x="376.48584905660374" y="485.47641509433964"/>
      <point x="376.48584905660374" y="687.0424528301887" type="curve" smooth="yes"/>
      <point x="376.48584905660374" y="744.8962264150942"/>
      <point x="342.7688679245283" y="760.0"/>
      <point x="270.35377358490564" y="760.0" type="curve"/>
      <point x="218.08962264150944" y="760.0"/>
      <point x="138.37264150943398" y="755.877358490566"/>
    </contour>
  </outline>
</glyph>
<glyph name="m" format="2">
  <advance width="600.0"/>
  <unicode hex="006D"/>
  <anchor x="314.683962264151" y="0.0" name="bottom"/>
  <outline>
    <contour>
      <point x="572.2264150943397" y="0.0" type="curve"/>
      <point x="559.2971698113208" y="51.9811320754717"/>
      <point x="555.6132075471698" y="87.10377358490567"/>
      <point x="555.6132075471698" y="143.64622641509436" type="curve" smooth="yes"/>
      <point x="555.6132075471698" y="239.3490566037736"/>
      <point x="555.6132075471698" y="334.0518867924528"/>
      <point x="555.6132075471698" y="429.75471698113205" type="curve" smooth="yes"/>
      <point x="555.6132075471698" y="480.01886792452825"/>
      <point x="513.7028301886792" y="544.9811320754717"/>
      <point x="462.122641509434" y="544.9811320754717" type="curve" smooth="yes"/>
      <point x="418.1745283018868" y="544.9811320754717"/>
      <point x="370.9811320754717" y="500.9292452830189"/>
      <point x="340.54245283018867" y="440.8066037735849" type="curve"/>
      <point x="322.5943396226415" y="440.8066037735849" type="line"/>
      <point x="322.5943396226415" y="311.52830188679246" type="line"/>
      <point x="349.561320754717" y="387.566037735849"/>
      <point x="390.40566037735846" y="436.0424528301887"/>
      <point x="432.54716981132077" y="436.0424528301887" type="curve" smooth="yes"/>
      <point x="449.6367924528302" y="436.0424528301887"/>
      <point x="459.1462264150943" y="428.02358490566036"/>
      <point x="465.4622641509434" y="411.10849056603774" type="curve"/>
      <point x="453.41037735849056" y="296.2641509433962"/>
      <point x="448.60377358490564" y="210.26415094339623"/>
      <point x="448.60377358490564" y="125.05188679245283" type="curve" smooth="yes"/>
      <point x="448.60377358490564" y="18.929245283018872"/>
      <point x="475.2877358490566" y="-4.245283018867925"/>
      <point x="532.6509433962265" y="-4.245283018867925" type="curve" smooth="yes"/>
      <point x="548.3867924528303" y="-4.245283018867925"/>
      <point x="559.683962264151" y="-2.6839622641509435"/>
    </contour>
    <contour>
      <point x="334.9811320754717" y="0.0" type="curve"/>
      <point x="335.54245283018867" y="145.12264150943395"/>
      <point x="335.54245283018867" y="290.2452830188679"/>
      <point x="334.9811320754717" y="435.3679245283019" type="curve" smooth="yes"/>
      <point x="334.9811320754717" y="473.31603773584914"/>
      <point x="308.6650943396226" y="543.8584905660377"/>
      <point x="256.1367924528302" y="543.8584905660377" type="curve" smooth="yes"/>
      <point x="213.99528301886795" y="543.8584905660377"/>
      <point x="175.60849056603774" y="506.63207547169816"/>
      <point x="149.22169811320757" y="438.1745283018868" type="curve"/>
      <point x="131.58962264150944" y="438.1745283018868" type="line"/>
      <point x="133.83490566037736" y="306.7028301886793" type="line"/>
      <point x="170.43396226415095" y="401.9198113207547"/>
      <point x="201.89150943396228" y="436.0424528301887"/>
      <point x="238.7877358490566" y="436.0424528301887" type="curve" smooth="yes"/>
      <point x="256.7547169811321" y="436.0424528301887"/>
      <point x="267.14150943396226" y="428.3396226415095"/>
      <point x="274.45754716981133" y="409.6179245283019" type="curve" smooth="yes"/>
      <point x="262.52830188679246" y="279.3018867924528"/>
      <point x="258.84433962264154" y="193.98584905660377"/>
      <point x="258.84433962264154" y="105.40566037735849" type="curve" smooth="yes"/>
      <point x="258.84433962264154" y="22.297169811320753"/>
      <point x="279.65094339622647" y="-3.0"/>
      <point x="318.7358490566038" y="-3.0" type="curve" smooth="yes"/>
      <point x="325.85849056603774" y="-3.0"/>
      <point x="330.4198113207547" y="-2.0"/>
    </contour>
    <contour>
      <point x="144.90566037735846" y="-2.193396226415094" type="curve"/>
      <point x="144.90566037735846" y="142.14150943396228"/>
      <point x="144.90566037735846" y="286.59905660377365"/>
      <point x="144.90566037735846" y="430.9339622641509" type="curve"/>
      <point x="144.90566037735846" y="505.0707547169812"/>
      <point x="104.701179245283" y="539.8584905660377"/>
      <point x="62.85849056603773" y="539.8584905660377" type="curve"/>
      <point x="52.80660377358491" y="539.8584905660377"/>
      <point x="42.31603773584906" y="538.8584905660377"/>
      <point x="32.264150943396224" y="536.2971698113207" type="curve"/>
      <point x="41.264150943396224" y="504.24528301886795"/>
      <point x="44.386792452830186" y="481.14150943396226"/>
      <point x="44.386792452830186" y="438.6320754716981" type="curve" smooth="yes"/>
      <point x="44.386792452830186" y="305.49056603773585"/>
      <point x="44.386792452830186" y="172.47169811320754"/>
      <point x="44.386792452830186" y="39.33018867924528" type="curve" smooth="yes"/>
      <point x="44.386792452830186" y="1.1226415094339623"/>
      <point x="66.31603773584906" y="-5.561320754716981"/>
      <point x="107.9622641509434" y="-5.561320754716981" type="curve" smooth="yes"/>
      <point x="122.18867924528303" y="-5.561320754716981"/>
      <point x="135.16981132075472" y="-4.438679245283018"/>
    </contour>
  </outline>
</glyph>
<glyph name="n" format="2">
  <advance width="600.0"/>
  <unicode hex="006E"/>
  <anchor x="300.0" y="544.8584905660377" name="top"/>
  <anchor x="301.683962264151" y="-1.0" name="bottom"/>
  <anchor x="89.64622641509435" y="694.1603773584906" name="caronslovak"/>
  <outline>
    <contour>
      <point x="534.2075471698114" y="0.0" type="curve"/>
      <point x="520.4009433962265" y="51.9811320754717"/>
      <point x="516.2783018867925" y="87.10377358490567"/>
      <point x="516.2783018867925" y="143.64622641509433" type="curve" smooth="yes"/>
      <point x="516.2783018867925" y="225.66509433962264"/>
      <point x="516.2783018867925" y="307.6839622641509"/>
      <point x="516.2783018867925" y="389.70283018867923" type="curve" smooth="yes"/>
      <point x="516.2783018867925" y="465.82547169811323"/>
      <point x="467.47169811320754" y="545.4198113207547"/>
      <point x="400.25943396226415" y="545.4198113207547" type="curve"/>
      <point x="316.8207547169811" y="545.4198113207547"/>
      <point x="237.3820754716981" y="468.3490566037736"/>
      <point x="193.04716981132074" y="365.20754716981133" type="curve"/>
      <point x="169.43396226415095" y="365.20754716981133" type="line"/>
      <point x="170.75" y="176.35849056603774" type="line"/>
      <point x="221.5566037735849" y="345.28301886792457"/>
      <point x="295.7877358490566" y="429.7452830188679"/>
      <point x="368.2641509433962" y="429.7452830188679" type="curve" smooth="yes"/>
      <point x="394.1792452830188" y="429.7452830188679"/>
      <point x="411.6367924528302" y="413.0235849056604"/>
      <point x="424.2688679245283" y="380.8962264150943" type="curve" smooth="yes"/>
      <point x="408.4622641509434" y="281.17452830188677"/>
      <point x="400.2877358490566" y="212.21226415094338"/>
      <point x="400.2877358490566" y="129.43867924528303" type="curve" smooth="yes"/>
      <point x="400.2877358490566" y="23.316037735849058"/>
      <point x="435.9528301886793" y="-4.245283018867925"/>
      <point x="495.0707547169811" y="-4.245283018867925" type="curve" smooth="yes"/>
      <point x="509.0518867924529" y="-4.245283018867925"/>
      <point x="520.7877358490566" y="-2.6839622641509435"/>
    </contour>
    <contour>
      <point x="187.04716981132077" y="-2.193396226415094" type="curve"/>
      <point x="187.04716981132077" y="124.17924528301886"/>
      <point x="187.04716981132077" y="268.63679245283015"/>
      <point x="187.04716981132077" y="408.4811320754717" type="curve" smooth="yes"/>
      <point x="187.04716981132077" y="507.3160377358491"/>
      <point x="150.27830188679246" y="539.8584905660377"/>
      <point x="97.14150943396226" y="539.8584905660377" type="curve"/>
      <point x="86.52830188679246" y="539.8584905660377"/>
      <point x="75.47641509433961" y="537.7358490566038"/>
      <point x="64.86320754716981" y="535.1745283018868" type="curve"/>
      <point x="76.66981132075472" y="509.85849056603774"/>
      <point x="80.91509433962264" y="480.5801886792453"/>
      <point x="80.91509433962264" y="441.438679245283" type="curve" smooth="yes"/>
      <point x="80.91509433962264" y="317.27830188679246"/>
      <point x="80.91509433962264" y="194.36320754716982"/>
      <point x="80.91509433962264" y="57.85377358490566" type="curve" smooth="yes"/>
      <point x="80.91509433962264" y="19.08490566037736"/>
      <point x="102.28301886792453" y="-3.8773584905660377"/>
      <point x="157.96226415094338" y="-3.8773584905660377" type="curve" smooth="yes"/>
      <point x="167.69811320754718" y="-3.8773584905660377"/>
      <point x="175.62735849056602" y="-3.8773584905660377"/>
    </contour>
  </outline>
</glyph>
<glyph name="q" format="2">
  <advance width="600.0"/>
  <unicode hex="0071"/>
  <outline>
    <contour>
      <point x="419.0566037735849" y="535.5424528301887" type="curve"/>
      <point x="411.688679245283" y="506.0"/>
      <point x="409.12735849056605" y="479.82547169811323"/>
      <point x="409.12735849056605" y="435.6320754716981" type="curve"/>
      <point x="409.12735849056605" y="262.64622641509436"/>
      <point x="409.12735849056605" y="88.22169811320755"/>
      <point x="409.12735849056605" y="-84.76415094339622" type="curve"/>
      <point x="409.12735849056605" y="-152.60377358490564"/>
      <point x="432.37264150943395" y="-205.47641509433961"/>
      <point x="489.49056603773585" y="-205.47641509433961" type="curve" smooth="yes"/>
      <point x="500.1037735849057" y="-205.47641509433961"/>
      <point x="507.7877358490566" y="-205.03773584905662"/>
      <point x="520.0849056603774" y="-202.47641509433961" type="curve"/>
      <point x="516.1367924528303" y="-169.8632075471698"/>
      <point x="515.2594339622642" y="-143.95283018867926"/>
      <point x="515.2594339622642" y="-103.68867924528301" type="curve" smooth="yes"/>
      <point x="515.2594339622642" y="73.49056603773585"/>
      <point x="515.2594339622642" y="247.17924528301884"/>
      <point x="515.2594339622642" y="428.2877358490566" type="curve"/>
      <point x="515.2594339622642" y="511.7547169811321"/>
      <point x="486.6650943396226" y="538.5424528301887"/>
      <point x="450.5801886792453" y="538.5424528301887" type="curve"/>
      <point x="439.28301886792457" y="538.5424528301887"/>
      <point x="429.7924528301887" y="537.5424528301887"/>
    </contour>
    <contour>
      <point x="421.74056603773585" y="150.6320754716981" type="line"/>
      <point x="421.74056603773585" y="306.1698113207547" type="line"/>
      <point x="367.45754716981133" y="153.57075471698113"/>
      <point x="301.3243831639891" y="101.18396226415095"/>
      <point x="220.58018867924528" y="101.18396226415095" type="curve" smooth="yes"/>
      <point x="200.78773584905662" y="101.18396226415095"/>
      <point x="184.50471698113208" y="109.0801886792453"/>
      <point x="172.04716981132077" y="126.31132075471697" type="curve" smooth="yes"/>
      <point x="166.2924528301887" y="153.7688679245283"/>
      <point x="164.29245283018867" y="181.03301886792454"/>
      <point x="164.29245283018867" y="217.71698113207546" type="curve" smooth="yes"/>
      <point x="164.29245283018867" y="227.83962264150944" type="line" smooth="yes"/>
      <point x="164.29245283018867" y="368.3018867924528"/>
      <point x="207.311320754717" y="442.2169811320755"/>
      <point x="297.10377358490564" y="442.2169811320755" type="curve" smooth="yes"/>
      <point x="350.1933962264151" y="442.2169811320755"/>
      <point x="384.14150943396226" y="424.70754716981133"/>
      <point x="421.74056603773585" y="381.16037735849056" type="curve"/>
      <point x="421.74056603773585" y="470.683962264151" type="line"/>
      <point x="403.25" y="470.683962264151" type="line"/>
      <point x="378.42452830188677" y="510.80660377358487"/>
      <point x="327.2311320754717" y="544.9811320754717"/>
      <point x="268.8632075471698" y="544.9811320754717" type="curve" smooth="yes"/>
      <point x="153.1933962264151" y="544.9811320754717"/>
      <point x="55.35377358490566" y="447.10377358490564"/>
      <point x="55.35377358490566" y="215.36792452830187" type="curve" smooth="yes"/>
      <point x="55.35377358490566" y="195.56132075471697" type="line" smooth="yes"/>
      <point x="55.35377358490566" y="76.98113207547169"/>
      <point x="124.89622641509433" y="-11.122641509433961"/>
      <point x="212.10849056603774" y="-11.122641509433961" type="curve" smooth="yes"/>
      <point x="289.8632075471698" y="-11.122641509433961"/>
      <point x="365.42452830188677" y="59.36792452830189"/>
      <point x="402.688679245283" y="150.19339622641508" type="curve"/>
    </contour>
  </outline>
</glyph>
<glyph name="r" format="2">
  <advance width="600.0"/>
  <unicode hex="0072"/>
  <outline>
    <contour>
      <point x="207.40566037735846" y="96.00943396226415" type="line"/>
      <point x="295.872641509434" y="82.34433962264151" type="line"/>
      <point x="295.872641509434" y="172.55660377358492"/>
      <point x="295.872641509434" y="262.7688679245283"/>
      <point x="295.872641509434" y="352.9811320754717" type="curve" smooth="yes"/>
      <point x="295.872641509434" y="500.4245283018868"/>
      <point x="274.03301886792457" y="543.8584905660377"/>
      <point x="189.74056603773582" y="543.8584905660377" type="curve" smooth="yes"/>
      <point x="154.91509433962264" y="543.8584905660377"/>
      <point x="101.6179245283019" y="539.0518867924528"/>
      <point x="59.58018867924528" y="533.8584905660377" type="curve"/>
      <point x="55.33490566037736" y="521.0"/>
      <point x="53.2122641509434" y="500.9669811320755"/>
      <point x="53.2122641509434" y="482.1792452830189" type="curve"/>
      <point x="53.2122641509434" y="436.2358490566038"/>
      <point x="72.31603773584905" y="412.8160377358491"/>
      <point x="94.05188679245282" y="412.8160377358491" type="curve" smooth="yes"/>
      <point x="109.29716981132076" y="412.8160377358491"/>
      <point x="139.31603773584905" y="423.76415094339626"/>
      <point x="184.74056603773582" y="450.2169811320755" type="curve" smooth="yes"/>
      <point x="189.74056603773582" y="446.9009433962264" type="line"/>
      <point x="189.74056603773582" y="365.80660377358487"/>
      <point x="189.74056603773582" y="284.15094339622647"/>
      <point x="189.74056603773582" y="203.0566037735849" type="curve" smooth="yes"/>
      <point x="189.74056603773582" y="160.2169811320755"/>
      <point x="198.10849056603772" y="129.99056603773585"/>
      <point x="214.96698113207543" y="110.6933962264151" type="curve" smooth="yes"/>
    </contour>
    <contour>
      <point x="288.872641509434" y="361.10377358490564" type="line"/>
      <point x="288.872641509434" y="203.9669811320755" type="line"/>
      <point x="333.76886792452837" y="361.6745283018868"/>
      <point x="393.9292452830189" y="421.7641509433962"/>
      <point x="472.24528301886795" y="421.7641509433962" type="curve" smooth="yes"/>
      <point x="504.85849056603774" y="421.7641509433962"/>
      <point x="523.5424528301886" y="414.3962264150943"/>
      <point x="546.6650943396226" y="400.22169811320754" type="curve"/>
      <point x="552.6650943396227" y="400.22169811320754" type="line"/>
      <point x="558.3490566037736" y="419.3254716981132"/>
      <point x="561.4716981132076" y="440.4292452830189"/>
      <point x="561.4716981132076" y="464.2169811320755" type="curve"/>
      <point x="561.4716981132076" y="502.52830188679246"/>
      <point x="555.5424528301887" y="525.3679245283018"/>
      <point x="543.2452830188679" y="537.6650943396227" type="curve" smooth="yes"/>
      <point x="533.683962264151" y="547.2264150943397"/>
      <point x="519.0518867924528" y="551.2264150943396"/>
      <point x="495.03301886792457" y="551.2264150943396" type="curve" smooth="yes"/>
      <point x="415.87264150943395" y="551.2264150943396"/>
      <point x="343.1886792452831" y="488.54245283018867"/>
      <point x="301.75000000000006" y="361.10377358490564" type="curve"/>
    </contour>
    <contour>
      <point x="57.38679245283019" y="106.1320754716981" type="line"/>
      <point x="55.38679245283019" y="97.3254716981132"/>
      <point x="54.38679245283019" y="87.95754716981132"/>
      <point x="54.38679245283019" y="78.27358490566039" type="curve" smooth="yes"/>
      <point x="54.38679245283019" y="28.716981132075475"/>
      <point x="67.24528301886792" y="0.0"/>
      <point x="127.16981132075472" y="0.0" type="curve" smooth="yes"/>
      <point x="486.41981132075466" y="0.0" type="line"/>
      <point x="489.66509433962256" y="8.735849056603776"/>
      <point x="491.2264150943396" y="17.349056603773583"/>
      <point x="491.2264150943396" y="27.64622641509434" type="curve" smooth="yes"/>
      <point x="491.2264150943396" y="73.09905660377358"/>
      <point x="421.60849056603774" y="106.1320754716981"/>
      <point x="298.066037735849" y="106.1320754716981" type="curve"/>
    </contour>
  </outline>
</glyph>
<glyph name="x" format="2">
  <advance width="600.0"/>
  <unicode hex="0078"/>
  <outline>
    <contour>
      <point x="48.0377358490566" y="534.9811320754717" type="curve"/>
      <point x="105.28301886792453" y="413.2264150943396"/>
      <point x="175.47641509433961" y="300.22641509433964"/>
      <point x="253.35377358490567" y="197.7358490566038" type="curve"/>
      <point x="286.6320754716981" y="154.84433962264148" type="line"/>
      <point x="325.10837306890426" y="109.29967045947312"/>
      <point x="366.4403028383434" y="64.57294230874764"/>
      <point x="407.41037735849056" y="24.330188679245285" type="curve" smooth="yes"/>
      <point x="429.7270396996142" y="-0.41788021875518844"/>
      <point x="449.1792452830189" y="-11.122641509433961"/>
      <point x="490.87735849056605" y="-11.122641509433961" type="curve" smooth="yes"/>
      <point x="522.9103773584906" y="-11.122641509433961"/>
      <point x="544.1367924528303" y="-4.632075471698113"/>
      <point x="563.311320754717" y="10.10377358490566" type="curve"/>
      <point x="486.55660377358487" y="77.66509433962264"/>
      <point x="414.9952830188679" y="154.83962264150944"/>
      <point x="352.9952830188679" y="237.3820754716981" type="curve"/>
      <point x="322.83962264150944" y="282.32547169811323" type="line"/>
      <point x="273.4858490566038" y="350.9245283018868"/>
      <point x="230.8867924528302" y="425.83962264150944"/>
      <point x="194.6745283018868" y="505.4575471698114" type="curve" smooth="yes"/>
      <point x="182.25471698113208" y="531.8584905660377"/>
      <point x="148.311320754717" y="540.7877358490566"/>
      <point x="102.56132075471699" y="540.7877358490566" type="curve" smooth="yes"/>
      <point x="81.94811320754718" y="540.7877358490566"/>
      <point x="63.40566037735848" y="538.6650943396227"/>
    </contour>
    <contour>
      <point x="255.8443396226415" y="238.43396226415095" type="line"/>
      <point x="203.65094339622644" y="178.67924528301887"/>
      <point x="145.77358490566036" y="120.24056603773585"/>
      <point x="72.59905660377358" y="62.924528301886795" type="curve" smooth="yes"/>
      <point x="54.617924528301884" y="49.31132075471699"/>
      <point x="52.05660377358491" y="42.50471698113208"/>
      <point x="52.05660377358491" y="32.33018867924528" type="curve" smooth="yes"/>
      <point x="52.05660377358491" y="7.858490566037736"/>
      <point x="94.87735849056604" y="-10.0"/>
      <point x="148.5566037735849" y="-10.0" type="curve" smooth="yes"/>
      <point x="156.73113207547172" y="-10.0" type="line"/>
      <point x="206.75" y="37.632075471698116"/>
      <point x="252.27830188679243" y="87.77358490566039"/>
      <point x="295.3679245283019" y="137.4245283018868" type="curve"/>
      <point x="330.9622641509434" y="137.4245283018868" type="line"/>
    </contour>
    <contour>
      <point x="457.8113207547169" y="542.3490566037736" type="curve" smooth="yes"/>
      <point x="440.8301886792453" y="542.3490566037736" type="line"/>
      <point x="404.9858490566038" y="448.24056603773585"/>
      <point x="362.9481132075471" y="370.8349056603774"/>
      <point x="316.0330188679245" y="300.938679245283" type="curve"/>
      <point x="290.2971698113207" y="300.938679245283" type="line"/>
      <point x="353.5566037735849" y="194.68396226415095" type="line"/>
      <point x="430.6792452830189" y="287.7358490566038"/>
      <point x="490.1367924528302" y="376.75471698113205"/>
      <point x="535.5943396226414" y="478.54716981132077" type="curve" smooth="yes"/>
      <point x="539.7169811320754" y="488.3537735849057"/>
      <point x="541.2783018867924" y="495.2830188679245"/>
      <point x="541.2783018867924" y="502.96698113207543" type="curve" smooth="yes"/>
      <point x="541.2783018867924" y="530.6132075471697"/>
      <point x="507.70283018867923" y="542.3490566037736"/>
    </contour>
  </outline>
</glyph>
<glyph name="braceleft" format="2">
  <advance width="600.0"/>
  <unicode hex="007B"/>
  <outline>
    <contour>
      <point x="379.75" y="152.62735849056602" type="curve" smooth="yes"/>
      <point x="379.75" y="223.34905660377356"/>
      <point x="342.9245283018868" y="272.7358490566038"/>
      <point x="264.433962264151" y="297.561320754717" type="curve"/>
      <point x="264.433962264151" y="303.561320754717" type="line"/>
      <point x="337.87264150943395" y="326.6320754716981"/>
      <point x="379.75" y="375.89622641509436"/>
      <point x="379.75" y="445.9339622641509" type="curve" smooth="yes"/>
      <point x="379.75" y="519.3915094339623"/>
      <point x="342.0801886792453" y="576.6556603773586"/>
      <point x="331.97641509433964" y="613.6556603773585" type="curve" smooth="yes"/>
      <point x="330.8537735849057" y="618.0943396226415"/>
      <point x="330.1698113207547" y="621.9716981132076"/>
      <point x="330.04716981132077" y="625.8490566037735" type="curve"/>
      <point x="352.85377358490564" y="648.3066037735848"/>
      <point x="397.89150943396226" y="658.6933962264151"/>
      <point x="446.438679245283" y="658.6933962264151" type="curve" smooth="yes"/>
      <point x="471.6839622641509" y="658.6933962264151"/>
      <point x="489.2971698113207" y="656.1320754716982"/>
      <point x="506.1745283018868" y="650.6933962264151" type="curve"/>
      <point x="512.1745283018868" y="650.6933962264151" type="line"/>
      <point x="515.7358490566038" y="662.3066037735848"/>
      <point x="517.2971698113207" y="677.8490566037735"/>
      <point x="517.2971698113207" y="694.7075471698113" type="curve" smooth="yes"/>
      <point x="517.2971698113207" y="735.9150943396227"/>
      <point x="491.3867924528302" y="770.0"/>
      <point x="453.2641509433962" y="770.0" type="curve"/>
      <point x="448.82547169811323" y="770.0" type="line" smooth="yes"/>
      <point x="326.3867924528302" y="770.0"/>
      <point x="235.3867924528302" y="726.1415094339623"/>
      <point x="235.3867924528302" y="652.3867924528302" type="curve" smooth="yes"/>
      <point x="235.3867924528302" y="646.1415094339623" type="line" smooth="yes"/>
      <point x="235.3867924528302" y="593.122641509434"/>
      <point x="278.6698113207547" y="541.7028301886793"/>
      <point x="278.6698113207547" y="461.9481132075472" type="curve" smooth="yes"/>
      <point x="278.6698113207547" y="390.6839622641509"/>
      <point x="227.03773584905662" y="348.6981132075472"/>
      <point x="134.68396226415098" y="348.6981132075472" type="curve" smooth="yes"/>
      <point x="118.31603773584905" y="348.6981132075472" type="line"/>
      <point x="113.50943396226414" y="337.4009433962264"/>
      <point x="111.94811320754717" y="324.22641509433964"/>
      <point x="111.94811320754717" y="309.12264150943395" type="curve" smooth="yes"/>
      <point x="111.94811320754717" y="266.9858490566038"/>
      <point x="125.36792452830188" y="249.86320754716982"/>
      <point x="157.64622641509436" y="249.86320754716982" type="curve" smooth="yes"/>
      <point x="161.33018867924528" y="249.86320754716982" type="line" smooth="yes"/>
      <point x="234.89622641509436" y="249.86320754716982"/>
      <point x="278.6698113207547" y="205.31603773584905"/>
      <point x="278.6698113207547" y="136.61320754716982" type="curve" smooth="yes"/>
      <point x="278.6698113207547" y="56.85849056603774"/>
      <point x="235.3867924528302" y="1.0"/>
      <point x="235.3867924528302" y="-52.0188679245283" type="curve" smooth="yes"/>
      <point x="235.3867924528302" y="-56.825471698113205" type="line" smooth="yes"/>
      <point x="235.3867924528302" y="-134.4056603773585"/>
      <point x="310.37264150943395" y="-172.0"/>
      <point x="441.5801886792453" y="-172.0" type="curve" smooth="yes"/>
      <point x="447.0188679245283" y="-172.0" type="line" smooth="yes"/>
      <point x="493.3867924528302" y="-172.0"/>
      <point x="515.6132075471698" y="-132.0566037735849"/>
      <point x="515.6132075471698" y="-82.42924528301887" type="curve" smooth="yes"/>
      <point x="515.6132075471698" y="-69.74528301886792"/>
      <point x="514.6132075471698" y="-56.009433962264154"/>
      <point x="512.0518867924528" y="-48.88679245283018" type="curve"/>
      <point x="506.05188679245276" y="-48.88679245283018" type="line"/>
      <point x="483.1933962264151" y="-57.13207547169811"/>
      <point x="464.5801886792452" y="-59.69339622641509"/>
      <point x="439.52830188679246" y="-59.69339622641509" type="curve" smooth="yes"/>
      <point x="387.83962264150944" y="-59.69339622641509"/>
      <point x="353.6792452830188" y="-53.5"/>
      <point x="328.9245283018868" y="-33.72641509433962" type="curve"/>
      <point x="328.60849056603774" y="-29.410377358490564"/>
      <point x="329.7311320754717" y="-24.655660377358487"/>
      <point x="330.29245283018867" y="-19.462264150943394" type="curve" smooth="yes"/>
      <point x="340.95754716981133" y="18.660377358490567"/>
      <point x="379.75" y="78.60849056603773"/>
    </contour>
  </outline>
</glyph>
<glyph name="section" format="2">
  <advance width="600.0"/>
  <unicode hex="00A7"/>
  <outline>
    <contour>
      <point x="376.316037735849" y="720.0" type="curve" smooth="yes"/>
      <point x="221.28301886792454" y="720.0"/>
      <point x="78.77358490566039" y="573.1037735849058"/>
      <point x="78.77358490566039" y="443.0518867924528" type="curve" smooth="yes"/>
      <point x="78.77358490566039" y="431.36792452830184" type="line" smooth="yes"/>
      <point x="78.77358490566039" y="367.85849056603774"/>
      <point x="114.54716981132076" y="319.0"/>
      <point x="255.8443396226415" y="266.75471698113205" type="curve" smooth="yes"/>
      <point x="342.96698113207543" y="234.19339622641508" type="line" smooth="yes"/>
      <point x="417.0754716981132" y="206.61320754716982"/>
      <point x="435.70754716981133" y="183.5943396226415"/>
      <point x="435.70754716981133" y="137.25943396226415" type="curve" smooth="yes"/>
      <point x="435.70754716981133" y="132.1367924528302" type="line" smooth="yes"/>
      <point x="435.70754716981133" y="98.82075471698113"/>
      <point x="427.9528301886793" y="77.36320754716982"/>
      <point x="404.1792452830189" y="48.78301886792454" type="curve"/>
      <point x="471.8066037735849" y="33.34433962264151" type="line"/>
      <point x="473.12264150943395" y="50.589622641509436" type="line"/>
      <point x="511.85849056603774" y="61.7311320754717"/>
      <point x="538.5943396226414" y="98.34433962264151"/>
      <point x="538.5943396226414" y="151.97641509433964" type="curve" smooth="yes"/>
      <point x="538.5943396226414" y="158.60849056603774" type="line" smooth="yes"/>
      <point x="538.5943396226414" y="231.99528301886792"/>
      <point x="484.91037735849056" y="284.92452830188677"/>
      <point x="382.0330188679245" y="322.3632075471698" type="curve" smooth="yes"/>
      <point x="291.9811320754717" y="355.04716981132077" type="line" smooth="yes"/>
      <point x="201.27358490566039" y="388.0141509433962"/>
      <point x="184.9056603773585" y="407.22641509433964"/>
      <point x="184.9056603773585" y="440.1745283018868" type="curve" smooth="yes"/>
      <point x="184.9056603773585" y="443.1745283018868" type="line" smooth="yes"/>
      <point x="184.9056603773585" y="520.7924528301887"/>
      <point x="288.7688679245283" y="613.867924528302"/>
      <point x="377.438679245283" y="613.867924528302" type="curve" smooth="yes"/>
      <point x="401.08962264150944" y="613.867924528302"/>
      <point x="418.2311320754717" y="609.2358490566038"/>
      <point x="430.9858490566038" y="599.4103773584906" type="curve"/>
      <point x="408.6698113207547" y="630.1462264150944" type="line"/>
      <point x="410.8301886792453" y="600.9716981132075"/>
      <point x="407.9009433962264" y="576.2547169811321"/>
      <point x="407.9009433962264" y="495.12264150943395" type="curve" smooth="yes"/>
      <point x="407.9009433962264" y="455.8962264150943"/>
      <point x="427.6367924528302" y="438.77358490566036"/>
      <point x="475.33490566037733" y="438.77358490566036" type="curve" smooth="yes"/>
      <point x="490.87735849056605" y="438.77358490566036"/>
      <point x="503.85849056603774" y="440.33490566037733"/>
      <point x="514.0330188679245" y="443.4575471698113" type="curve"/>
      <point x="514.0330188679245" y="485.28301886792457"/>
      <point x="514.0330188679245" y="527.2311320754717"/>
      <point x="514.0330188679245" y="569.0566037735849" type="curve" smooth="yes"/>
      <point x="514.0330188679245" y="618.4575471698113"/>
      <point x="504.66509433962267" y="651.6509433962264"/>
      <point x="477.29716981132077" y="679.0188679245282" type="curve" smooth="yes"/>
      <point x="452.683962264151" y="703.6320754716982"/>
      <point x="420.50943396226415" y="720.0"/>
    </contour>
    <contour>
      <point x="300.0" y="-143.3066037735849" type="curve" smooth="yes"/>
      <point x="199.56132075471697" y="-143.3066037735849"/>
      <point x="127.14150943396226" y="-115.06132075471697"/>
      <point x="74.40566037735849" y="-55.745283018867916" type="curve"/>
      <point x="68.40566037735849" y="-55.745283018867916" type="line"/>
      <point x="64.40566037735849" y="-69.42924528301886"/>
      <point x="61.844339622641506" y="-85.60377358490567"/>
      <point x="61.844339622641506" y="-106.77830188679245" type="curve" smooth="yes"/>
      <point x="61.844339622641506" y="-145.79245283018867"/>
      <point x="71.70283018867924" y="-174.1933962264151"/>
      <point x="89.19339622641509" y="-191.68396226415095" type="curve" smooth="yes"/>
      <point x="125.14150943396226" y="-227.63207547169813"/>
      <point x="206.31603773584905" y="-249.43867924528303"/>
      <point x="300.0" y="-249.43867924528303" type="curve" smooth="yes"/>
      <point x="455.4528301886793" y="-249.43867924528303"/>
      <point x="538.5943396226414" y="-184.58018867924528"/>
      <point x="538.5943396226414" y="-81.0377358490566" type="curve" smooth="yes"/>
      <point x="538.5943396226414" y="-69.86320754716981" type="line" smooth="yes"/>
      <point x="538.5943396226414" y="-13.91509433962264"/>
      <point x="501.75" y="45.801886792452834"/>
      <point x="382.0330188679245" y="89.41509433962264" type="curve" smooth="yes"/>
      <point x="291.98113207547175" y="122.09905660377359" type="line" smooth="yes"/>
      <point x="199.95754716981133" y="155.50471698113208"/>
      <point x="184.9056603773585" y="182.17452830188677"/>
      <point x="184.9056603773585" y="221.05188679245282" type="curve" smooth="yes"/>
      <point x="184.9056603773585" y="227.92924528301884" type="line" smooth="yes"/>
      <point x="184.9056603773585" y="254.8254716981132"/>
      <point x="196.97641509433961" y="285.45754716981133"/>
      <point x="221.75" y="309.9669811320755" type="curve"/>
      <point x="160.61320754716982" y="327.16037735849056" type="line"/>
      <point x="157.9811320754717" y="306.2830188679245" type="line"/>
      <point x="103.1933962264151" y="288.2641509433962"/>
      <point x="78.77358490566039" y="252.94811320754718"/>
      <point x="78.77358490566039" y="203.0377358490566" type="curve" smooth="yes"/>
      <point x="78.77358490566039" y="196.03773584905662" type="line" smooth="yes"/>
      <point x="78.77358490566039" y="132.52830188679246"/>
      <point x="126.89622641509435" y="81.56132075471697"/>
      <point x="260.3349056603774" y="32.12264150943396" type="curve" smooth="yes"/>
      <point x="349.70283018867923" y="-1.0" type="line" smooth="yes"/>
      <point x="408.1792452830189" y="-22.702830188679243"/>
      <point x="433.75943396226415" y="-45.2122641509434"/>
      <point x="442.51415094339626" y="-84.16037735849056" type="curve" smooth="yes"/>
      <point x="443.51415094339626" y="-88.72169811320755" type="line" smooth="yes"/>
      <point x="419.77830188679246" y="-123.90094339622641"/>
      <point x="369.12735849056605" y="-143.3066037735849"/>
    </contour>
  </outline>
</glyph>
<glyph name="ordfeminine" format="2">
  <advance width="600.0"/>
  <unicode hex="00AA"/>
  <outline>
    <contour>
      <point x="223.49528301886792" y="290.438679245283" type="curve" smooth="yes"/>
      <point x="281.24999999999994" y="290.438679245283"/>
      <point x="341.566037735849" y="345.122641509434"/>
      <point x="375.2688679245283" y="428.6320754716981" type="curve"/>
      <point x="386.26886792452825" y="428.6320754716981" type="line"/>
      <point x="388.95283018867923" y="560.8915094339623" type="line"/>
      <point x="345.3537735849057" y="434.8537735849057"/>
      <point x="293.8443396226415" y="387.4669811320755"/>
      <point x="230.84433962264148" y="387.4669811320755" type="curve" smooth="yes"/>
      <point x="215.56132075471697" y="387.4669811320755"/>
      <point x="202.34905660377356" y="393.1698113207547"/>
      <point x="192.64622641509433" y="406.0141509433962" type="curve" smooth="yes"/>
      <point x="187.89150943396226" y="429.1556603773585"/>
      <point x="185.89150943396226" y="451.9811320754717"/>
      <point x="185.89150943396226" y="483.10377358490564" type="curve" smooth="yes"/>
      <point x="185.89150943396226" y="491.22641509433964" type="line" smooth="yes"/>
      <point x="185.89150943396226" y="608.1084905660377"/>
      <point x="222.47169811320757" y="669.8301886792453"/>
      <point x="296.0" y="669.8301886792453" type="curve" smooth="yes"/>
      <point x="337.08962264150944" y="669.8301886792453"/>
      <point x="361.3537735849057" y="655.0754716981132"/>
      <point x="391.75943396226415" y="620.5990566037735" type="curve"/>
      <point x="387.39150943396226" y="696.5094339622642" type="line"/>
      <point x="375.8301886792453" y="696.5094339622642" type="line"/>
      <point x="356.5141509433962" y="734.4386792452831"/>
      <point x="315.127358490566" y="759.5613207547169"/>
      <point x="271.811320754717" y="759.5613207547169" type="curve" smooth="yes"/>
      <point x="170.8254716981132" y="759.5613207547169"/>
      <point x="91.54716981132074" y="672.8584905660377"/>
      <point x="91.54716981132074" y="481.0" type="curve" smooth="yes"/>
      <point x="91.54716981132074" y="464.1933962264151" type="line" smooth="yes"/>
      <point x="91.54716981132074" y="364.1745283018868"/>
      <point x="149.72169811320754" y="290.438679245283"/>
    </contour>
    <contour>
      <point x="528.4386792452831" y="396.27358490566036" type="curve"/>
      <point x="522.438679245283" y="396.27358490566036" type="line"/>
      <point x="514.1933962264152" y="386.9056603773585"/>
      <point x="504.3981918238806" y="382.7830188679245"/>
      <point x="491.3867924528302" y="382.7830188679245" type="curve" smooth="yes"/>
      <point x="484.877358490566" y="382.7830188679245"/>
      <point x="478.561320754717" y="384.5377358490566"/>
      <point x="473.9292452830189" y="388.60849056603774" type="curve"/>
      <point x="473.9292452830189" y="479.54245283018867"/>
      <point x="473.9292452830189" y="571.1811502176968"/>
      <point x="473.9292452830189" y="661.9716981132075" type="curve"/>
      <point x="473.9292452830189" y="730.7028301886793"/>
      <point x="451.0188679245283" y="754.122641509434"/>
      <point x="420.9858490566038" y="754.122641509434" type="curve"/>
      <point x="409.4952830188679" y="754.122641509434"/>
      <point x="399.688679245283" y="753.122641509434"/>
      <point x="389.6367924528302" y="751.683962264151" type="curve"/>
      <point x="383.8301886792453" y="726.8254716981132"/>
      <point x="381.2688679245283" y="704.7735849056604"/>
      <point x="381.2688679245283" y="667.5801886792452" type="curve"/>
      <point x="381.2688679245283" y="579.1745283018868"/>
      <point x="381.2688679245283" y="490.3301886792453"/>
      <point x="381.2688679245283" y="402.4858490566038" type="curve"/>
      <point x="381.2688679245283" y="335.27830188679246"/>
      <point x="416.12735849056605" y="291.561320754717"/>
      <point x="470.1084905660377" y="291.561320754717" type="curve" smooth="yes"/>
      <point x="487.03773584905656" y="291.561320754717"/>
      <point x="499.96698113207543" y="296.8066037735849"/>
      <point x="510.3349056603774" y="307.1745283018868" type="curve" smooth="yes"/>
      <point x="524.5094339622641" y="321.3490566037736"/>
      <point x="531.0" y="344.45283018867923"/>
      <point x="531.0" y="367.60849056603774" type="curve"/>
      <point x="531.0" y="377.41509433962267"/>
      <point x="530.561320754717" y="388.2216981132076"/>
    </contour>
  </outline>
</glyph>
<glyph name="ordmasculine" format="2">
  <advance width="600.0"/>
  <unicode hex="00BA"/>
  <outline>
    <contour>
      <point x="301.80660377358487" y="762.4386792452831" type="curve" smooth="yes"/>
      <point x="186.07075471698113" y="762.4386792452831"/>
      <point x="102.19339622641509" y="663.877358490566"/>
      <point x="102.19339622641509" y="511.8584905660377" type="curve" smooth="yes"/>
      <point x="102.19339622641509" y="500.49056603773585" type="line" smooth="yes"/>
      <point x="102.19339622641509" y="357.0707547169811"/>
      <point x="186.05188679245285" y="284.683962264151"/>
      <point x="296.7547169811321" y="284.683962264151" type="curve" smooth="yes"/>
      <point x="416.87735849056605" y="284.683962264151"/>
      <point x="497.8066037735849" y="367.73584905660374"/>
      <point x="497.8066037735849" y="500.683962264151" type="curve" smooth="yes"/>
      <point x="497.8066037735849" y="512.0518867924528" type="line" smooth="yes"/>
      <point x="497.8066037735849" y="673.8657250825985"/>
      <point x="409.7625499146863" y="762.4386792452831"/>
    </contour>
    <contour>
      <point x="300.316037735849" y="680.4433962264151" type="curve" smooth="yes"/>
      <point x="319.49056603773585" y="680.4433962264151"/>
      <point x="334.29716981132077" y="678.3207547169811"/>
      <point x="347.9811320754717" y="673.5141509433962" type="curve"/>
      <point x="385.74056603773585" y="644.0047169811321"/>
      <point x="404.02358490566036" y="587.4575471698113"/>
      <point x="404.02358490566036" y="513.9811320754717" type="curve" smooth="yes"/>
      <point x="404.02358490566036" y="505.7358490566038" type="line" smooth="yes"/>
      <point x="404.02358490566036" y="417.47169811320754"/>
      <point x="369.25" y="368.36320754716985"/>
      <point x="293.19339622641513" y="368.36320754716985" type="curve" smooth="yes"/>
      <point x="267.24528301886795" y="368.36320754716985"/>
      <point x="246.29716981132077" y="375.433962264151"/>
      <point x="225.91037735849056" y="384.0660377358491" type="curve"/>
      <point x="202.24056603773587" y="412.5235849056604"/>
      <point x="194.29245283018867" y="451.3679245283019"/>
      <point x="194.29245283018867" y="494.63207547169816" type="curve" smooth="yes"/>
      <point x="194.29245283018867" y="501.7547169811321" type="line" smooth="yes"/>
      <point x="194.29245283018867" y="613.7547169811321"/>
      <point x="228.9433962264151" y="680.4433962264151"/>
    </contour>
  </outline>
</glyph>
<glyph name="divide" format="2">
  <advance width="600.0"/>
  <unicode hex="00F7"/>
  <outline>
    <contour>
      <point x="59.193396226415096" y="353.0660377358491" type="line"/>
      <point x="55.948113207547166" y="336.40094339622647"/>
      <point x="54.386792452830186" y="322.6650943396226"/>
      <point x="54.386792452830186" y="308.9292452830189" type="curve" smooth="yes"/>
      <point x="54.386792452830186" y="263.42452830188677"/>
      <point x="71.38679245283019" y="246.93396226415095"/>
      <point x="114.22641509433963" y="246.93396226415095" type="curve"/>
      <point x="543.0518867924528" y="246.93396226415095" type="line"/>
      <point x="545.7358490566038" y="261.35377358490564"/>
      <point x="547.8584905660377" y="277.3349056603774"/>
      <point x="547.8584905660377" y="291.0707547169811" type="curve" smooth="yes"/>
      <point x="547.8584905660377" y="336.0141509433962"/>
      <point x="530.8584905660377" y="353.0660377358491"/>
      <point x="488.0188679245283" y="353.0660377358491" type="curve"/>
    </contour>
    <contour>
      <point x="225.6509433962264" y="551.75" type="curve"/>
      <point x="225.6509433962264" y="480.64622641509436" type="line" smooth="yes"/>
      <point x="225.6509433962264" y="430.3679245283019"/>
      <point x="262.6839622641509" y="416.1037735849057"/>
      <point x="308.1933962264151" y="416.1037735849057" type="curve" smooth="yes"/>
      <point x="330.75471698113205" y="416.1037735849057"/>
      <point x="354.61320754716985" y="419.4198113207547"/>
      <point x="374.3490566037736" y="425.6132075471698" type="curve"/>
      <point x="374.3490566037736" y="496.7169811320755" type="line" smooth="yes"/>
      <point x="374.3490566037736" y="546.995283018868"/>
      <point x="337.3160377358491" y="561.2594339622642"/>
      <point x="291.8066037735849" y="561.2594339622642" type="curve"/>
      <point x="269.24528301886795" y="561.2594339622642"/>
      <point x="245.38679245283018" y="557.9433962264151"/>
    </contour>
    <contour>
      <point x="225.6509433962264" y="174.38679245283018" type="curve"/>
      <point x="225.6509433962264" y="103.28301886792453" type="line" smooth="yes"/>
      <point x="225.6509433962264" y="53.00471698113208"/>
      <point x="262.6839622641509" y="38.740566037735846"/>
      <point x="308.1933962264151" y="38.740566037735846" type="curve" smooth="yes"/>
      <point x="330.75471698113205" y="38.740566037735846"/>
      <point x="354.61320754716985" y="42.056603773584904"/>
      <point x="374.3490566037736" y="48.25" type="curve"/>
      <point x="374.3490566037736" y="119.35377358490565" type="line" smooth="yes"/>
      <point x="374.3490566037736" y="169.6320754716981"/>
      <point x="337.3160377358491" y="183.89622641509433"/>
      <point x="291.8066037735849" y="183.89622641509433" type="curve"/>
      <point x="269.24528301886795" y="183.89622641509433"/>
      <point x="245.38679245283018" y="180.58018867924528"/>
    </contour>
  </outline>
</glyph>
<glyph name="thorn" format="2">
  <advance width="600.0"/>
  <unicode hex="00FE"/>
  <outline>
    <contour>
      <point x="72.61792452830188" y="756.4386792452831" type="curve"/>
      <point x="81.61792452830188" y="724.3867924528302"/>
      <point x="84.74056603773585" y="700.7216981132076"/>
      <point x="84.74056603773585" y="661.5801886792452" type="curve" smooth="yes"/>
      <point x="84.74056603773585" y="467.78773584905656"/>
      <point x="84.74056603773585" y="87.41037735849056"/>
      <point x="84.74056603773585" y="-167.56603773584905" type="curve" smooth="yes"/>
      <point x="84.74056603773585" y="-205.77358490566039"/>
      <point x="115.08962264150944" y="-213.0188679245283"/>
      <point x="153.92924528301887" y="-213.0188679245283" type="curve" smooth="yes"/>
      <point x="167.5943396226415" y="-213.0188679245283"/>
      <point x="181.1367924528302" y="-211.89622641509436"/>
      <point x="190.87264150943398" y="-209.6509433962264" type="curve"/>
      <point x="190.87264150943398" y="-2.5424528301886866"/>
      <point x="190.87264150943398" y="419.2688679245283"/>
      <point x="190.87264150943398" y="630.0094339622642" type="curve" smooth="yes"/>
      <point x="190.87264150943398" y="722.3537735849056"/>
      <point x="151.9811320754717" y="760.0"/>
      <point x="100.96698113207547" y="760.0" type="curve"/>
      <point x="90.35377358490565" y="760.0"/>
      <point x="82.10849056603773" y="758.4386792452831"/>
    </contour>
    <contour>
      <point x="387.89150943396226" y="544.9811320754717" type="curve" smooth="yes"/>
      <point x="309.6981132075472" y="544.9811320754717"/>
      <point x="233.69811320754718" y="477.122641509434"/>
      <point x="198.18867924528303" y="380.1556603773585" type="curve"/>
      <point x="181.62735849056602" y="380.1556603773585" type="line"/>
      <point x="181.62735849056602" y="228.81132075471697" type="line"/>
      <point x="235.78773584905662" y="380.2877358490566"/>
      <point x="300.1745283018868" y="432.67452830188677"/>
      <point x="377.2264150943396" y="432.67452830188677" type="curve" smooth="yes"/>
      <point x="399.08962264150944" y="432.67452830188677"/>
      <point x="414.05660377358487" y="424.33962264150944"/>
      <point x="425.9528301886793" y="405.35377358490564" type="curve"/>
      <point x="433.70754716981133" y="381.5801886792453"/>
      <point x="435.7075471698113" y="354.1933962264151"/>
      <point x="435.7075471698113" y="316.14150943396226" type="curve" smooth="yes"/>
      <point x="435.7075471698113" y="306.0188679245283" type="line" smooth="yes"/>
      <point x="435.7075471698113" y="165.5566037735849"/>
      <point x="392.688679245283" y="91.64150943396227"/>
      <point x="302.8962264150943" y="91.64150943396227" type="curve" smooth="yes"/>
      <point x="247.61320754716982" y="91.64150943396227"/>
      <point x="214.9811320754717" y="112.22169811320757"/>
      <point x="178.25943396226415" y="152.69811320754718" type="curve"/>
      <point x="178.25943396226415" y="65.8066037735849" type="line"/>
      <point x="197.62735849056605" y="65.8066037735849" type="line"/>
      <point x="221.5754716981132" y="27.0"/>
      <point x="270.57547169811323" y="-11.122641509433961"/>
      <point x="331.1367924528302" y="-11.122641509433961" type="curve" smooth="yes"/>
      <point x="446.8066037735849" y="-11.122641509433961"/>
      <point x="544.6462264150944" y="86.75471698113208"/>
      <point x="544.6462264150944" y="318.49056603773585" type="curve" smooth="yes"/>
      <point x="544.6462264150944" y="338.29716981132077" type="line" smooth="yes"/>
      <point x="544.6462264150944" y="456.877358490566"/>
      <point x="475.10377358490564" y="544.9811320754717"/>
    </contour>
  </outline>
</glyph>
<glyph name="dcaron" format="2">
  <advance width="600.0"/>
  <unicode hex="010F"/>
  <outline>
    <contour>
      <point x="560.8962264150942" y="511.9858490566038" type="curve" smooth="yes"/>
      <point x="576.5094339622641" y="511.9858490566038"/>
      <point x="583.5094339622642" y="514.9858490566037"/>
      <point x="592.3160377358491" y="524.6698113207547" type="curve" smooth="yes"/>
      <point x="617.367924528302" y="552.3537735849058"/>
      <point x="633.0" y="616.7216981132076"/>
      <point x="632.9999999999999" y="670.3349056603773" type="curve" smooth="yes"/>
      <point x="632.9999999999999" y="702.877358490566"/>
      <point x="620.7547169811321" y="715.7358490566038"/>
      <point x="585.7924528301887" y="715.7358490566038" type="curve" smooth="yes"/>
      <point x="570.3018867924529" y="715.7358490566038"/>
      <point x="559.688679245283" y="713.7358490566038"/>
      <point x="543.7075471698114" y="708.4905660377359" type="curve"/>
      <point x="543.7075471698113" y="626.7028301886794"/>
      <point x="540.63679245283" y="587.7216981132075"/>
      <point x="529.2311320754717" y="519.1084905660377" type="curve"/>
      <point x="536.9150943396227" y="514.5471698113207"/>
      <point x="548.9669811320755" y="511.9858490566038"/>
    </contour>
    <contour>
      <point x="268.8632075471698" y="544.9811320754717" type="curve" smooth="yes"/>
      <point x="153.1933962264151" y="544.9811320754717"/>
      <point x="55.35377358490566" y="447.10377358490564"/>
      <point x="55.35377358490566" y="215.36792452830187" type="curve" smooth="yes"/>
      <point x="55.35377358490566" y="195.56132075471697" type="line" smooth="yes"/>
      <point x="55.35377358490566" y="76.98113207547169"/>
      <point x="124.89622641509433" y="-11.122641509433961"/>
      <point x="212.10849056603774" y="-11.122641509433961" type="curve" smooth="yes"/>
      <point x="281.4433962264151" y="-11.122641509433961"/>
      <point x="335.8820754716981" y="30.94811320754717"/>
      <point x="373.70754716981133" y="119.32075471698114" type="curve"/>
      <point x="403.98584905660374" y="119.32075471698114" type="line"/>
      <point x="403.98584905660374" y="305.0471698113207" type="line"/>
      <point x="350.2641509433962" y="144.79716981132077"/>
      <point x="298.5094339622642" y="101.18396226415095"/>
      <point x="220.58018867924528" y="101.18396226415095" type="curve" smooth="yes"/>
      <point x="200.78773584905662" y="101.18396226415095"/>
      <point x="184.50471698113208" y="109.0801886792453"/>
      <point x="172.04716981132077" y="126.31132075471697" type="curve" smooth="yes"/>
      <point x="165.7311320754717" y="153.2075471698113"/>
      <point x="164.29245283018867" y="180.47169811320757"/>
      <point x="164.29245283018867" y="217.71698113207546" type="curve" smooth="yes"/>
      <point x="164.29245283018867" y="227.83962264150944" type="line" smooth="yes"/>
      <point x="164.29245283018867" y="368.3018867924528"/>
      <point x="207.311320754717" y="442.2169811320755"/>
      <point x="297.10377358490564" y="442.2169811320755" type="curve" smooth="yes"/>
      <point x="338.94811320754724" y="442.2169811320755"/>
      <point x="374.03773584905656" y="422.5660377358491"/>
      <point x="403.98584905660374" y="381.16037735849056" type="curve"/>
      <point x="403.98584905660374" y="498.75" type="line"/>
      <point x="366.41037735849056" y="498.75" type="line"/>
      <point x="343.4622641509434" y="527.5943396226415"/>
      <point x="312.3207547169811" y="544.9811320754717"/>
    </contour>
    <contour>
      <point x="402.5471698113207" y="756.877358490566" type="curve"/>
      <point x="386.8820754716981" y="756.877358490566"/>
      <point x="371.90094339622635" y="754.7547169811321"/>
      <point x="361.28773584905656" y="752.1933962264151" type="curve"/>
      <point x="369.7264150943396" y="719.5801886792453"/>
      <point x="372.2877358490566" y="697.5990566037736"/>
      <point x="372.2877358490566" y="658.4575471698113" type="curve"/>
      <point x="372.2877358490566" y="466.75471698113205"/>
      <point x="372.2877358490566" y="315.1509433962264"/>
      <point x="372.2877358490566" y="149.83018867924528" type="curve"/>
      <point x="372.2877358490566" y="44.9433962264151"/>
      <point x="412.9339622641509" y="-4.0"/>
      <point x="462.193396226415" y="-4.0" type="curve" smooth="yes"/>
      <point x="471.68396226415086" y="-4.0"/>
      <point x="481.0518867924528" y="-3.0"/>
      <point x="490.5424528301886" y="-0.4386792452830188" type="curve"/>
      <point x="480.41981132075466" y="34.41981132075472"/>
      <point x="478.4198113207547" y="62.01415094339623"/>
      <point x="478.4198113207547" y="105.08490566037736" type="curve" smooth="yes"/>
      <point x="478.4198113207547" y="277.70283018867923"/>
      <point x="478.4198113207547" y="448.39150943396226"/>
      <point x="478.4198113207547" y="676.5801886792453" type="curve"/>
      <point x="478.4198113207547" y="730.7028301886793"/>
      <point x="451.2452830188679" y="756.877358490566"/>
    </contour>
  </outline>
</glyph>
<glyph name="dcroat" format="2">
  <advance width="600.0"/>
  <unicode hex="0111"/>
  <outline>
    <contour>
      <point x="211.83962264150944" y="675.9622641509434" type="line"/>
      <point x="211.83962264150944" y="672.4009433962265"/>
      <point x="211.83962264150944" y="668.4009433962265"/>
      <point x="211.83962264150944" y="664.2783018867925" type="curve" smooth="yes"/>
      <point x="211.83962264150944" y="614.7735849056604"/>
      <point x="220.7688679245283" y="599.5801886792453"/>
      <point x="247.188679245283" y="599.5801886792453" type="curve" smooth="yes"/>
      <point x="578.3679245283018" y="599.5801886792453" type="line"/>
      <point x="579.4905660377358" y="608.7547169811321"/>
      <point x="580.6132075471697" y="619.4905660377359"/>
      <point x="580.6132075471697" y="628.1037735849056" type="curve" smooth="yes"/>
      <point x="580.6132075471697" y="660.2075471698114"/>
      <point x="574.4905660377358" y="675.9622641509434"/>
      <point x="553.6839622641509" y="675.9622641509434" type="curve"/>
    </contour>
    <component base="d"/>
  </outline>
</glyph>
<glyph name="Hbar" format="2">
  <advance width="600.0"/>
  <unicode hex="0126"/>
  <outline>
    <contour>
      <point x="18.07075471698113" y="562.8018867924527" type="line"/>
      <point x="17.632075471698112" y="559.2405660377358"/>
      <point x="17.193396226415093" y="553.4858490566037"/>
      <point x="17.193396226415093" y="548.4858490566038" type="curve" smooth="yes"/>
      <point x="17.193396226415093" y="495.85849056603774"/>
      <point x="27.43867924528302" y="483.6132075471698"/>
      <point x="56.490566037735846" y="483.6132075471698" type="curve" smooth="yes"/>
      <point x="579.683962264151" y="483.6132075471698" type="line"/>
      <point x="581.2452830188679" y="492.7877358490566"/>
      <point x="582.8066037735849" y="505.27830188679246"/>
      <point x="582.8066037735849" y="514.7688679245283" type="curve" smooth="yes"/>
      <point x="582.8066037735849" y="549.995283018868"/>
      <point x="572.5613207547169" y="562.8018867924527"/>
      <point x="540.7028301886793" y="562.8018867924527" type="curve"/>
    </contour>
    <component base="H"/>
  </outline>
</glyph>
<glyph name="kgreenlandic" format="2">
  <advance width="600.0"/>
  <unicode hex="0138"/>
  <outline>
    <contour>
      <point x="194.9056603773585" y="-2.632075471698113" type="curve"/>
      <point x="194.9056603773585" y="444.52830188679246" type="line" smooth="yes"/>
      <point x="194.9056603773585" y="485.561320754717"/>
      <point x="190.0990566037736" y="504.1933962264151"/>
      <point x="173.60849056603774" y="520.683962264151" type="curve" smooth="yes"/>
      <point x="156.87264150943398" y="537.4198113207548"/>
      <point x="123.98113207547169" y="542.2264150943396"/>
      <point x="101.63207547169812" y="542.2264150943396" type="curve" smooth="yes"/>
      <point x="91.58018867924528" y="542.2264150943396"/>
      <point x="81.08962264150944" y="541.2264150943396"/>
      <point x="71.0377358490566" y="538.6650943396227" type="curve"/>
      <point x="80.0377358490566" y="506.6132075471698"/>
      <point x="83.16037735849056" y="483.50943396226415"/>
      <point x="83.16037735849056" y="441.0" type="curve" smooth="yes"/>
      <point x="83.16037735849056" y="38.89150943396227" type="line" smooth="yes"/>
      <point x="83.16037735849056" y="0.6839622641509435"/>
      <point x="116.31603773584906" y="-6.0"/>
      <point x="157.96226415094338" y="-6.0" type="curve" smooth="yes"/>
      <point x="172.18867924528303" y="-6.0"/>
      <point x="185.16981132075472" y="-4.877358490566038"/>
    </contour>
    <contour>
      <point x="426.688679245283" y="543.2264150943396" type="line"/>
      <point x="361.70283018867923" y="374.50471698113205"/>
      <point x="256.33490566037733" y="292.7311320754717"/>
      <point x="121.63207547169812" y="247.75" type="curve"/>
      <point x="160.4009433962264" y="175.12264150943398" type="line"/>
      <point x="300.10377358490564" y="203.26415094339623"/>
      <point x="439.8018867924529" y="306.3867924528302"/>
      <point x="515.8915094339623" y="459.127358490566" type="curve" smooth="yes"/>
      <point x="527.627358490566" y="482.5990566037736"/>
      <point x="529.5047169811321" y="492.40566037735846"/>
      <point x="529.5047169811321" y="502.0188679245283" type="curve" smooth="yes"/>
      <point x="529.5047169811321" y="523.3679245283018"/>
      <point x="493.0707547169811" y="543.2264150943396"/>
      <point x="444.5471698113207" y="543.2264150943396" type="curve"/>
    </contour>
    <contour>
      <point x="507.1084905660377" y="-10.0" type="curve" smooth="yes"/>
      <point x="537.1226415094341" y="-10.0"/>
      <point x="553.6650943396227" y="-5.632075471698113"/>
      <point x="569.8915094339623" y="7.033018867924529" type="curve"/>
      <point x="478.89150943396226" y="89.91037735849056"/>
      <point x="398.6981132075472" y="194.4009433962264"/>
      <point x="336.188679245283" y="307.6981132075472" type="curve"/>
      <point x="265.0188679245283" y="236.8254716981132" type="line"/>
      <point x="303.2311320754717" y="157.26415094339623"/>
      <point x="372.6179245283019" y="64.26415094339623"/>
      <point x="413.0235849056604" y="23.858490566037737" type="curve" smooth="yes"/>
      <point x="438.07547169811323" y="-1.1933962264150941"/>
      <point x="464.127358490566" y="-10.0"/>
    </contour>
  </outline>
</glyph>
<glyph name="Ldot" format="2">
  <advance width="600.0"/>
  <unicode hex="013F"/>
  <outline>
    <contour>
      <point x="353.70283018867923" y="462.33018867924534" type="curve"/>
      <point x="353.70283018867923" y="386.19339622641513" type="line" smooth="yes"/>
      <point x="353.70283018867923" y="346.2311320754717"/>
      <point x="385.05188679245276" y="336.0377358490566"/>
      <point x="427.2783018867924" y="336.0377358490566" type="curve" smooth="yes"/>
      <point x="446.3301886792453" y="336.0377358490566"/>
      <point x="468.43396226415086" y="337.5990566037736"/>
      <point x="486.4150943396226" y="340.7216981132076" type="curve"/>
      <point x="486.4150943396226" y="416.85849056603774" type="line" smooth="yes"/>
      <point x="486.4150943396226" y="456.82075471698124"/>
      <point x="455.50471698113205" y="467.0141509433963"/>
      <point x="412.83962264150944" y="467.0141509433963" type="curve"/>
      <point x="393.7877358490565" y="467.0141509433963"/>
      <point x="371.6839622641509" y="465.4528301886793"/>
    </contour>
    <component base="L"/>
  </outline>
</glyph>
<glyph name="eng" format="2">
  <advance width="600.0"/>
  <unicode hex="014B"/>
  <outline>
    <contour>
      <point x="312.70283018867923" y="-143.8679245283019" type="curve" smooth="yes"/>
      <point x="248.65094339622644" y="-143.8679245283019"/>
      <point x="212.5990566037736" y="-134.62264150943395"/>
      <point x="170.28301886792454" y="-112.23584905660377" type="curve"/>
      <point x="166.2830188679245" y="-112.23584905660377" type="line"/>
      <point x="164.16037735849056" y="-121.16509433962264"/>
      <point x="163.16037735849056" y="-131.8490566037736"/>
      <point x="163.16037735849056" y="-142.77830188679246" type="curve" smooth="yes"/>
      <point x="163.16037735849056" y="-173.61792452830187"/>
      <point x="170.6509433962264" y="-204.26415094339623"/>
      <point x="185.50943396226413" y="-219.12264150943398" type="curve" smooth="yes"/>
      <point x="202.94811320754715" y="-236.56132075471697"/>
      <point x="246.01886792452828" y="-250.0"/>
      <point x="307.19339622641513" y="-250.0" type="curve" smooth="yes"/>
      <point x="441.14150943396226" y="-250.0"/>
      <point x="516.2783018867925" y="-167.85849056603774"/>
      <point x="516.2783018867925" y="-55.174528301886795" type="curve" smooth="yes"/>
      <point x="516.2783018867925" y="-42.10377358490566"/>
      <point x="516.2783018867925" y="-29.174528301886795"/>
      <point x="516.2783018867925" y="0.0" type="curve"/>
      <point x="434.49528301886795" y="23.419811320754718" type="line"/>
      <point x="434.49528301886795" y="-110.14622641509433"/>
      <point x="389.74056603773585" y="-143.8679245283019"/>
    </contour>
    <contour>
      <point x="400.25943396226415" y="545.4198113207547" type="curve" smooth="yes"/>
      <point x="316.8207547169811" y="545.4198113207547"/>
      <point x="241.87264150943398" y="468.3490566037736"/>
      <point x="197.53773584905662" y="365.20754716981133" type="curve"/>
      <point x="173.9245283018868" y="365.20754716981133" type="line"/>
      <point x="175.24056603773585" y="176.35849056603774" type="line"/>
      <point x="226.04716981132074" y="345.28301886792457"/>
      <point x="295.7877358490566" y="429.7452830188679"/>
      <point x="368.2641509433962" y="429.7452830188679" type="curve" smooth="yes"/>
      <point x="394.1792452830188" y="429.7452830188679"/>
      <point x="411.6367924528302" y="413.0235849056604"/>
      <point x="424.2688679245283" y="380.8962264150943" type="curve" smooth="yes"/>
      <point x="408.4622641509434" y="281.17452830188677"/>
      <point x="400.2877358490566" y="212.21226415094338"/>
      <point x="400.2877358490566" y="107.50471698113208" type="curve" smooth="yes"/>
      <point x="400.2877358490566" y="16.297169811320757"/>
      <point x="429.811320754717" y="-4.245283018867925"/>
      <point x="488.9292452830189" y="-4.245283018867925" type="curve" smooth="yes"/>
      <point x="500.66509433962267" y="-4.245283018867925"/>
      <point x="508.47169811320754" y="-2.1226415094339623"/>
      <point x="516.2783018867925" y="0.0" type="curve"/>
      <point x="516.2783018867925" y="50.9811320754717"/>
      <point x="516.2783018867925" y="87.10377358490567"/>
      <point x="516.2783018867925" y="143.64622641509433" type="curve" smooth="yes"/>
      <point x="516.2783018867925" y="225.66509433962264"/>
      <point x="516.2783018867925" y="307.6839622641509"/>
      <point x="516.2783018867925" y="389.70283018867923" type="curve" smooth="yes"/>
      <point x="516.2783018867925" y="465.82547169811323"/>
      <point x="467.47169811320754" y="545.4198113207547"/>
    </contour>
    <contour>
      <point x="97.14150943396226" y="539.8584905660377" type="curve" smooth="yes"/>
      <point x="86.52830188679246" y="539.8584905660377"/>
      <point x="75.47641509433961" y="537.7358490566038"/>
      <point x="64.86320754716981" y="535.1745283018868" type="curve"/>
      <point x="76.66981132075472" y="509.85849056603774"/>
      <point x="80.91509433962264" y="480.5801886792453"/>
      <point x="80.91509433962264" y="441.438679245283" type="curve" smooth="yes"/>
      <point x="80.91509433962264" y="317.27830188679246"/>
      <point x="80.91509433962264" y="194.36320754716982"/>
      <point x="80.91509433962264" y="57.85377358490566" type="curve" smooth="yes"/>
      <point x="80.91509433962264" y="19.08490566037736"/>
      <point x="102.28301886792453" y="-3.8773584905660377"/>
      <point x="157.96226415094338" y="-3.8773584905660377" type="curve" smooth="yes"/>
      <point x="167.69811320754718" y="-3.8773584905660377"/>
      <point x="180.1179245283019" y="-3.8773584905660377"/>
      <point x="191.53773584905662" y="-2.193396226415094" type="curve"/>
      <point x="191.53773584905662" y="124.17924528301886"/>
      <point x="191.53773584905662" y="268.63679245283015"/>
      <point x="191.53773584905662" y="408.4811320754717" type="curve" smooth="yes"/>
      <point x="191.53773584905662" y="507.3160377358491"/>
      <point x="150.27830188679246" y="539.8584905660377"/>
    </contour>
  </outline>
</glyph>
<glyph name="oe" format="2">
  <advance width="600.0"/>
  <unicode hex="0153"/>
  <outline>
    <contour>
      <point x="188.75471698113208" y="544.9811320754717" type="curve" smooth="yes"/>
      <point x="88.91509433962264" y="544.9811320754717"/>
      <point x="23.77358490566038" y="428.56132075471703"/>
      <point x="23.77358490566038" y="236.85849056603777" type="curve" smooth="yes"/>
      <point x="23.77358490566038" y="216.41981132075472" type="line" smooth="yes"/>
      <point x="23.77358490566038" y="72.24528301886792"/>
      <point x="81.14150943396227" y="-11.122641509433961"/>
      <point x="179.92924528301887" y="-11.122641509433961" type="curve" smooth="yes"/>
      <point x="236.68396226415095" y="-11.122641509433961"/>
      <point x="283.877358490566" y="31.77358490566038"/>
      <point x="308.3679245283019" y="99.8632075471698" type="curve"/>
      <point x="291.19339622641513" y="99.86320754716981" type="line"/>
      <point x="315.683962264151" y="30.896226415094336"/>
      <point x="366.56132075471703" y="-11.122641509433961"/>
      <point x="440.75471698113205" y="-11.122641509433961" type="curve" smooth="yes"/>
      <point x="495.5801886792454" y="-11.122641509433961"/>
      <point x="536.0" y="-0.9292452830188687"/>
      <point x="556.2452830188679" y="17.632075471698112" type="curve" smooth="yes"/>
      <point x="564.2452830188679" y="25.07075471698113"/>
      <point x="574.9811320754717" y="38.632075471698116"/>
      <point x="574.9811320754717" y="70.03301886792454" type="curve"/>
      <point x="574.9811320754717" y="85.45283018867924"/>
      <point x="573.4198113207547" y="96.94339622641509"/>
      <point x="569.7358490566038" y="109.24056603773585" type="curve"/>
      <point x="565.7358490566038" y="109.24056603773585" type="line"/>
      <point x="531.0" y="86.04716981132076"/>
      <point x="498.6320754716981" y="76.29245283018868"/>
      <point x="444.561320754717" y="76.29245283018868" type="curve" smooth="yes"/>
      <point x="421.87735849056605" y="76.29245283018868"/>
      <point x="404.31603773584914" y="78.85377358490565"/>
      <point x="387.75471698113205" y="86.41509433962266" type="curve" smooth="yes"/>
      <point x="361.2264150943396" y="114.16981132075472"/>
      <point x="344.64622641509436" y="159.1367924528302"/>
      <point x="344.64622641509436" y="216.49056603773585" type="curve"/>
      <point x="344.64622641509436" y="302.24528301886795" type="line" smooth="yes"/>
      <point x="344.64622641509436" y="412.50943396226415"/>
      <point x="372.54245283018867" y="457.00471698113205"/>
      <point x="426.38679245283015" y="457.00471698113205" type="curve" smooth="yes"/>
      <point x="440.14150943396226" y="457.00471698113205"/>
      <point x="451.1415094339622" y="455.0047169811321"/>
      <point x="461.7028301886793" y="450.44339622641513" type="curve" smooth="yes"/>
      <point x="480.1084905660377" y="429.933962264151"/>
      <point x="486.933962264151" y="398.28301886792457"/>
      <point x="486.933962264151" y="366.0707547169811" type="curve" smooth="yes"/>
      <point x="486.933962264151" y="357.9481132075472" type="line"/>
      <point x="486.9339622641509" y="300.4009433962264"/>
      <point x="464.7924528301886" y="277.5047169811321"/>
      <point x="415.7547169811321" y="277.5047169811321" type="curve" smooth="yes"/>
      <point x="377.49056603773585" y="277.5047169811321"/>
      <point x="353.66509433962267" y="280.94339622641513"/>
      <point x="315.4009433962264" y="294.25943396226415" type="curve"/>
      <point x="315.4009433962264" y="230.24528301886792" type="line"/>
      <point x="329.0849056603774" y="230.24528301886792" type="line"/>
      <point x="341.89150943396226" y="217.43867924528303"/>
      <point x="373.4009433962264" y="206.3679245283019"/>
      <point x="428.63207547169816" y="206.3679245283019" type="curve" smooth="yes"/>
      <point x="521.6132075471698" y="206.3679245283019"/>
      <point x="576.2264150943396" y="257.8254716981132"/>
      <point x="576.2264150943396" y="353.82547169811323" type="curve" smooth="yes"/>
      <point x="576.2264150943396" y="366.8254716981132" type="line" smooth="yes"/>
      <point x="576.2264150943396" y="473.2971698113207"/>
      <point x="511.7547169811321" y="544.9811320754717"/>
      <point x="425.5801886792452" y="544.9811320754717" type="curve" smooth="yes"/>
      <point x="364.9481132075472" y="544.9811320754717"/>
      <point x="317.56132075471703" y="502.89150943396226"/>
      <point x="293.7547169811321" y="428.92452830188677" type="curve"/>
      <point x="308.0" y="428.9245283018868" type="line"/>
      <point x="285.82547169811323" y="503.01415094339626"/>
      <point x="244.26415094339626" y="544.9811320754717"/>
    </contour>
    <contour>
      <point x="113.06603773584905" y="219.73584905660377" type="curve" smooth="yes"/>
      <point x="113.06603773584905" y="234.2971698113207" type="line" smooth="yes"/>
      <point x="113.06603773584905" y="390.1933962264151"/>
      <point x="146.47169811320757" y="457.0047169811321"/>
      <point x="191.12264150943398" y="457.0047169811321" type="curve" smooth="yes"/>
      <point x="200.8066037735849" y="457.0047169811321"/>
      <point x="208.9292452830189" y="455.4433962264151"/>
      <point x="215.49056603773585" y="452.75943396226415" type="curve" smooth="yes"/>
      <point x="241.4575471698113" y="423.3915094339623"/>
      <point x="255.35377358490567" y="365.75943396226415"/>
      <point x="255.35377358490567" y="272.37264150943395" type="curve" smooth="yes"/>
      <point x="255.35377358490567" y="224.4009433962264" type="line" smooth="yes"/>
      <point x="255.35377358490567" y="128.85849056603774"/>
      <point x="230.58018867924525" y="76.85377358490567"/>
      <point x="181.80660377358487" y="76.85377358490567" type="curve" smooth="yes"/>
      <point x="168.6132075471698" y="76.85377358490567"/>
      <point x="157.2971698113208" y="78.85377358490565"/>
      <point x="146.54245283018867" y="84.85377358490567" type="curve"/>
      <point x="124.01415094339623" y="111.60849056603774"/>
      <point x="113.06603773584905" y="156.82075471698113"/>
    </contour>
  </outline>
</glyph>
<glyph name="dotaccentcomb" format="2">
  <unicode hex="0307"/>
  <anchor x="0.0" y="542.8584905660377" name="_top"/>
  <anchor x="0.0" y="702.0188679245283" name="_dot"/>
  <anchor x="0.0" y="0.0" name="bottom"/>
  <anchor x="81.16981132075472" y="-2.0" name="ogonek"/>
  <anchor x="0.0" y="716.5896226415094" name="top"/>
  <outline>
    <contour>
      <point x="-75.9245283018868" y="752.561320754717" type="curve"/>
      <point x="-75.9245283018868" y="698.316037735849" type="line" smooth="yes"/>
      <point x="-75.9245283018868" y="658.3537735849056"/>
      <point x="-39.52358490566037" y="633.566037735849"/>
      <point x="13.367924528301888" y="633.566037735849" type="curve" smooth="yes"/>
      <point x="36.59433962264151" y="633.566037735849"/>
      <point x="58.382075471698116" y="637.372641509434"/>
      <point x="75.9245283018868" y="644.4245283018868" type="curve"/>
      <point x="75.9245283018868" y="707.6509433962265" type="line" smooth="yes"/>
      <point x="75.9245283018868" y="747.6132075471698"/>
      <point x="42.7688679245283" y="763.4198113207548"/>
      <point x="-6.632075471698112" y="763.4198113207548" type="curve" smooth="yes"/>
      <point x="-31.54245283018868" y="763.4198113207548"/>
      <point x="-58.382075471698116" y="759.0518867924528"/>
    </contour>
  </outline>
</glyph>
<glyph name="dieresiscomb" format="2">
  <unicode hex="0308"/>
  <anchor x="0.0" y="542.8584905660377" name="_top"/>
  <anchor x="0.0" y="744.3867924528303" name="top"/>
  <outline>
    <contour>
      <point x="-166.9433962264151" y="760.4198113207548" type="curve"/>
      <point x="-166.9433962264151" y="677.5471698113207" type="line" smooth="yes"/>
      <point x="-166.9433962264151" y="643.1981132075472"/>
      <point x="-131.10377358490567" y="633.566037735849"/>
      <point x="-93.92924528301887" y="633.566037735849" type="curve" smooth="yes"/>
      <point x="-78.0" y="633.566037735849"/>
      <point x="-59.580188679245275" y="634.0047169811321"/>
      <point x="-44.283018867924525" y="637.127358490566" type="curve"/>
      <point x="-44.283018867924525" y="720.561320754717" type="line" smooth="yes"/>
      <point x="-44.283018867924525" y="754.9103773584906"/>
      <point x="-79.68396226415095" y="763.4198113207548"/>
      <point x="-117.85849056603773" y="763.4198113207548" type="curve" smooth="yes"/>
      <point x="-133.22641509433961" y="763.4198113207548"/>
      <point x="-151.64622641509433" y="762.4198113207548"/>
    </contour>
    <contour>
      <point x="44.283018867924525" y="760.4198113207548" type="curve"/>
      <point x="44.283018867924525" y="677.5471698113207" type="line" smooth="yes"/>
      <point x="44.283018867924525" y="643.1981132075472"/>
      <point x="80.12264150943396" y="633.566037735849"/>
      <point x="117.29716981132076" y="633.566037735849" type="curve" smooth="yes"/>
      <point x="133.22641509433961" y="633.566037735849"/>
      <point x="151.64622641509433" y="634.0047169811321"/>
      <point x="166.9433962264151" y="637.127358490566" type="curve"/>
      <point x="166.9433962264151" y="720.561320754717" type="line" smooth="yes"/>
      <point x="166.9433962264151" y="754.9103773584906"/>
      <point x="131.5424528301887" y="763.4198113207548"/>
      <point x="93.3679245283019" y="763.4198113207548" type="curve" smooth="yes"/>
      <point x="78.0" y="763.4198113207548"/>
      <point x="59.580188679245275" y="762.4198113207548"/>
    </contour>
  </outline>
</glyph>
<glyph name="dotbelowcomb" format="2">
  <unicode hex="0323"/>
  <anchor x="0.0" y="-11.0" name="_bottom"/>
  <anchor x="0.0" y="-143.8066037735849" name="_dot"/>
  <outline>
    <contour>
      <point x="-70.31132075471697" y="-86.52830188679245" type="curve"/>
      <point x="-70.31132075471697" y="-155.92924528301887" type="line" smooth="yes"/>
      <point x="-70.31132075471697" y="-195.89150943396226"/>
      <point x="-34.47169811320755" y="-206.08490566037736"/>
      <point x="13.367924528301888" y="-206.08490566037736" type="curve" smooth="yes"/>
      <point x="31.54245283018868" y="-206.08490566037736"/>
      <point x="52.7688679245283" y="-204.52358490566039"/>
      <point x="70.31132075471697" y="-201.4009433962264" type="curve"/>
      <point x="70.31132075471697" y="-132.0" type="line" smooth="yes"/>
      <point x="70.31132075471697" y="-92.0377358490566"/>
      <point x="34.910377358490564" y="-81.84433962264151"/>
      <point x="-13.367924528301888" y="-81.84433962264151" type="curve" smooth="yes"/>
      <point x="-31.54245283018868" y="-81.84433962264151"/>
      <point x="-52.7688679245283" y="-83.40566037735849"/>
    </contour>
  </outline>
</glyph>
<glyph name="foursuperior" format="2">
  <advance width="600.0"/>
  <unicode hex="2074"/>
  <outline>
    <contour>
      <point x="395.10377358490564" y="373.82547169811323" type="curve"/>
      <point x="391.10377358490564" y="388.0188679245283"/>
      <point x="388.9811320754717" y="404.3867924528302"/>
      <point x="388.9811320754717" y="428.3867924528302" type="curve" smooth="yes"/>
      <point x="388.9811320754717" y="579.5283018867924" type="line"/>
      <point x="388.9811320754717" y="597.8962264150944"/>
      <point x="369.4198113207547" y="615.1933962264151"/>
      <point x="340.8254716981132" y="615.1933962264151" type="curve"/>
      <point x="336.14150943396226" y="615.1933962264151" type="line"/>
      <point x="319.52830188679246" y="579.1933962264151"/>
      <point x="316.28301886792457" y="539.8254716981132"/>
      <point x="316.28301886792457" y="497.82547169811323" type="curve" smooth="yes"/>
      <point x="316.28301886792457" y="408.6839622641509" type="line" smooth="yes"/>
      <point x="316.28301886792457" y="379.3867924528302"/>
      <point x="326.08962264150944" y="370.3867924528302"/>
      <point x="357.561320754717" y="370.3867924528302" type="curve" smooth="yes"/>
      <point x="373.7358490566038" y="370.3867924528302"/>
      <point x="384.85849056603774" y="371.3867924528302"/>
    </contour>
    <contour>
      <point x="438.683962264151" y="445.6509433962264" type="line"/>
      <point x="441.683962264151" y="455.3349056603774"/>
      <point x="443.683962264151" y="465.5801886792453"/>
      <point x="443.683962264151" y="479.0707547169811" type="curve" smooth="yes"/>
      <point x="443.683962264151" y="502.49056603773585"/>
      <point x="436.683962264151" y="518.3490566037736"/>
      <point x="413.3160377358491" y="518.3490566037736" type="curve"/>
      <point x="312.0518867924528" y="518.3490566037736" type="line" smooth="yes"/>
      <point x="270.0518867924528" y="518.3490566037736"/>
      <point x="226.29716981132074" y="514.2264150943396"/>
      <point x="178.29716981132074" y="504.2264150943396" type="curve"/>
      <point x="208.29716981132074" y="484.49056603773585" type="line"/>
      <point x="208.29716981132074" y="543.8396226415094" type="line"/>
      <point x="198.05188679245282" y="483.7877358490566" type="line"/>
      <point x="225.85849056603774" y="576.7547169811321"/>
      <point x="274.66509433962267" y="659.561320754717"/>
      <point x="348.47169811320754" y="708.561320754717" type="curve"/>
      <point x="348.47169811320754" y="713.683962264151" type="line"/>
      <point x="331.85849056603774" y="727.1745283018869"/>
      <point x="308.3160377358491" y="734.5424528301887"/>
      <point x="287.3349056603774" y="734.5424528301887" type="curve" smooth="yes"/>
      <point x="264.3537735849057" y="734.5424528301887"/>
      <point x="246.54716981132077" y="727.4198113207548"/>
      <point x="225.61792452830187" y="703.683962264151" type="curve" smooth="yes"/>
      <point x="185.0566037735849" y="660.1933962264151"/>
      <point x="141.91509433962264" y="554.8066037735849"/>
      <point x="141.91509433962264" y="505.87735849056605" type="curve" smooth="yes"/>
      <point x="141.91509433962264" y="501.87735849056605" type="line" smooth="yes"/>
      <point x="141.91509433962264" y="476.87735849056605"/>
      <point x="161.4056603773585" y="445.6509433962264"/>
      <point x="184.14150943396228" y="445.6509433962264" type="curve" smooth="yes"/>
    </contour>
  </outline>
</glyph>
<glyph name="rupee" format="2">
  <advance width="600.0"/>
  <unicode hex="20A8"/>
  <outline>
    <contour>
      <point x="18.0" y="700.0" type="curve"/>
      <point x="16.87735849056604" y="688.5801886792452"/>
      <point x="16.316037735849058" y="677.2830188679245"/>
      <point x="16.316037735849058" y="663.6179245283018" type="curve" smooth="yes"/>
      <point x="16.316037735849058" y="609.4292452830189"/>
      <point x="27.56132075471698" y="593.8679245283018"/>
      <point x="50.85849056603773" y="593.8679245283018" type="curve" smooth="yes"/>
      <point x="75.85849056603774" y="593.8679245283018"/>
      <point x="112.66509433962264" y="613.8679245283018"/>
      <point x="159.80660377358492" y="613.8679245283018" type="curve" smooth="yes"/>
      <point x="194.43867924528303" y="613.8679245283018"/>
      <point x="216.43867924528303" y="609.5518867924528"/>
      <point x="229.43867924528303" y="602.2358490566038" type="curve"/>
      <point x="242.77358490566039" y="571.6745283018869"/>
      <point x="247.08962264150944" y="527.5"/>
      <point x="247.08962264150944" y="464.7783018867924" type="curve" smooth="yes"/>
      <point x="247.08962264150944" y="444.60377358490564" type="line" smooth="yes"/>
      <point x="247.08962264150944" y="327.6132075471698"/>
      <point x="220.0" y="286.60849056603774"/>
      <point x="164.5566037735849" y="286.60849056603774" type="curve" smooth="yes"/>
      <point x="147.87264150943398" y="286.60849056603774"/>
      <point x="132.87264150943395" y="288.60849056603774"/>
      <point x="117.24056603773586" y="294.4858490566038" type="curve"/>
      <point x="117.24056603773586" y="213.6320754716981" type="line"/>
      <point x="139.04716981132077" y="213.6320754716981" type="line"/>
      <point x="152.48584905660377" y="199.50943396226415"/>
      <point x="170.60849056603774" y="194.38679245283018"/>
      <point x="197.41509433962264" y="194.38679245283018" type="curve" smooth="yes"/>
      <point x="264.25943396226415" y="194.38679245283018"/>
      <point x="323.4716981132076" y="255.2688679245283"/>
      <point x="323.4716981132076" y="455.8820754716981" type="curve" smooth="yes"/>
      <point x="323.4716981132076" y="499.5283018867924" type="line" smooth="yes"/>
      <point x="323.4716981132076" y="650.8254716981132"/>
      <point x="275.4198113207547" y="720.0"/>
      <point x="147.87735849056605" y="720.0" type="curve" smooth="yes"/>
      <point x="94.50943396226415" y="720.0"/>
      <point x="55.43867924528302" y="713.122641509434"/>
    </contour>
    <contour>
      <point x="114.67924528301887" y="692.5424528301887" type="line"/>
      <point x="46.68396226415094" y="692.5424528301887" type="line"/>
      <point x="46.68396226415094" y="507.1698113207547"/>
      <point x="46.68396226415094" y="260.7358490566038"/>
      <point x="46.68396226415094" y="57.9622641509434" type="curve" smooth="yes"/>
      <point x="46.68396226415094" y="10.683962264150944"/>
      <point x="61.41981132075472" y="-6.438679245283019"/>
      <point x="95.89150943396227" y="-6.438679245283019" type="curve" smooth="yes"/>
      <point x="114.75" y="-6.438679245283019"/>
      <point x="127.80188679245283" y="-4.877358490566038"/>
      <point x="138.60849056603774" y="-1.3160377358490565" type="curve"/>
      <point x="133.60849056603774" y="24.419811320754718"/>
      <point x="132.60849056603774" y="50.52358490566038"/>
      <point x="132.60849056603774" y="88.98113207547169" type="curve" smooth="yes"/>
      <point x="132.60849056603774" y="236.0377358490566"/>
      <point x="132.60849056603774" y="386.35849056603774"/>
      <point x="132.60849056603774" y="527.7122641509434" type="curve" smooth="yes"/>
      <point x="132.60849056603774" y="560.622641509434"/>
      <point x="130.60849056603774" y="580.2358490566038"/>
      <point x="114.67924528301887" y="601.4811320754717" type="curve"/>
    </contour>
    <contour>
      <point x="410.9811320754717" y="-15.50943396226415" type="curve" smooth="yes"/>
      <point x="521.0330188679245" y="-15.50943396226415"/>
      <point x="582.316037735849" y="34.490566037735846"/>
      <point x="582.316037735849" y="127.68396226415095" type="curve" smooth="yes"/>
      <point x="582.316037735849" y="200.66509433962264"/>
      <point x="564.8066037735849" y="240.9622641509434"/>
      <point x="506.89150943396226" y="275.1556603773585" type="curve" smooth="yes"/>
      <point x="487.89150943396226" y="286.9622641509434" type="line" smooth="yes"/>
      <point x="437.13679245283015" y="318.1367924528302"/>
      <point x="423.99528301886795" y="335.64622641509436"/>
      <point x="423.99528301886795" y="373.63207547169816" type="curve" smooth="yes"/>
      <point x="423.99528301886795" y="411.42452830188677"/>
      <point x="447.89150943396226" y="440.1650943396226"/>
      <point x="488.24528301886795" y="440.1650943396226" type="curve" smooth="yes"/>
      <point x="517.122641509434" y="440.1650943396226"/>
      <point x="537.122641509434" y="434.1650943396226"/>
      <point x="557.2452830188679" y="419.2877358490566" type="curve"/>
      <point x="563.2452830188679" y="419.2877358490566" type="line"/>
      <point x="566.3679245283018" y="430.4622641509434"/>
      <point x="568.4905660377358" y="441.6367924528302"/>
      <point x="568.4905660377358" y="459.98584905660374" type="curve" smooth="yes"/>
      <point x="568.4905660377358" y="481.2830188679245"/>
      <point x="565.9292452830189" y="500.14150943396226"/>
      <point x="555.367924528302" y="515.7547169811321" type="curve" smooth="yes"/>
      <point x="543.4905660377359" y="532.122641509434"/>
      <point x="521.9292452830189" y="546.2971698113207"/>
      <point x="480.5801886792453" y="546.2971698113207" type="curve" smooth="yes"/>
      <point x="397.0707547169811" y="546.2971698113207"/>
      <point x="350.7358490566038" y="481.20754716981133"/>
      <point x="350.7358490566038" y="384.91037735849056" type="curve" smooth="yes"/>
      <point x="350.7358490566038" y="308.85849056603774"/>
      <point x="371.1933962264151" y="275.7877358490566"/>
      <point x="423.1084905660377" y="244.1556603773585" type="curve" smooth="yes"/>
      <point x="450.372641509434" y="227.1556603773585" type="line" smooth="yes"/>
      <point x="490.1981132075472" y="201.91037735849056"/>
      <point x="502.5660377358491" y="173.56132075471697"/>
      <point x="503.8820754716981" y="135.78773584905662" type="curve" smooth="yes"/>
      <point x="491.70754716981133" y="103.22169811320755"/>
      <point x="461.05660377358487" y="87.81603773584906"/>
      <point x="407.561320754717" y="87.81603773584906" type="curve" smooth="yes"/>
      <point x="349.0707547169811" y="87.81603773584906"/>
      <point x="317.877358490566" y="101.8679245283019"/>
      <point x="286.7358490566038" y="150.1132075471698" type="curve" smooth="yes"/>
      <point x="264.9622641509434" y="181.81603773584905"/>
      <point x="249.45283018867926" y="220.46698113207546"/>
      <point x="235.25943396226415" y="268.311320754717" type="curve"/>
      <point x="183.1556603773585" y="261.2924528301887" type="line"/>
      <point x="198.41981132075472" y="191.7311320754717"/>
      <point x="217.3490566037736" y="115.1556603773585"/>
      <point x="246.85849056603772" y="64.22641509433961" type="curve" smooth="yes"/>
      <point x="280.0518867924528" y="6.806603773584905"/>
      <point x="323.87735849056605" y="-15.50943396226415"/>
    </contour>
  </outline>
</glyph>
<glyph name="bitcoin" format="2">
  <advance width="600.0"/>
  <unicode hex="20BF"/>
  <outline>
    <contour>
      <point x="161.91509433962264" y="5.471698113207548" type="line"/>
      <point x="145.61792452830187" y="-32.825471698113205"/>
      <point x="138.0566037735849" y="-70.45754716981132"/>
      <point x="138.0566037735849" y="-98.43867924528303" type="curve" smooth="yes"/>
      <point x="138.0566037735849" y="-124.1745283018868"/>
      <point x="151.35377358490564" y="-133.9811320754717"/>
      <point x="184.6509433962264" y="-133.9811320754717" type="curve" smooth="yes"/>
      <point x="202.6320754716981" y="-133.9811320754717"/>
      <point x="213.80660377358492" y="-132.41981132075472"/>
      <point x="224.5424528301887" y="-129.73584905660377" type="curve"/>
      <point x="224.5424528301887" y="-90.70283018867924"/>
      <point x="231.91037735849056" y="-8.283018867924525"/>
      <point x="240.1556603773585" y="49.69811320754717" type="curve"/>
      <point x="161.91509433962264" y="49.69811320754717" type="line"/>
    </contour>
    <contour>
      <point x="274.4009433962264" y="726.0" type="line"/>
      <point x="281.9622641509434" y="750.2641509433962"/>
      <point x="285.52358490566036" y="777.0377358490566"/>
      <point x="285.52358490566036" y="795.8443396226414" type="curve" smooth="yes"/>
      <point x="285.52358490566036" y="822.7028301886792"/>
      <point x="268.2264150943396" y="831.632075471698"/>
      <point x="236.56132075471697" y="831.632075471698" type="curve"/>
      <point x="221.26415094339623" y="831.632075471698"/>
      <point x="206.52830188679243" y="830.0707547169811"/>
      <point x="196.2311320754717" y="827.3867924528302" type="curve"/>
      <point x="196.2311320754717" y="777.1981132075472"/>
      <point x="194.91509433962264" y="697.7594339622641"/>
      <point x="185.10849056603772" y="643.4622641509434" type="curve"/>
      <point x="274.4009433962264" y="643.4622641509434" type="line"/>
    </contour>
    <contour>
      <point x="313.0377358490566" y="-14.683962264150942" type="line"/>
      <point x="303.6698113207547" y="-47.61320754716981"/>
      <point x="299.2311320754717" y="-82.36792452830188"/>
      <point x="299.2311320754717" y="-100.80660377358491" type="curve" smooth="yes"/>
      <point x="299.2311320754717" y="-124.1745283018868"/>
      <point x="310.8443396226415" y="-133.9811320754717"/>
      <point x="346.8254716981132" y="-133.9811320754717" type="curve" smooth="yes"/>
      <point x="362.12264150943395" y="-133.9811320754717"/>
      <point x="375.54245283018867" y="-132.41981132075472"/>
      <point x="386.2783018867924" y="-129.73584905660377" type="curve"/>
      <point x="386.2783018867924" y="-87.56132075471699"/>
      <point x="386.71698113207543" y="-4.334905660377359"/>
      <point x="395.7688679245283" y="54.08490566037736" type="curve"/>
      <point x="313.0377358490566" y="54.08490566037736" type="line"/>
    </contour>
    <contour>
      <point x="423.2783018867924" y="697.9669811320754" type="line"/>
      <point x="436.45283018867923" y="730.4056603773585"/>
      <point x="442.8207547169811" y="770.0377358490566"/>
      <point x="442.8207547169811" y="795.7216981132075" type="curve" smooth="yes"/>
      <point x="442.8207547169811" y="822.7028301886792"/>
      <point x="424.6462264150943" y="831.632075471698"/>
      <point x="394.2971698113207" y="831.632075471698" type="curve"/>
      <point x="378.12264150943395" y="831.632075471698"/>
      <point x="366.0707547169811" y="830.0707547169811"/>
      <point x="355.77358490566036" y="827.3867924528302" type="curve"/>
      <point x="355.77358490566036" y="780.127358490566"/>
      <point x="353.89622641509436" y="696.0754716981132"/>
      <point x="344.6509433962264" y="642.3396226415094" type="curve"/>
      <point x="423.2783018867924" y="642.3396226415094" type="line"/>
    </contour>
    <contour>
      <point x="275.561320754717" y="-10.0" type="curve"/>
      <point x="415.438679245283" y="-10.0"/>
      <point x="527.3679245283018" y="58.10377358490566"/>
      <point x="527.3679245283018" y="187.03301886792454" type="curve" smooth="yes"/>
      <point x="527.3679245283018" y="198.92924528301887" type="line" smooth="yes"/>
      <point x="527.3679245283018" y="252.8254716981132"/>
      <point x="489.54245283018867" y="299.38679245283015"/>
      <point x="428.3820754716981" y="320.0" type="curve"/>
      <point x="428.3820754716981" y="336.8066037735849" type="line"/>
      <point x="216.33962264150944" y="343.4528301886793" type="line"/>
      <point x="216.33962264150944" y="319.3490566037736" type="line"/>
      <point x="286.87735849056605" y="319.3490566037736" type="line"/>
      <point x="382.2311320754717" y="299.438679245283"/>
      <point x="421.23584905660374" y="262.29716981132077"/>
      <point x="421.23584905660374" y="211.7688679245283" type="curve" smooth="yes"/>
      <point x="421.23584905660374" y="201.13679245283018" type="line" smooth="yes"/>
      <point x="421.23584905660374" y="123.15094339622641"/>
      <point x="356.3018867924528" y="91.08018867924528"/>
      <point x="271.6320754716981" y="91.08018867924528" type="curve" smooth="yes"/>
      <point x="234.62735849056605" y="91.08018867924528"/>
      <point x="215.29245283018867" y="95.15094339622641"/>
      <point x="197.71226415094338" y="103.09905660377359" type="curve"/>
      <point x="197.71226415094338" y="244.63207547169813"/>
      <point x="197.71226415094338" y="381.9009433962264"/>
      <point x="197.71226415094338" y="517.2924528301887" type="curve" smooth="yes"/>
      <point x="197.71226415094338" y="554.7641509433962"/>
      <point x="190.0990566037736" y="582.8679245283018"/>
      <point x="171.3632075471698" y="601.7971698113207" type="curve"/>
      <point x="183.1179245283019" y="632.9198113207547" type="line"/>
      <point x="85.96698113207547" y="632.9198113207547" type="line"/>
      <point x="85.96698113207547" y="448.5990566037736"/>
      <point x="85.96698113207547" y="276.4198113207547"/>
      <point x="85.96698113207547" y="96.48584905660377" type="curve"/>
      <point x="85.96698113207547" y="74.18867924528303"/>
      <point x="93.45754716981132" y="57.76886792452831"/>
      <point x="109.87735849056604" y="41.34905660377359" type="curve" smooth="yes"/>
      <point x="135.22641509433961" y="16.0"/>
      <point x="188.5754716981132" y="-10.0"/>
    </contour>
    <contour>
      <point x="33.721698113207545" y="700.0" type="curve"/>
      <point x="31.47641509433962" y="689.1415094339623"/>
      <point x="30.35377358490566" y="677.8443396226415"/>
      <point x="30.35377358490566" y="663.617924528302" type="curve" smooth="yes"/>
      <point x="30.35377358490566" y="616.7264150943396"/>
      <point x="40.721698113207545" y="593.867924528302"/>
      <point x="66.89622641509433" y="593.867924528302" type="curve" smooth="yes"/>
      <point x="87.01886792452831" y="593.867924528302"/>
      <point x="173.21226415094338" y="613.867924528302"/>
      <point x="281.0188679245283" y="613.867924528302" type="curve" smooth="yes"/>
      <point x="334.0377358490566" y="613.867924528302"/>
      <point x="373.79245283018867" y="608.5518867924528"/>
      <point x="408.44339622641513" y="593.5330188679245" type="curve" smooth="yes"/>
      <point x="421.3396226415094" y="573.2688679245283"/>
      <point x="427.2877358490566" y="550.0566037735848"/>
      <point x="427.2877358490566" y="518.2122641509434" type="curve" smooth="yes"/>
      <point x="427.2877358490566" y="508.45754716981133" type="line" smooth="yes"/>
      <point x="427.2877358490566" y="415.3490566037736"/>
      <point x="356.35377358490564" y="364.99528301886795"/>
      <point x="239.24056603773585" y="364.99528301886795" type="curve" smooth="yes"/>
      <point x="209.9245283018868" y="364.99528301886795"/>
      <point x="198.0990566037736" y="368.311320754717"/>
      <point x="180.0990566037736" y="378.433962264151" type="curve"/>
      <point x="180.0990566037736" y="296.0" type="line" smooth="yes"/>
      <point x="203.71226415094338" y="299.0707547169811" type="line"/>
      <point x="215.71226415094338" y="287.0707547169811"/>
      <point x="233.02830188679246" y="281.6320754716981"/>
      <point x="256.1509433962264" y="281.6320754716981" type="curve" smooth="yes"/>
      <point x="408.872641509434" y="281.6320754716981"/>
      <point x="533.4198113207547" y="367.73584905660374"/>
      <point x="533.4198113207547" y="506.7028301886792" type="curve" smooth="yes"/>
      <point x="533.4198113207547" y="520.2830188679245" type="line" smooth="yes"/>
      <point x="533.4198113207547" y="620.8113207547169"/>
      <point x="454.6839622641509" y="720.0"/>
      <point x="295.43867924528297" y="720.0" type="curve" smooth="yes"/>
      <point x="215.9669811320755" y="720.0"/>
      <point x="127.49528301886792" y="715.316037735849"/>
    </contour>
  </outline>
</glyph>
<glyph name="arrowleftright" format="2">
  <advance width="600.0"/>
  <unicode hex="2194"/>
  <outline>
    <contour>
      <point x="291.73584905660374" y="301.1933962264151" type="curve" smooth="yes"/>
      <point x="310.7547169811321" y="301.1933962264151" type="line" smooth="yes"/>
      <point x="359.72169811320754" y="301.1933962264151"/>
      <point x="426.79245283018867" y="306.87735849056605"/>
      <point x="470.25" y="319.6132075471698" type="curve"/>
      <point x="471.933962264151" y="327.10377358490564"/>
      <point x="472.495283018868" y="334.0330188679245"/>
      <point x="472.495283018868" y="342.08490566037733" type="curve" smooth="yes"/>
      <point x="472.495283018868" y="366.188679245283"/>
      <point x="460.3207547169811" y="374.433962264151"/>
      <point x="443.07547169811323" y="379.1179245283019" type="curve" smooth="yes"/>
      <point x="404.8820754716981" y="388.36320754716985"/>
      <point x="345.9339622641509" y="390.48584905660374"/>
      <point x="311.6320754716981" y="390.48584905660374" type="curve" smooth="yes"/>
      <point x="292.6132075471698" y="390.48584905660374" type="line" smooth="yes"/>
      <point x="238.38207547169813" y="390.48584905660374"/>
      <point x="176.5754716981132" y="384.8018867924529"/>
      <point x="133.1179245283019" y="372.066037735849" type="curve"/>
      <point x="131.43396226415098" y="364.5754716981132"/>
      <point x="130.87264150943398" y="357.6462264150943"/>
      <point x="130.87264150943398" y="349.5943396226415" type="curve" smooth="yes"/>
      <point x="130.87264150943398" y="325.49056603773585"/>
      <point x="143.04716981132074" y="317.2452830188679"/>
      <point x="160.29245283018872" y="312.561320754717" type="curve" smooth="yes"/>
      <point x="198.48584905660377" y="303.316037735849"/>
      <point x="252.1698113207547" y="301.1933962264151"/>
    </contour>
    <contour>
      <point x="5.509433962264151" y="374.13679245283026" type="curve"/>
      <point x="5.509433962264151" y="347.66509433962267" type="line" smooth="yes"/>
      <point x="5.509433962264151" y="314.438679245283"/>
      <point x="9.193396226415095" y="301.0707547169812"/>
      <point x="25.245283018867926" y="275.08962264150944" type="curve" smooth="yes"/>
      <point x="67.07075471698113" y="207.2641509433962"/>
      <point x="112.65094339622641" y="151.438679245283"/>
      <point x="158.0896226415094" y="105.63207547169812" type="curve" smooth="yes"/>
      <point x="184.26415094339623" y="78.77358490566037"/>
      <point x="206.6320754716981" y="66.65094339622642"/>
      <point x="225.2452830188679" y="66.65094339622642" type="curve" smooth="yes"/>
      <point x="240.73584905660377" y="66.65094339622642"/>
      <point x="250.91037735849054" y="76.38679245283019"/>
      <point x="250.91037735849054" y="114.7877358490566" type="curve"/>
      <point x="250.91037735849054" y="132.69811320754715"/>
      <point x="249.91037735849054" y="141.9433962264151"/>
      <point x="247.34905660377356" y="156.4858490566038" type="curve"/>
      <point x="178.05188679245285" y="207.97641509433964"/>
      <point x="110.1556603773585" y="280.31132075471703"/>
      <point x="56.330188679245296" y="367.7169811320755" type="curve"/>
      <point x="74.3820754716981" y="302.22641509433964" type="line"/>
      <point x="74.3820754716981" y="373.73584905660374" type="line"/>
      <point x="56.330188679245296" y="312.4905660377358" type="line"/>
      <point x="107.34905660377359" y="395.3160377358491"/>
      <point x="178.22641509433961" y="477.12264150943395"/>
      <point x="244.54245283018867" y="539.0" type="curve"/>
      <point x="247.1037735849056" y="551.8584905660377"/>
      <point x="248.10377358490564" y="565.0330188679245"/>
      <point x="248.10377358490564" y="578.4528301886792" type="curve"/>
      <point x="248.10377358490564" y="612.7311320754718"/>
      <point x="241.1745283018868" y="626.1509433962264"/>
      <point x="222.438679245283" y="626.1509433962264" type="curve" smooth="yes"/>
      <point x="205.26415094339623" y="626.1509433962264"/>
      <point x="180.16037735849056" y="610.2924528301886"/>
      <point x="158.8632075471698" y="587.7500000000001" type="curve" smooth="yes"/>
      <point x="102.66981132075472" y="529.8207547169811"/>
      <point x="48.405660377358494" y="457.94339622641513"/>
    </contour>
    <contour>
      <point x="594.4905660377358" y="318.6650943396226" type="curve"/>
      <point x="594.4905660377358" y="345.13679245283015" type="line" smooth="yes"/>
      <point x="594.4905660377358" y="379.48584905660374"/>
      <point x="589.6839622641509" y="396.2216981132076"/>
      <point x="575.316037735849" y="419.39622641509436" type="curve" smooth="yes"/>
      <point x="535.1745283018869" y="483.8537735849057"/>
      <point x="488.10377358490564" y="538.6084905660376"/>
      <point x="441.91037735849056" y="583.2405660377359" type="curve" smooth="yes"/>
      <point x="411.8066037735849" y="612.3443396226414"/>
      <point x="389.6839622641509" y="626.1509433962264"/>
      <point x="370.50943396226415" y="626.1509433962264" type="curve" smooth="yes"/>
      <point x="356.45754716981133" y="626.1509433962264"/>
      <point x="349.08962264150944" y="612.8537735849058"/>
      <point x="349.08962264150944" y="580.6462264150944" type="curve"/>
      <point x="349.08962264150944" y="560.9811320754717"/>
      <point x="349.52830188679246" y="549.4905660377359"/>
      <point x="352.65094339622647" y="534.0707547169811" type="curve"/>
      <point x="423.77358490566036" y="478.3160377358491"/>
      <point x="490.2830188679245" y="407.49056603773585"/>
      <point x="543.6698113207548" y="319.4716981132075" type="curve"/>
      <point x="525.6179245283018" y="387.20754716981133" type="line"/>
      <point x="525.6179245283018" y="313.4528301886793" type="line"/>
      <point x="543.6698113207548" y="374.6981132075472" type="line"/>
      <point x="492.0188679245283" y="290.1179245283019"/>
      <point x="422.16037735849056" y="210.06603773584908"/>
      <point x="355.45754716981133" y="153.80188679245285" type="curve"/>
      <point x="352.8962264150943" y="140.06603773584908"/>
      <point x="351.89622641509436" y="126.89150943396226"/>
      <point x="351.89622641509436" y="112.5943396226415" type="curve"/>
      <point x="351.89622641509436" y="81.75471698113208"/>
      <point x="359.2641509433962" y="66.65094339622642"/>
      <point x="380.1745283018868" y="66.65094339622642" type="curve" smooth="yes"/>
      <point x="399.91037735849056" y="66.65094339622642"/>
      <point x="424.1367924528302" y="81.1933962264151"/>
      <point x="446.75" y="105.05188679245283" type="curve" smooth="yes"/>
      <point x="502.50471698113205" y="162.5424528301887"/>
      <point x="550.2783018867923" y="229.9811320754717"/>
    </contour>
  </outline>
</glyph>
<glyph name="partialdiff" format="2">
  <advance width="600.0"/>
  <unicode hex="2202"/>
  <outline>
    <contour>
      <point x="267.52830188679246" y="502.52830188679246" type="curve" smooth="yes"/>
      <point x="148.94811320754715" y="502.52830188679246"/>
      <point x="60.96698113207547" y="404.4056603773585"/>
      <point x="60.96698113207547" y="250.19339622641508" type="curve" smooth="yes"/>
      <point x="60.96698113207547" y="239.2641509433962" type="line" smooth="yes"/>
      <point x="60.96698113207547" y="77.72169811320755"/>
      <point x="162.12264150943398" y="-11.122641509433961"/>
      <point x="294.561320754717" y="-11.122641509433961" type="curve" smooth="yes"/>
      <point x="443.4198113207547" y="-11.122641509433961"/>
      <point x="539.0330188679245" y="89.07075471698113"/>
      <point x="539.0330188679245" y="266.29716981132077" type="curve" smooth="yes"/>
      <point x="539.0330188679245" y="279.8584905660377" type="line" smooth="yes"/>
      <point x="539.0330188679245" y="463.75471698113205"/>
      <point x="460.04716981132077" y="618.6132075471698"/>
      <point x="341.7452830188679" y="736.9150943396226" type="curve" smooth="yes"/>
      <point x="319.3962264150943" y="759.2641509433962"/>
      <point x="300.1698113207547" y="770.0"/>
      <point x="275.6981132075471" y="770.0" type="curve" smooth="yes"/>
      <point x="245.3490566037736" y="770.0"/>
      <point x="226.6132075471698" y="758.2641509433962"/>
      <point x="210.43867924528303" y="744.4056603773585" type="curve"/>
      <point x="210.43867924528303" y="738.4056603773585" type="line"/>
      <point x="356.4764150943396" y="598.0"/>
      <point x="435.70754716981133" y="463.6132075471698"/>
      <point x="435.70754716981133" y="267.50943396226415" type="curve" smooth="yes"/>
      <point x="435.70754716981133" y="256.1933962264151" type="line" smooth="yes"/>
      <point x="435.70754716981133" y="156.85849056603774"/>
      <point x="388.8820754716981" y="89.39622641509435"/>
      <point x="280.3349056603774" y="89.39622641509435" type="curve" smooth="yes"/>
      <point x="254.2122641509434" y="89.39622641509435"/>
      <point x="232.89622641509433" y="92.95754716981133"/>
      <point x="214.8254716981132" y="100.64150943396227" type="curve"/>
      <point x="172.80188679245282" y="132.60849056603774"/>
      <point x="164.29245283018867" y="187.49056603773585"/>
      <point x="164.29245283018867" y="238.21226415094338" type="curve" smooth="yes"/>
      <point x="164.29245283018867" y="244.77358490566039" type="line" smooth="yes"/>
      <point x="164.29245283018867" y="334.12735849056605"/>
      <point x="206.75" y="403.6933962264151"/>
      <point x="289.49056603773585" y="403.6933962264151" type="curve" smooth="yes"/>
      <point x="350.08962264150944" y="403.6933962264151"/>
      <point x="394.2311320754717" y="384.9198113207547"/>
      <point x="441.3207547169811" y="341.0566037735849" type="curve"/>
      <point x="455.4245283018868" y="451.52830188679246" type="line"/>
      <point x="400.4433962264151" y="447.14150943396226" type="line"/>
      <point x="368.05660377358487" y="482.2122641509434"/>
      <point x="324.47641509433964" y="502.52830188679246"/>
    </contour>
  </outline>
</glyph>
<glyph name="increment" format="2">
  <advance width="600.0"/>
  <unicode hex="2206"/>
  <outline>
    <contour>
      <point x="277.77358490566036" y="710.0" type="curve" smooth="yes"/>
      <point x="269.52830188679246" y="710.0"/>
      <point x="260.84433962264154" y="710.0"/>
      <point x="252.59905660377356" y="710.0" type="curve"/>
      <point x="130.38679245283018" y="570.6933962264151"/>
      <point x="59.89622641509435" y="328.6981132075472"/>
      <point x="59.89622641509433" y="47.698113207547166" type="curve" smooth="yes"/>
      <point x="59.89622641509433" y="12.297169811320757"/>
      <point x="95.29716981132076" y="0.0"/>
      <point x="142.0990566037736" y="0.0" type="curve" smooth="yes"/>
      <point x="541.6650943396227" y="0.0" type="line"/>
      <point x="536.0518867924528" y="262.14150943396226"/>
      <point x="486.60849056603774" y="467.90094339622647"/>
      <point x="422.0801886792453" y="597.6556603773585" type="curve"/>
      <point x="400.64150943396226" y="641.3915094339623"/>
      <point x="379.90566037735846" y="669.9858490566037"/>
      <point x="358.9952830188679" y="690.8962264150942" type="curve" smooth="yes"/>
      <point x="348.5047169811321" y="701.3867924528302"/>
      <point x="316.9811320754717" y="710.0"/>
    </contour>
    <contour>
      <point x="172.93867924528303" y="100.5188679245283" type="line"/>
      <point x="185.55188679245285" y="350.3443396226415"/>
      <point x="217.53773584905662" y="486.1933962264151"/>
      <point x="312.2971698113207" y="619.622641509434" type="curve"/>
      <point x="272.75471698113205" y="604.4481132075472" type="line"/>
      <point x="329.98113207547175" y="604.4481132075472" type="line" smooth="yes"/>
      <point x="290.99999999999994" y="620.1839622641509" type="line"/>
      <point x="376.37264150943395" y="496.9150943396226"/>
      <point x="414.1320754716981" y="335.183962264151"/>
      <point x="426.62264150943395" y="94.46698113207547" type="curve"/>
      <point x="408.3962264150943" y="98.83490566037736"/>
      <point x="390.1698113207547" y="100.5188679245283"/>
      <point x="371.066037735849" y="100.5188679245283" type="curve" smooth="yes"/>
    </contour>
  </outline>
</glyph>
<glyph name="product" format="2">
  <advance width="600.0"/>
  <unicode hex="220F"/>
  <outline>
    <contour>
      <point x="44.0188679245283" y="700.0" type="line"/>
      <point x="39.77358490566038" y="689.2641509433962"/>
      <point x="37.65094339622641" y="674.8443396226415"/>
      <point x="37.65094339622641" y="659.8632075471697" type="curve" smooth="yes"/>
      <point x="37.65094339622641" y="627.9528301886792"/>
      <point x="42.283018867924525" y="593.8679245283018"/>
      <point x="80.61320754716981" y="593.8679245283018" type="curve" smooth="yes"/>
      <point x="553.6132075471698" y="593.8679245283018" type="line"/>
      <point x="556.2971698113207" y="604.0424528301886"/>
      <point x="557.8584905660377" y="617.4622641509434"/>
      <point x="557.8584905660377" y="632.566037735849" type="curve" smooth="yes"/>
      <point x="557.8584905660377" y="671.7216981132076"/>
      <point x="549.8584905660377" y="700.0"/>
      <point x="512.9669811320755" y="700.0" type="curve"/>
    </contour>
    <contour>
      <point x="109.12735849056604" y="626.1132075471698" type="line"/>
      <point x="109.12735849056604" y="436.3207547169811"/>
      <point x="109.12735849056604" y="245.4056603773585"/>
      <point x="109.12735849056604" y="55.613207547169814" type="curve" smooth="yes"/>
      <point x="109.12735849056604" y="10.754716981132075"/>
      <point x="125.21403301886792" y="-8.877358490566039"/>
      <point x="183.9811320754717" y="-8.877358490566039" type="curve" smooth="yes"/>
      <point x="200.64622641509433" y="-8.877358490566039"/>
      <point x="211.69811320754718" y="-7.316037735849056"/>
      <point x="220.87264150943398" y="-4.754716981132075" type="curve"/>
      <point x="220.87264150943398" y="158.6179245283019"/>
      <point x="220.87264150943398" y="322.8679245283019"/>
      <point x="220.87264150943398" y="486.24056603773585" type="curve" smooth="yes"/>
      <point x="220.87264150943398" y="544.9764150943397"/>
      <point x="213.9433962264151" y="567.0801886792453"/>
      <point x="194.1556603773585" y="587.867924528302" type="curve"/>
      <point x="194.1556603773585" y="626.1132075471698" type="line"/>
    </contour>
    <contour>
      <point x="379.12735849056605" y="626.1132075471698" type="line"/>
      <point x="379.12735849056605" y="436.3207547169811"/>
      <point x="379.12735849056605" y="231.4245283018868"/>
      <point x="379.12735849056605" y="61.22641509433962" type="curve" smooth="yes"/>
      <point x="379.12735849056605" y="5.438679245283019"/>
      <point x="396.530070754717" y="-10.0"/>
      <point x="456.1745283018868" y="-10.0" type="curve" smooth="yes"/>
      <point x="472.83962264150944" y="-10.0"/>
      <point x="485.6981132075471" y="-8.43867924528302"/>
      <point x="501.24056603773585" y="-4.754716981132075" type="curve"/>
      <point x="493.55660377358487" y="30.806603773584904"/>
      <point x="490.87264150943395" y="66.92924528301887"/>
      <point x="490.87264150943395" y="105.61320754716981" type="curve" smooth="yes"/>
      <point x="490.87264150943395" y="242.86320754716982"/>
      <point x="490.87264150943395" y="380.9905660377359"/>
      <point x="490.87264150943395" y="518.2405660377359" type="curve" smooth="yes"/>
      <point x="490.87264150943395" y="555.8867924528302"/>
      <point x="485.5047169811321" y="574.254716981132"/>
      <point x="466.7169811320755" y="587.867924528302" type="curve"/>
      <point x="466.7169811320755" y="626.1132075471698" type="line"/>
    </contour>
  </outline>
</glyph>
<glyph name="summation" format="2">
  <advance width="600.0"/>
  <unicode hex="2211"/>
  <outline>
    <contour>
      <point x="46.070754716981135" y="700.0" type="line"/>
      <point x="43.82547169811321" y="688.5801886792452"/>
      <point x="43.26415094339623" y="678.4056603773585"/>
      <point x="43.26415094339623" y="664.7405660377358" type="curve" smooth="yes"/>
      <point x="43.26415094339623" y="610.7452830188679"/>
      <point x="58.92924528301887" y="593.8679245283018"/>
      <point x="87.59433962264151" y="593.8679245283018" type="curve" smooth="yes"/>
      <point x="544.7547169811321" y="593.8679245283018" type="line"/>
      <point x="548.438679245283" y="603.9198113207548"/>
      <point x="550.0" y="617.2169811320755"/>
      <point x="550.0" y="631.6367924528302" type="curve" smooth="yes"/>
      <point x="550.0" y="669.9669811320755"/>
      <point x="535.7028301886793" y="700.0"/>
      <point x="507.79245283018867" y="700.0" type="curve"/>
    </contour>
    <contour>
      <point x="550.5613207547169" y="-159.98584905660377" type="curve" smooth="yes"/>
      <point x="550.5613207547169" y="-122.58490566037736"/>
      <point x="542.5613207547169" y="-93.86792452830188"/>
      <point x="505.6698113207547" y="-93.86792452830188" type="curve" smooth="yes"/>
      <point x="208.62264150943398" y="-93.86792452830188" type="line"/>
      <point x="207.62264150943398" y="-87.8679245283019" type="line"/>
      <point x="319.9575471698114" y="5.466981132075475"/>
      <point x="400.0040103182953" y="94.50069326376985"/>
      <point x="450.1179245283019" y="205.73584905660377" type="curve" smooth="yes"/>
      <point x="458.4339622641509" y="223.92924528301887"/>
      <point x="461.99528301886795" y="239.6132075471698"/>
      <point x="461.99528301886795" y="255.3490566037736" type="curve" smooth="yes"/>
      <point x="461.99528301886795" y="260.7877358490566"/>
      <point x="461.99528301886795" y="266.7877358490566"/>
      <point x="461.99528301886795" y="272.2264150943396" type="curve"/>
      <point x="359.74528301886795" y="345.5801886792453"/>
      <point x="294.77830188679246" y="425.37264150943395"/>
      <point x="250.02358490566039" y="527.5707547169811" type="curve" smooth="yes"/>
      <point x="232.41037735849056" y="563.2547169811321"/>
      <point x="221.2358490566038" y="576.5"/>
      <point x="194.5188679245283" y="587.867924528302" type="curve"/>
      <point x="194.5188679245283" y="649.8632075471698" type="line"/>
      <point x="84.07075471698113" y="649.8632075471698" type="line"/>
      <point x="138.08962264150944" y="463.4198113207547"/>
      <point x="216.4952830188679" y="339.61320754716985"/>
      <point x="341.07547169811323" y="242.68396226415095" type="curve"/>
      <point x="285.12735849056605" y="111.89150943396226"/>
      <point x="188.811320754717" y="10.240566037735853"/>
      <point x="57.966981132075475" y="-90.35849056603773" type="curve"/>
      <point x="54.28301886792453" y="-101.41037735849056"/>
      <point x="53.28301886792453" y="-108.53301886792453"/>
      <point x="53.28301886792453" y="-121.83018867924528" type="curve" smooth="yes"/>
      <point x="53.28301886792453" y="-165.28301886792454"/>
      <point x="77.94811320754717" y="-200.0"/>
      <point x="115.83962264150944" y="-200.0" type="curve" smooth="yes"/>
      <point x="546.632075471698" y="-200.0" type="line"/>
      <point x="548.877358490566" y="-188.94811320754718"/>
      <point x="550.5613207547169" y="-175.52830188679243"/>
    </contour>
  </outline>
</glyph>
<glyph name="minus" format="2">
  <advance width="600.0"/>
  <unicode hex="2212"/>
  <outline>
    <contour>
      <point x="58.07075471698113" y="353.0660377358491" type="line"/>
      <point x="55.386792452830186" y="338.6462264150943"/>
      <point x="53.264150943396224" y="322.2264150943396"/>
      <point x="53.264150943396224" y="308.9292452830189" type="curve" smooth="yes"/>
      <point x="53.264150943396224" y="263.4245283018868"/>
      <point x="70.26415094339623" y="246.93396226415095"/>
      <point x="113.10377358490567" y="246.93396226415095" type="curve"/>
      <point x="546.4198113207547" y="246.93396226415095" type="line"/>
      <point x="549.1037735849056" y="261.35377358490564"/>
      <point x="551.2264150943396" y="277.33490566037733"/>
      <point x="551.2264150943396" y="291.0707547169811" type="curve" smooth="yes"/>
      <point x="551.2264150943396" y="336.01415094339626"/>
      <point x="534.2264150943396" y="353.0660377358491"/>
      <point x="491.3867924528302" y="353.0660377358491" type="curve"/>
    </contour>
  </outline>
</glyph>
<glyph name="Q.titl" format="2">
  <advance width="600.0"/>
  <outline>
    <contour>
      <point x="306.17452830188677" y="720.0" type="curve" smooth="yes"/>
      <point x="151.31603773584908" y="720.0"/>
      <point x="56.58018867924529" y="580.9999999999999"/>
      <point x="56.58018867924529" y="327.70283018867923" type="curve" smooth="yes"/>
      <point x="56.58018867924529" y="305.561320754717" type="line" smooth="yes"/>
      <point x="56.58018867924529" y="93.03301886792454"/>
      <point x="154.75471698113208" y="-17.193396226415093"/>
      <point x="335.8962264150943" y="-17.193396226415093" type="curve" smooth="yes"/>
      <point x="408.4198113207547" y="-17.193396226415093"/>
      <point x="474.6132075471698" y="-12.754716981132075"/>
      <point x="553.7358490566038" y="-1.7547169811320753" type="curve"/>
      <point x="558.4198113207547" y="11.174528301886793"/>
      <point x="561.5424528301886" y="28.91037735849057"/>
      <point x="561.5424528301886" y="44.400943396226424" type="curve" smooth="yes"/>
      <point x="561.5424528301886" y="80.09905660377359"/>
      <point x="550.6132075471697" y="98.13207547169812"/>
      <point x="520.4575471698113" y="98.13207547169812" type="curve" smooth="yes"/>
      <point x="478.35377358490564" y="98.13207547169812"/>
      <point x="418.3349056603774" y="80.44811320754718"/>
      <point x="329.0188679245283" y="80.44811320754718" type="curve" smooth="yes"/>
      <point x="285.00000000000006" y="80.44811320754718"/>
      <point x="257.438679245283" y="85.88679245283019"/>
      <point x="223.61320754716982" y="98.0801886792453" type="curve"/>
      <point x="184.67924528301887" y="143.9575471698113"/>
      <point x="162.7122641509434" y="222.04716981132074"/>
      <point x="162.7122641509434" y="327.5943396226415" type="curve" smooth="yes"/>
      <point x="162.7122641509434" y="344.5424528301887" type="line" smooth="yes"/>
      <point x="162.7122641509434" y="524.4764150943397"/>
      <point x="212.43396226415095" y="614.4292452830189"/>
      <point x="307.0" y="614.4292452830189" type="curve" smooth="yes"/>
      <point x="339.26415094339626" y="614.4292452830189"/>
      <point x="366.08962264150944" y="608.2358490566038"/>
      <point x="388.16037735849056" y="595.0424528301887" type="curve"/>
      <point x="419.63679245283015" y="545.3915094339624"/>
      <point x="437.2877358490566" y="476.1084905660378"/>
      <point x="437.2877358490566" y="366.9622641509434" type="curve" smooth="yes"/>
      <point x="437.2877358490566" y="355.71698113207543" type="line" smooth="yes"/>
      <point x="437.2877358490566" y="216.22169811320757"/>
      <point x="399.9339622641509" y="140.5"/>
      <point x="328.6320754716981" y="66.44811320754718" type="curve"/>
      <point x="430.9292452830189" y="71.44811320754717" type="line"/>
      <point x="423.9292452830189" y="92.6933962264151" type="line"/>
      <point x="501.29716981132066" y="141.51886792452834"/>
      <point x="543.4198113207547" y="242.22169811320757"/>
      <point x="543.4198113207547" y="356.4339622641509" type="curve" smooth="yes"/>
      <point x="543.4198113207547" y="377.6981132075471" type="line" smooth="yes"/>
      <point x="543.4198113207547" y="604.1556603773585"/>
      <point x="459.2452830188679" y="720.0"/>
    </contour>
  </outline>
</glyph>
<glyph name="acutecomb.case" format="2">
  <anchor x="0.0" y="711.561320754717" name="_top"/>
  <anchor x="0.0" y="707.877358490566" name="_dot"/>
  <anchor x="-156.02830188679246" y="855.8584905660377" name="dot"/>
  <outline>
    <contour>
      <point x="62.25" y="930.4905660377358" type="curve"/>
      <point x="43.882075471698116" y="872.0707547169811"/>
      <point x="2.688679245283016" y="826.8254716981132"/>
      <point x="-59.627358490566046" y="781.8962264150944" type="curve"/>
      <point x="-38.278301886792455" y="771.2122641509435"/>
      <point x="-18.858490566037737" y="768.0896226415094"/>
      <point x="3.6132075471698144" y="768.0896226415094" type="curve" smooth="yes"/>
      <point x="28.768867924528305" y="768.0896226415094"/>
      <point x="46.13679245283019" y="770.9669811320755"/>
      <point x="65.75" y="781.8962264150942" type="curve" smooth="yes"/>
      <point x="109.9433962264151" y="806.8962264150944"/>
      <point x="142.20754716981133" y="839.5990566037735"/>
      <point x="158.33018867924528" y="882.6509433962264" type="curve" smooth="yes"/>
      <point x="164.01415094339623" y="898.3867924528302"/>
      <point x="161.45283018867923" y="913.316037735849"/>
      <point x="145.08490566037736" y="919.438679245283" type="curve" smooth="yes"/>
      <point x="122.41981132075472" y="927.2452830188679"/>
      <point x="98.70283018867924" y="930.4905660377358"/>
    </contour>
  </outline>
</glyph>
<glyph name="acutecombviet.case" format="2">
  <anchor x="0.0" y="712.0" name="_top"/>
  <anchor x="0.0" y="711.0" name="_side"/>
  <outline>
    <contour>
      <point x="44.424528301886795" y="934.4386792452831" type="curve"/>
      <point x="27.617924528301884" y="874.5801886792453"/>
      <point x="-5.820754716981133" y="823.6509433962264"/>
      <point x="-52.89150943396227" y="786.2830188679246" type="curve"/>
      <point x="-30.9811320754717" y="776.0377358490566"/>
      <point x="-15.122641509433963" y="772.4764150943397"/>
      <point x="5.297169811320755" y="772.4764150943397" type="curve" smooth="yes"/>
      <point x="25.716981132075475" y="772.4764150943397"/>
      <point x="41.89150943396226" y="778.0377358490566"/>
      <point x="59.943396226415096" y="793.0896226415094" type="curve" smooth="yes"/>
      <point x="88.33018867924528" y="816.1603773584906"/>
      <point x="109.71698113207547" y="842.8632075471698"/>
      <point x="123.40094339622641" y="878.9858490566037" type="curve" smooth="yes"/>
      <point x="133.5754716981132" y="905.0188679245283"/>
      <point x="129.0849056603774" y="921.5094339622642"/>
      <point x="108.98113207547172" y="927.1933962264151" type="curve" smooth="yes"/>
      <point x="90.56132075471697" y="932.316037735849"/>
      <point x="71.14150943396227" y="934.4386792452831"/>
    </contour>
  </outline>
</glyph>
<glyph name="dotlessi.italic" format="2">
  <advance width="600.0"/>
  <anchor x="301.8066037735849" y="539.5943396226414" name="top"/>
  <anchor x="332.5424528301887" y="-0.5613207547169812" name="bottom"/>
  <anchor x="487.9858490566038" y="4.264150943396226" name="ogonek"/>
  <anchor x="303.24528301886795" y="584.0" name="hook"/>
  <outline>
    <contour>
      <point x="48.40566037735849" y="508.245283018868" type="curve"/>
      <point x="45.28301886792453" y="497.0707547169811"/>
      <point x="42.59905660377358" y="480.4056603773585"/>
      <point x="42.59905660377358" y="464.42452830188677" type="curve" smooth="yes"/>
      <point x="42.59905660377358" y="414.5518867924528"/>
      <point x="56.77358490566038" y="389.20283018867923"/>
      <point x="79.07075471698113" y="389.20283018867923" type="curve" smooth="yes"/>
      <point x="116.98113207547169" y="389.20283018867923"/>
      <point x="162.87735849056605" y="411.64150943396226"/>
      <point x="242.6179245283019" y="451.33962264150944" type="curve"/>
      <point x="247.74056603773582" y="448.90094339622647" type="line"/>
      <point x="247.74056603773582" y="348.7405660377358"/>
      <point x="247.74056603773582" y="248.5801886792453"/>
      <point x="247.74056603773582" y="148.41981132075475" type="curve" smooth="yes"/>
      <point x="247.74056603773582" y="59.943396226415096"/>
      <point x="305.9150943396226" y="-14.38679245283019"/>
      <point x="410.19339622641513" y="-14.38679245283019" type="curve" smooth="yes"/>
      <point x="471.7169811320755" y="-14.38679245283019"/>
      <point x="505.6650943396226" y="0.5424528301886795"/>
      <point x="525.1037735849056" y="19.9811320754717" type="curve" smooth="yes"/>
      <point x="540.0330188679245" y="34.910377358490564"/>
      <point x="551.7688679245283" y="62.259433962264154"/>
      <point x="551.7688679245283" y="97.22169811320755" type="curve" smooth="yes"/>
      <point x="551.7688679245283" y="107.46698113207547"/>
      <point x="550.7688679245283" y="118.2735849056604"/>
      <point x="548.6462264150942" y="127.76415094339623" type="curve"/>
      <point x="542.6462264150944" y="127.76415094339623" type="line"/>
      <point x="507.2264150943396" y="101.13207547169812"/>
      <point x="462.80660377358487" y="88.93867924528303"/>
      <point x="417.683962264151" y="88.93867924528303" type="curve" smooth="yes"/>
      <point x="396.47169811320754" y="88.93867924528303"/>
      <point x="377.89150943396226" y="91.57075471698114"/>
      <point x="363.50471698113205" y="100.02830188679245" type="curve" smooth="yes"/>
      <point x="356.31132075471703" y="123.02830188679246"/>
      <point x="353.872641509434" y="148.58962264150944"/>
      <point x="353.872641509434" y="187.3632075471698" type="curve" smooth="yes"/>
      <point x="353.872641509434" y="284.3490566037736"/>
      <point x="353.872641509434" y="381.21226415094344"/>
      <point x="353.872641509434" y="478.1981132075472" type="curve" smooth="yes"/>
      <point x="353.872641509434" y="521.4575471698113"/>
      <point x="316.47169811320754" y="543.8584905660377"/>
      <point x="254.66981132075472" y="543.8584905660377" type="curve" smooth="yes"/>
      <point x="198.05660377358492" y="543.8584905660377"/>
      <point x="132.98584905660377" y="534.7358490566038"/>
    </contour>
  </outline>
</glyph>
<glyph name="h.italic" format="2">
  <advance width="600.0"/>
  <anchor x="130.54245283018867" y="730.0" name="top"/>
  <anchor x="300.19339622641513" y="0.0" name="bottom"/>
  <outline>
    <contour>
      <point x="64.86320754716981" y="750.0" type="curve"/>
      <point x="76.66981132075472" y="724.683962264151"/>
      <point x="80.91509433962264" y="695.4056603773585"/>
      <point x="80.91509433962264" y="656.2641509433962" type="curve" smooth="yes"/>
      <point x="80.91509433962264" y="463.0330188679245"/>
      <point x="80.91509433962264" y="270.7311320754717"/>
      <point x="80.91509433962264" y="57.85377358490566" type="curve" smooth="yes"/>
      <point x="80.91509433962264" y="19.08490566037736"/>
      <point x="102.28301886792453" y="-3.8773584905660377"/>
      <point x="157.96226415094338" y="-3.8773584905660377" type="curve" smooth="yes"/>
      <point x="167.69811320754715" y="-3.8773584905660377"/>
      <point x="174.50471698113208" y="-3.8773584905660377"/>
      <point x="185.9245283018868" y="-2.193396226415094" type="curve"/>
      <point x="185.9245283018868" y="189.68285418022876"/>
      <point x="185.9245283018868" y="410.1001646876957"/>
      <point x="185.9245283018868" y="623.3066037735849" type="curve" smooth="yes"/>
      <point x="185.9245283018868" y="722.1415094339623"/>
      <point x="147.20754716981133" y="754.683962264151"/>
      <point x="97.14150943396226" y="754.683962264151" type="curve" smooth="yes"/>
      <point x="86.52830188679245" y="754.683962264151"/>
      <point x="75.47641509433961" y="752.561320754717"/>
    </contour>
    <contour>
      <point x="392.0141509433962" y="545.4198113207547" type="curve" smooth="yes"/>
      <point x="309.8207547169811" y="545.4198113207547"/>
      <point x="234.69811320754718" y="467.78773584905656"/>
      <point x="190.9245283018868" y="363.64622641509436" type="curve"/>
      <point x="163.45283018867926" y="363.64622641509436" type="line"/>
      <point x="169.62735849056605" y="176.35849056603774" type="line"/>
      <point x="220.43396226415095" y="344.72169811320754"/>
      <point x="289.22641509433964" y="429.7452830188679"/>
      <point x="360.0188679245283" y="429.7452830188679" type="curve" smooth="yes"/>
      <point x="385.933962264151" y="429.7452830188679"/>
      <point x="403.39150943396226" y="413.02358490566036"/>
      <point x="416.02358490566036" y="380.89622641509436" type="curve" smooth="yes"/>
      <point x="399.77830188679246" y="274.71698113207543"/>
      <point x="392.04245283018867" y="210.85849056603774"/>
      <point x="392.04245283018867" y="115.40094339622641" type="curve" smooth="yes"/>
      <point x="392.04245283018867" y="40.22641509433962"/>
      <point x="433.1981132075472" y="-10.0"/>
      <point x="498.47641509433964" y="-10.0" type="curve" smooth="yes"/>
      <point x="523.7028301886793" y="-10.0"/>
      <point x="542.6839622641509" y="2.981132075471699"/>
      <point x="554.6132075471697" y="21.08490566037736" type="curve" smooth="yes"/>
      <point x="565.9811320754717" y="38.62735849056604"/>
      <point x="571.1037735849056" y="59.04716981132076"/>
      <point x="571.1037735849056" y="81.46698113207547" type="curve" smooth="yes"/>
      <point x="571.1037735849056" y="91.64150943396227"/>
      <point x="570.5424528301886" y="102.37735849056605"/>
      <point x="568.8584905660376" y="111.99056603773585" type="curve"/>
      <point x="562.8584905660377" y="111.99056603773585" type="line"/>
      <point x="551.1745283018868" y="101.06132075471697"/>
      <point x="538.8066037735849" y="96.93867924528301"/>
      <point x="523.0" y="96.37735849056604" type="curve" smooth="yes"/>
      <point x="518.0518867924528" y="96.37735849056604"/>
      <point x="513.4198113207548" y="98.13207547169812"/>
      <point x="509.7877358490566" y="101.64150943396227" type="curve" smooth="yes"/>
      <point x="508.4716981132076" y="114.5377358490566"/>
      <point x="508.03301886792457" y="127.99528301886794"/>
      <point x="508.03301886792457" y="143.64622641509436" type="curve" smooth="yes"/>
      <point x="508.03301886792457" y="227.3490566037736"/>
      <point x="508.03301886792457" y="311.6132075471698"/>
      <point x="508.03301886792457" y="395.3160377358491" type="curve" smooth="yes"/>
      <point x="508.03301886792457" y="468.63207547169816"/>
      <point x="459.2264150943396" y="545.4198113207547"/>
    </contour>
  </outline>
</glyph>
<glyph name="horncomb.case" format="2">
  <anchor x="0.0" y="700.0" name="_horn"/>
  <outline>
    <contour>
      <point x="47.31603773584906" y="843.754716981132" type="curve"/>
      <point x="55.38679245283019" y="820.5094339622641"/>
      <point x="59.45754716981132" y="799.0707547169811"/>
      <point x="59.45754716981132" y="774.632075471698" type="curve" smooth="yes"/>
      <point x="59.45754716981132" y="742.3867924528303"/>
      <point x="51.14150943396226" y="724.6320754716982"/>
      <point x="37.386792452830186" y="715.4386792452831" type="curve" smooth="yes"/>
      <point x="25.94811320754717" y="707.561320754717"/>
      <point x="12.193396226415093" y="705.122641509434"/>
      <point x="1.0" y="705.122641509434" type="curve"/>
      <point x="1.0" y="685.3867924528302"/>
      <point x="1.0" y="675.3349056603774"/>
      <point x="1.0" y="661.2830188679246" type="curve"/>
      <point x="7.0" y="661.2830188679245"/>
      <point x="13.0" y="661.2830188679245"/>
      <point x="19.0" y="661.2830188679245" type="curve" smooth="yes"/>
      <point x="46.10377358490566" y="661.2830188679245"/>
      <point x="73.15566037735849" y="667.4056603773585"/>
      <point x="102.45283018867926" y="687.5283018867924" type="curve" smooth="yes"/>
      <point x="132.75000000000003" y="708.6509433962265"/>
      <point x="151.99528301886795" y="742.8962264150942"/>
      <point x="151.99528301886795" y="794.632075471698" type="curve" smooth="yes"/>
      <point x="151.99528301886795" y="834.632075471698"/>
      <point x="132.62735849056605" y="853.754716981132"/>
      <point x="95.83962264150944" y="853.754716981132" type="curve" smooth="yes"/>
      <point x="74.85849056603774" y="853.754716981132"/>
      <point x="59.68396226415094" y="850.1933962264151"/>
    </contour>
  </outline>
</glyph>
<glyph name="l.sans" format="2">
  <advance width="600.0"/>
  <anchor x="201.36792452830187" y="747.4009433962264" name="top"/>
  <anchor x="335.35377358490564" y="-0.5613207547169812" name="bottom"/>
  <anchor x="422.91037735849056" y="400.0" name="dot"/>
  <anchor x="444.8443396226415" y="686.872641509434" name="caronslovak"/>
  <anchor x="206.75471698113208" y="359.7877358490566" name="slash"/>
  <outline>
    <contour>
      <point x="158.86320754716982" y="656.2641509433963" type="curve" smooth="yes"/>
      <point x="158.86320754716982" y="496.0250679321636"/>
      <point x="158.86320754716982" y="333.08273941257164"/>
      <point x="158.86320754716982" y="163.87735849056602" type="curve" smooth="yes"/>
      <point x="158.86320754716982" y="61.64622641509435"/>
      <point x="225.21226415094338" y="-12.193396226415095"/>
      <point x="358.24528301886795" y="-12.193396226415095" type="curve" smooth="yes"/>
      <point x="424.4198113207547" y="-12.193396226415095"/>
      <point x="470.12264150943395" y="4.367924528301887"/>
      <point x="497.63207547169804" y="31.87735849056604" type="curve" smooth="yes"/>
      <point x="515.9292452830189" y="50.174528301886795"/>
      <point x="524.2971698113207" y="79.78265602320047"/>
      <point x="524.2971698113207" y="119.41509433962264" type="curve" smooth="yes"/>
      <point x="524.2971698113207" y="129.66037735849056"/>
      <point x="523.2971698113207" y="140.4669811320755"/>
      <point x="521.1745283018867" y="149.9575471698113" type="curve"/>
      <point x="515.1745283018868" y="149.9575471698113" type="line"/>
      <point x="468.122641509434" y="105.44811320754718"/>
      <point x="419.561320754717" y="90.25471698113208"/>
      <point x="364.4198113207547" y="90.25471698113208" type="curve" smooth="yes"/>
      <point x="326.47169811320754" y="90.25471698113208"/>
      <point x="304.83962264150944" y="95.44811320754718"/>
      <point x="279.3820754716981" y="107.95754716981132" type="curve" smooth="yes"/>
      <point x="268.872641509434" y="135.78301886792454"/>
      <point x="264.9952830188679" y="166.04716981132077"/>
      <point x="264.9952830188679" y="203.94339622641508" type="curve" smooth="yes"/>
      <point x="264.9952830188679" y="343.71330411528163"/>
      <point x="264.9952830188679" y="488.57075471696646"/>
      <point x="264.9952830188679" y="628.9198113207547" type="curve" smooth="yes"/>
      <point x="264.9952830188679" y="727.7547169811321"/>
      <point x="239.75" y="756.367924528302"/>
      <point x="189.68396226415092" y="756.367924528302" type="curve" smooth="yes"/>
      <point x="171.7735849056604" y="756.367924528302"/>
      <point x="153.42452830188677" y="752.5613207547169"/>
      <point x="142.81132075471697" y="750.0" type="curve"/>
      <point x="154.6179245283019" y="724.6839622641509"/>
      <point x="158.86320754716982" y="695.4056603773585"/>
    </contour>
  </outline>
</glyph>
<glyph name="macroncomb.case" format="2">
  <anchor x="0.0" y="711.561320754717" name="_top"/>
  <anchor x="0.0" y="873.2216981132075" name="top"/>
  <outline>
    <contour>
      <point x="-198.98113207547172" y="890.627358490566" type="line"/>
      <point x="-198.98113207547172" y="885.9433962264151"/>
      <point x="-198.98113207547172" y="880.8207547169811"/>
      <point x="-198.98113207547172" y="875.5754716981132" type="curve" smooth="yes"/>
      <point x="-198.98113207547172" y="822.7028301886792"/>
      <point x="-183.31603773584908" y="801.3349056603773"/>
      <point x="-106.93867924528303" y="801.3349056603773" type="curve" smooth="yes"/>
      <point x="193.92924528301887" y="801.3349056603773" type="line"/>
      <point x="195.61320754716982" y="810.5094339622642"/>
      <point x="197.85849056603774" y="823.4905660377359"/>
      <point x="197.85849056603774" y="835.4716981132076" type="curve" smooth="yes"/>
      <point x="197.85849056603774" y="873.1886792452831"/>
      <point x="186.12264150943398" y="890.627358490566"/>
      <point x="146.7924528301887" y="890.627358490566" type="curve" smooth="yes"/>
    </contour>
  </outline>
</glyph>
<glyph name="parenleft.case" format="2">
  <advance width="600.0"/>
  <outline>
    <contour>
      <point x="358.5518867924528" y="775.688679245283" type="curve" smooth="yes"/>
      <point x="254.02358490566039" y="671.1603773584907"/>
      <point x="195.4433962264151" y="504.0188679245283"/>
      <point x="195.4433962264151" y="323.70283018867923" type="curve" smooth="yes"/>
      <point x="195.4433962264151" y="316.89622641509436" type="line" smooth="yes"/>
      <point x="195.4433962264151" y="136.58018867924528"/>
      <point x="254.58490566037736" y="-31.12264150943396"/>
      <point x="358.5518867924528" y="-135.08962264150944" type="curve" smooth="yes"/>
      <point x="381.4622641509434" y="-158.0"/>
      <point x="401.811320754717" y="-168.17452830188677"/>
      <point x="426.8443396226415" y="-168.17452830188677" type="curve" smooth="yes"/>
      <point x="460.0" y="-168.17452830188677"/>
      <point x="480.9811320754717" y="-157.0"/>
      <point x="497.71698113207543" y="-142.58018867924528" type="curve"/>
      <point x="497.71698113207543" y="-137.45754716981133" type="line"/>
      <point x="379.2405660377359" y="-24.174528301886795"/>
      <point x="314.99528301886795" y="141.89622641509433"/>
      <point x="314.99528301886795" y="316.89622641509436" type="curve" smooth="yes"/>
      <point x="314.99528301886795" y="323.70283018867923" type="line" smooth="yes"/>
      <point x="314.99528301886795" y="497.7028301886792"/>
      <point x="378.6792452830189" y="664.7735849056603"/>
      <point x="497.71698113207543" y="778.0566037735848" type="curve"/>
      <point x="497.71698113207543" y="783.1792452830189" type="line"/>
      <point x="480.98113207547163" y="797.5990566037736"/>
      <point x="460.0" y="808.7735849056604"/>
      <point x="426.8443396226414" y="808.7735849056604" type="curve" smooth="yes"/>
      <point x="401.811320754717" y="808.7735849056604"/>
      <point x="381.4622641509434" y="798.5990566037735"/>
    </contour>
  </outline>
</glyph>
<glyph name="s.italic" format="2">
  <advance width="600.0"/>
  <anchor x="308.12264150943395" y="544.8584905660377" name="top"/>
  <anchor x="296.0518867924528" y="-1.0" name="bottom"/>
  <anchor x="375.6792452830189" y="544.8584905660377" name="dot"/>
  <outline>
    <contour>
      <point x="355.193396226415" y="546.2971698113207" type="curve" smooth="yes"/>
      <point x="206.0" y="546.2971698113207"/>
      <point x="69.23113207547169" y="475.83962264150944"/>
      <point x="69.23113207547169" y="360.7547169811321" type="curve" smooth="yes"/>
      <point x="69.23113207547169" y="291.08962264150944"/>
      <point x="114.0377358490566" y="257.14150943396226"/>
      <point x="239.77358490566036" y="230.2122641509434" type="curve" smooth="yes"/>
      <point x="345.6839622641509" y="207.16037735849056" type="line" smooth="yes"/>
      <point x="405.4245283018868" y="194.90251572328916"/>
      <point x="417.3207547169811" y="171.6320754716981"/>
      <point x="415.39150943396226" y="135.83962264150944" type="curve" smooth="yes"/>
      <point x="396.02358490566036" y="112.60849056603773"/>
      <point x="358.811320754717" y="95.00943396226415"/>
      <point x="300.0" y="95.00943396226415" type="curve" smooth="yes"/>
      <point x="210.43867924528303" y="95.00943396226415"/>
      <point x="164.14150943396223" y="109.57075471698114"/>
      <point x="103.77358490566039" y="149.95754716981133" type="curve"/>
      <point x="97.77358490566039" y="149.95754716981133" type="line"/>
      <point x="95.65094339622642" y="140.22169811320754"/>
      <point x="94.08962264150944" y="129.04716981132077"/>
      <point x="94.08962264150944" y="112.62735849056604" type="curve" smooth="yes"/>
      <point x="94.08962264150944" y="71.24528301886792"/>
      <point x="101.70283018867924" y="47.87735849056604"/>
      <point x="119.31603773584905" y="30.264150943396228" type="curve" smooth="yes"/>
      <point x="140.70283018867923" y="8.438679245283017"/>
      <point x="200.08962264150944" y="-11.122641509433961"/>
      <point x="291.0707547169812" y="-11.122641509433961" type="curve" smooth="yes"/>
      <point x="441.3301886792453" y="-11.122641509433961"/>
      <point x="514.5235849056603" y="40.19339622641509"/>
      <point x="514.5235849056603" y="147.05188679245285" type="curve" smooth="yes"/>
      <point x="514.5235849056603" y="209.6650943396226"/>
      <point x="477.08490566037733" y="254.73584905660377"/>
      <point x="382.5235849056604" y="273.41981132075466" type="curve" smooth="yes"/>
      <point x="289.4009433962264" y="292.1037735849057" type="line" smooth="yes"/>
      <point x="192.7311320754717" y="311.2971698113207"/>
      <point x="176.48584905660377" y="332.3867924528302"/>
      <point x="176.48584905660377" y="356.33490566037733" type="curve" smooth="yes"/>
      <point x="176.48584905660377" y="403.25"/>
      <point x="248.24528301886795" y="440.16509433962267"/>
      <point x="348.7547169811321" y="440.16509433962267" type="curve" smooth="yes"/>
      <point x="387.77358490566036" y="440.16509433962267"/>
      <point x="415.5990566037736" y="433.21698113207543"/>
      <point x="436.6698113207548" y="421.51415094339626" type="curve"/>
      <point x="437.8632075471698" y="400.9339622641509"/>
      <point x="435.4245283018868" y="379.35377358490564"/>
      <point x="428.10849056603774" y="355.6509433962264" type="curve"/>
      <point x="428.10849056603774" y="349.6509433962264" type="line"/>
      <point x="433.6698113207547" y="347.6509433962264"/>
      <point x="439.66981132075466" y="346.6509433962264"/>
      <point x="446.10849056603774" y="346.6509433962264" type="curve" smooth="yes"/>
      <point x="505.66509433962267" y="346.6509433962264"/>
      <point x="533.2594339622642" y="376.0707547169811"/>
      <point x="533.2594339622642" y="427.438679245283" type="curve" smooth="yes"/>
      <point x="533.2594339622642" y="438.75471698113205" type="line"/>
      <point x="533.2594339622642" y="459.438679245283"/>
      <point x="524.6981132075471" y="482.12264150943395"/>
      <point x="505.01415094339626" y="501.2452830188679" type="curve" smooth="yes"/>
      <point x="474.7169811320755" y="530.4198113207547"/>
      <point x="427.85849056603774" y="546.2971698113207"/>
    </contour>
  </outline>
</glyph>
